<mxfile host="app.diagrams.net" modified="2023-07-11T04:24:50.137Z" agent="Mozilla/5.0 (X11; Linux x86_64) AppleWebKit/537.36 (KHTML, like Gecko) Chrome/114.0.0.0 Safari/537.36   " etag="ugQjc1qrrZ1EyKkKI-iX" version="21.6.1">
  <diagram name="Page-1" id="_x-t9NXPcLR7mUhsOvs0">
    <mxGraphModel dx="1146" dy="639" grid="1" gridSize="10" guides="1" tooltips="1" connect="1" arrows="1" fold="1" page="1" pageScale="1" pageWidth="850" pageHeight="1100" math="0" shadow="0">
      <root>
        <mxCell id="0" />
        <mxCell id="1" parent="0" />
        <mxCell id="kMh38vBJg7g_2Ti8jL4W-5" value="" style="points=[[0.13,0.02,0],[0.5,0,0],[0.87,0.02,0],[0.885,0.4,0],[0.985,0.985,0],[0.5,1,0],[0.015,0.985,0],[0.115,0.4,0]];verticalLabelPosition=bottom;sketch=0;html=1;verticalAlign=top;aspect=fixed;align=center;pointerEvents=1;shape=mxgraph.cisco19.laptop;fillColor=#005073;strokeColor=none;" parent="1" vertex="1">
          <mxGeometry x="60" y="240" width="54.29" height="38" as="geometry" />
        </mxCell>
        <mxCell id="kMh38vBJg7g_2Ti8jL4W-6" value="" style="sketch=0;points=[[0.015,0.015,0],[0.985,0.015,0],[0.985,0.985,0],[0.015,0.985,0],[0.25,0,0],[0.5,0,0],[0.75,0,0],[1,0.25,0],[1,0.5,0],[1,0.75,0],[0.75,1,0],[0.5,1,0],[0.25,1,0],[0,0.75,0],[0,0.5,0],[0,0.25,0]];verticalLabelPosition=bottom;html=1;verticalAlign=top;aspect=fixed;align=center;pointerEvents=1;shape=mxgraph.cisco19.handheld;fillColor=#005073;strokeColor=none;" parent="1" vertex="1">
          <mxGeometry x="70" y="320" width="30" height="40" as="geometry" />
        </mxCell>
        <mxCell id="kMh38vBJg7g_2Ti8jL4W-7" value="" style="points=[[0.03,0.03,0],[0.5,0,0],[0.97,0.03,0],[1,0.4,0],[0.97,0.745,0],[0.5,1,0],[0.03,0.745,0],[0,0.4,0]];verticalLabelPosition=bottom;sketch=0;html=1;verticalAlign=top;aspect=fixed;align=center;pointerEvents=1;shape=mxgraph.cisco19.workstation;fillColor=#005073;strokeColor=none;" parent="1" vertex="1">
          <mxGeometry x="62.14000000000001" y="160" width="50" height="40" as="geometry" />
        </mxCell>
        <mxCell id="kMh38vBJg7g_2Ti8jL4W-9" value="" style="endArrow=classic;startArrow=classic;html=1;rounded=0;exitX=1;exitY=0.4;exitDx=0;exitDy=0;exitPerimeter=0;entryX=-0.022;entryY=0.44;entryDx=0;entryDy=0;entryPerimeter=0;" parent="1" source="kMh38vBJg7g_2Ti8jL4W-7" target="kMh38vBJg7g_2Ti8jL4W-46" edge="1">
          <mxGeometry width="50" height="50" relative="1" as="geometry">
            <mxPoint x="150" y="180" as="sourcePoint" />
            <mxPoint x="221.99999999999977" y="255" as="targetPoint" />
          </mxGeometry>
        </mxCell>
        <mxCell id="kMh38vBJg7g_2Ti8jL4W-10" value="" style="endArrow=classic;startArrow=classic;html=1;rounded=0;exitX=0.885;exitY=0.4;exitDx=0;exitDy=0;exitPerimeter=0;entryX=-0.032;entryY=0.424;entryDx=0;entryDy=0;entryPerimeter=0;" parent="1" source="kMh38vBJg7g_2Ti8jL4W-5" target="kMh38vBJg7g_2Ti8jL4W-46" edge="1">
          <mxGeometry width="50" height="50" relative="1" as="geometry">
            <mxPoint x="130" y="300" as="sourcePoint" />
            <mxPoint x="221.99999999999977" y="255" as="targetPoint" />
          </mxGeometry>
        </mxCell>
        <mxCell id="kMh38vBJg7g_2Ti8jL4W-12" value="" style="endArrow=classic;startArrow=classic;html=1;rounded=0;entryX=-0.061;entryY=0.432;entryDx=0;entryDy=0;entryPerimeter=0;exitX=1;exitY=0.5;exitDx=0;exitDy=0;exitPerimeter=0;" parent="1" source="kMh38vBJg7g_2Ti8jL4W-6" target="kMh38vBJg7g_2Ti8jL4W-46" edge="1">
          <mxGeometry width="50" height="50" relative="1" as="geometry">
            <mxPoint x="114.28999999999999" y="370" as="sourcePoint" />
            <mxPoint x="221.99999999999977" y="255" as="targetPoint" />
          </mxGeometry>
        </mxCell>
        <mxCell id="kMh38vBJg7g_2Ti8jL4W-13" value="Nginx&lt;br&gt;For Web Server" style="text;html=1;align=center;verticalAlign=middle;resizable=0;points=[];autosize=1;strokeColor=none;fillColor=none;" parent="1" vertex="1">
          <mxGeometry x="195" y="294.64" width="110" height="40" as="geometry" />
        </mxCell>
        <mxCell id="kMh38vBJg7g_2Ti8jL4W-14" value="Django&lt;br&gt;For Backend" style="text;html=1;align=center;verticalAlign=middle;resizable=0;points=[];autosize=1;strokeColor=none;fillColor=none;" parent="1" vertex="1">
          <mxGeometry x="550" y="299.74" width="90" height="40" as="geometry" />
        </mxCell>
        <mxCell id="kMh38vBJg7g_2Ti8jL4W-15" value="PostgreSQL&lt;br&gt;For Database" style="text;html=1;align=center;verticalAlign=middle;resizable=0;points=[];autosize=1;strokeColor=none;fillColor=none;" parent="1" vertex="1">
          <mxGeometry x="690" y="306.06" width="100" height="40" as="geometry" />
        </mxCell>
        <mxCell id="kMh38vBJg7g_2Ti8jL4W-16" value="" style="shape=image;verticalLabelPosition=bottom;labelBackgroundColor=default;verticalAlign=top;aspect=fixed;imageAspect=0;image=data:image/png,iVBORw0KGgoAAAANSUhEUgAAAhwAAAItCAYAAABy2KN0AAAABmJLR0QA/wD/AP+gvaeTAAAAB3RJTUUH2AEQExIBTlMXoQAAIABJREFUeJzsnXd4VNe1t98Z9VHvEipIQkIIJHoRGDBgsDFgcInjuCZOnDhxi50b3/jmxkmu05zYn+PENYnjuOKCwdjGdNOrqBLqoIJ6r6Oumfn+OIAxSCCdfUYzGu33eebRIM1eewGaM7+z9io6JBKJRDKcCQZCAX8goI+HAfAAvAEXwA9wBTwHuY8FaDr3vBkwA21AO9AANPbxtR4oAYyq/mYSh0JnawckEolE0i/BQMy5RywQBUSiCIzzX11t5NtgaAFKgbKLHiXAaSAXqLWda5KhQgoOiUQisS2+QOK5x7hzXxOAMQw+CjFcaQDygRwg79zzDKAQJbIicQCk4JBIJJKhQQfEAVOAyeceKUC0LZ2yc1qAdODkucdRIBvotaVTEnVIwSGRSCTa4wKMRxEXU1HExSTAx5ZOOQgdKOLjGIoAOYpyLGOypVOSqyMFh0QikYjhDEwDZvJ15CKZ4ZFb4SgYgX3ADmAXcBwpQOwOKTgkEkl/BKOE+yOBMCDo3CPw3FcD4HXuqxtK9YMzV7+Lb0EJiTed+9oKdKLcuRqBnnM/6zj3s1qg7tyj6qLnXZr8LQePN5AKzAXmoQiNkZJrMVxoAXYDO1EESDpKVY3EhkjB4RgYUD4cfFFCufpzz0Eph3M/99yPvv/P24BulDuClnPfO3/hP/+B0IKS2CXftI6FP5CEEv4fd+5rzLmHh828GhitfFOAVAFnURINi849qjXYxwu4DliIIjImA04a2JUMHZXA58B6FBFiK7E6opGCw74JQkkyG4NS/hZy7mvwuUfYua9DeXdVjyI86vt4fr7sreTc884h9EtydeL4Op/g/CPCph5ZnzagmK9FSOG5P+ede97dxxo9yr/TEmApMAclciNxDFqBzcCnwCa+7i0isTJScNgeHUp9fTIwAZgIjEURGb5XWDccqEERHqUoIqQE5UKfh3Lxl5nm1iMIJdw/AyW/YAZKNEPyNb0ooiMDpQxzFMr7bhyKkJc4Pj0oEY93gHUox3gSKyEFx9DihlIGd3FZ3ESUkO1IoxvlYp+DcrHPR8k0z0becaghACXsfy2wAOVoRL6/JZKB0wx8giI+9iL7f2iOvCBZl3iUcOzMc49JyMz1gVCEUvaWjnL3efLc9yTfJAVYAdyI8nsm8wokEm0oAN4+9yixsS8OgxQc2jIaJbFsIbAIJbtfog1NfN3857wQyaTvM3hHZhLwbeAOlPC/RCKxHmaUUtu3UKIfMtlUACk4xNCjlMfdhHKnmWxbd0YcPUAWkAYcBg6hHMs4WiXNKOB+4B6U/AKJRDL0NACrgVdRjoIlg0QKjsGjR0nGuwu4BZlcZm80owiQQ3wtQupt6pE6XIBlwI+AG5DHJRINcXFxwctLSR3z8fHByenKv17Nzc309vbS3Nw8FO7ZOxZgC/BXYBsy12PASMExcFKA+4DvII9KhhMWlCjILmDPuYcWvRmsxTjgeygRjRDbuiKxZ3Q6HSEhIYSEhBAWFkZoaCghISGEh4fj7++Pr68vfn5++Pn54evre+HPrq5iaWRGo5H29naMRiPNzc20t7fT0NBATU0NlZWV1NbWUltbS2Vl5YXvNTY2avS3tjuygL8B7yLbAFwVKTiujC9KJOMHKKWFEscgB6UL4R7gK5TyXVviDNwGPIQSPZPvSwl6vZ7o6GgSEhIYPXo00dHRxMTEXHgeERGBi4uLrd0cEE1NTRQWFlJYWEhRUdGF54WFhRQXF9PbO+wr5OuA14GXse8bGpsiL2x9Mwd4ELgd+++2KBHDgpKIuh3YijKPYajuVPxQjkweAaKGaE+JnREYGEhiYiLjxo1j7NixJCQkXPjq5uZma/esTnd3NwUFBWRlZZGRkcGpU6dIT0+nuLgYi2XYnVZ0AK8Af0YRIZKLkILja3yAu1GExiQb+yKxHR0oNfhbgS9RklC1JgR4EvgJcgbHiMHd3Z3k5GRSUlK+8TU8PNzWrtklLS0tnDp1ilOnTnHy5EmOHj1Kenr6cImGGIEXgf+H7Ct0ASk4lAqAJ1CEhreNfZHYH2dQhMeXKMcwImW4YcB/o/yuGcRdk9grer2epKQkZs6cyYwZM5g5cyYTJ04cNkcg9orRaOTQoUMcOHCAvXv3cvjwYVpbW23t1pVoQhEdL6KIkBHNSBYcY1Eu/vcim3FJBoaRr2cwbODrQXdXwwt4CvgpDthV1tPTE3d3d3x9fTEYDFc8BmhpacFkMtHa2kpvby9Go5Genp4h9NY6jBo1itmzZzNr1ixmzJjBtGnT8PaW9y/WxmQycfLkSfbv38+WLVvYtWsX7e3ttnarL+qAP6HkeIy03kEXGImCIxr4P5SKE72NfZEMX7pQjl3Wokyh7CsN3xklR+PXKEP3hg2urq5ER0cTFxdHTEwMUVFRhIeHExwcTHBwMCEhIQQHB+Pjc7VJ9Fenvb2dpqYmmpqaaGxspKmpibq6OioqKqiqqqKqqorKykoqKiooLS2lu9v21+vQ0FAWLFjAwoULWbhwIWPHjrW1SxKgs7OTnTt3snHjRjZt2kRBQYGtXbqUXOAxlHLaEcdIEhxBwC9RKgGGbSaWi4vLhQv++Q+Ai58HBwfj7u5+4e7Kz88PnU6Hp6cnrq6u36i/P3+XCUoWucViwWQy0dLScuHnDQ0NFx719fXf+HNDQwO1tbVUVVUNx+QuLTk/AGoNyvjrOuAalOQxu84H8vf3JyUlhfHjx5OcnExiYiKJiYlERESg19ufHjeZTJSXl1NcXHyh4iEvL4/c3Fxyc3Pp6rJOI0hvb28WL17MwoULWbRoEePHj0enG0mXz+FJbm4umzZtYsOGDezevRuTyWRrl87zCfBfjLC26SPhHeMMPAz8FqUqwO45n7WemJhIXFwc8fHxxMfHM3r0aIKD7a/PWHd3N+Xl5ZSVlVFSUnLh+dmzZykrK6OoqMiR6/CHDSEhIaSmpjJr1iymTZvGhAkTiIx0nJYyJpOJoqIisrOzyc7OJisri1OnTpGdna3q2GbMmDGsWLGCFStWMH/+fOH+FRLbUllZyUcffcQHH3xAWlqard0BaAP+gJLjYfuw3RDg6ILDru8yDQYDycnJTJw4keTk5AvP7VFUiFJbW0teXh55eXmcPn2a/Px88vLyKCgosNpd6UgnJiaGxYsXs2DBAmbPnk1cXJytXbIJnZ2dZGZmcuzYMU6cOHHFaofk5GS+853vcOutt5KUlGQDbyVDwenTp/nggw9YvXo1eXl5NncHeBSle6lD46iCIwilDvp+7OjvmJSUxKxZs5g1axapqakkJyfj7Oxsa7dsislk4uzZs+Tk5JCbm0tWVhbp6elkZmbaxVn9cMJgMLBkyRJuuOEGlixZQnx8vK1dslva2tpIS0tj7969HDlyhISEBJ5++mn8/f1t7ZpkiDl27Bhvv/0277zzjq1bt68BHgcqbOmENbGbD2ON0KG0hf4LiuiwKWPGjGHRokUXzn1DQ4dV3qBN6e3tJTc3l5MnT3Lq1ClOnDhBRkYG1dWyid/F+Pn5sWLFCm655RaWLl2KwSCrbSUSNRiNRt59911effVVMjMzbeVGC/ArlMi8ow2hdCjBMQ74BzDfVg44Ozszd+5cbrrpJlauXCnvMK1ARUUFaWlpHD58mEOHDnHs2DF7r8PXHDc3N5YuXcr999/PsmXLZG8HiURjdu7cyauvvsr69ett1WgsDfgu1mk8aDMcQXDoUcqM/ogN2pA7OzuzZMkS7rzzTpYvX05AQMBQuzCiMZlM5OTkcPjwYQ4fPsyBAwfIzs52yKqZSZMm8cADD3DXXXfJ3zOJZAgoLy/n9ddf57XXXqO+fsiHTncAv0Dp3eEQF7ThLjhGA28Ci4Z649mzZ3PXXXfx7W9/m5AQOdTTnqirq2Pfvn3s3r2bPXv2kJ6ebk/lcIPCxcWFW265hUceeYR58+bZ2h2JZETS2trKyy+/zAsvvEBd3ZCPSNkOfB8oHeqNtWY4C47voByhiHceGiA+Pj7cc889/OQnPyE5OXmotpUI0tLSwr59+9izZw/btm3j5MmTmM32fTzq7e3NQw89xKOPPkpERISt3ZEMQ1rauzC2d2Hs6MLY0Y2xU/na2a0cERg7urBYoKunl66e/o8NvD3c0Ol0ODvp8XBzwcvDFXdXF9xdnfE2uOHh6oKPwQ0/bw/0Dt6bxGg08uqrr/L8889TW1s7lFs3olSyvD+Um2rNcPztcAGeQ2kTPSSMHz+exx57jLvvvvtC0yzJ8KWuro6vvvqK7du3s337doqLi23t0gUCAwN57LHHePTRR2XFhOQyuntNVDW0UlXfSnWTkdomIw2t7TS0dFDX3EZjawf1LW20tA99qblep8Pf2wN/bw8CfAwEehvw9/Yg2M+LUYE+RAT5EBHki7dh2PZdvEBbWxuvvfYazz33HDU1NUO59RqUoY9Dfr6jBcNNcEQAHwJzh2Kz1NRUfvGLX7By5Uq77Loo0YbTp0+zZcsWNm7cyM6dO+nsHKrp9F8TGBjIk08+ycMPPyxF7Qinpb2Ls9WNlFQ3cra6ibLaZirrW6hsaKWuuc3W7gnj4+lOZJAPo4J8iQsPID4iiLGRQUQE+TLcAiTt7e289tpr/OUvfxlK4VEO3Iky1XpYMZz+e6ejzKyw+iznRYsW8fTTT7NgwQJrbyWxM9rb29mxYwdffvklGzdupKTEup2Hvby8ePLJJ3niiSfksK8RhslspqCigdNltRRU1HO6rJ6CynpqGkfmUFGDmwvxEUHERwQyLjqEyfGjiA0LGBYixGg08sorr/Dss8/S1DQk0+h7UQZCvsAwSigdBv+VACwDPsLKkzbnzp3L73//e6699lprbiMZRqSnp7Nu3TrWrVunaW2+q6srDz74IE8//bRDdpaVXE6TsYNj+eWkF1SSfbaa3JKaC/kUkr7x8XRn8phwJo0ZxaQx4YyPCcXV2cnWbvVLVVUV//u//8tbb701VHli61F6T9m0Y9lAGQ6C40coTVCs1pIzOTmZP/3pT6xYscJaW0gcgLy8PNatW8fatWs5duyYaju33norzz333IhtNT6SaTJ2sGb3KdbsSqehtcPW7gw7XJ2dGDc6hFnjopiXEsu40SF2mah64sQJHnroIQ4dOjQU2+UAq1BapNs19vc/9U3+D2W0t1WIjo7mmWee4d5775U5GpJBUVxcfEF8HDp0aEB3MwkJCbz00kvccMMNQ+Ch9pgtFpqMnTS1ttNo7KDJ2ElzWyfdPSa6enoxdnTR1WOis7vvQWnnqxyc9Ho83V3R63V4urvibXDDx+CGt4cbXue++nl5DItQulq6enr54kAO728/QWntkITgHRJ/bw/mTIjhmuTRpCZF4+PpbmuXLmCxWPjwww/5xS9+QWmp1StaG4E7sPOx9/b6lnYCXkWJbmiOq6srP/vZz3j66acdqhV0d6+JptYOekwmWtu7sACd3b309JjoNZlp71Jmk7S0d6HX6fDyUKZfujg74eGqdKt0d3XGxUUJWXp5uOJrcLerN7E9UlFRwSeffMJ7773HkSNHLvu5u7s7v/rVr3jyySftfuJoc1snp8vqOFvdSEV9CxV1LZTXt1DV0EpTawfmIWqo5qTXE+DtQZCvJ0G+ngT4GAj19yIiyIfwQB8ig3wJ8vO0y7vbwWC2WPjq+Bne+DKNgophWXhgN+j1OibFhXNNcgxLpicQEeRra5cAJb/j2Wef5YUXXqCjw6pRLRPwBPCSNTcRwR7frW7Ae8C3rGF84cKFvPLKK8NqEmR7V8+FTPW65jYaWjtobG2nrrmdxtZ2Gs6Vwhk7rDPsTKcDH4M7vp6K+PDxdLsgRPy8PAgP8CbE34tQfy/CArxxcxm5A+lyc3NZvXo177//PoWFhaSmpvLmm2/a5e9bS3sXmUVVFx65pbU0tLTb2q0B4+LsRHiANzFhAcSG+xMXHsDYqGDiwgNwGmYRS7PFwpYj+fzzi8My4qERKbFhLJ2ZyJJpCQT42P7GMj8/nx/+8Ifs2bPH2lu9CPwXdjiLxd4EhwH4DFistWEfHx9efPFF7r//fq1Na0Z3r4n80lryy+o4U15PQUU9xVUN1A+jDwEAPy8PRYD4eREa4MWoQF9Gh/oRE+ZPRJAvzk7D68NADRaLhYqKCsLDw+3muK6lrZMjeWUczinhxOkKiqsbcMAO8Li6OJEQEURiVDBJo5Vqh5jQ4VHt0NNrYv3+LP698YhDlMDaA3q9jlnjorlhxlgWThmDp7vtoowWi4XXX3+dp556ipaWFmtutRa4Bxj6Gv8rYE9vQauJjQULFvDWW28xevRorU0LUd3YyrH8crKKq8kqriavtJae3uHZgnugOOn1jAr0IfqcABkzKpCxkUHEhQfi6mK/2efDEYsFcs5Ws/NkAYdzS8k9WzNkRyL2ho+nOxPjwpgYF86UhAiSY0JxseNqh/auHj7ccZJ3tx2n1QZNvBwVNxdnrp0Ux7euTWFqgu06+JaVlfH973+fbdusmnKxH1gJNFhzk8FgL4LDAHyBxjNR3Nzc+OMf/8jjjz9uF3eZja0dHM0v40huKUfzyiipkaHT8zjp9cSE+RMfEUhiVDAJkUEkRgbbRSh0OGE2Wzh2upydJwrYlV4wYns6XA0PNxemxI9ixrgoZiRGMjYq2C7zQZqMHby15RhrdmVcsf24ZPAkRARx+4KJ3DgzEQ+3oZ+4bLFYeOmll3jqqaesmduRDVyP0izM5tjDO8wdRWxoGtmIjo7mk08+YcaMGVqaHTTFVY3syShkT0YRGYWVmM0j8w5TLWEB3qTEhpEcG8aEmFCSRoeM6ByR/jhTXs/Gw7lsOpxLrQzFD5oAHwNzk2OYmxJD6vjRGGzwAXQlqhpa+eeGw3xxMNshj8FsibfBjZtmJ/GtaycSHeI35PtnZ2dzzz33cOLECWttcRZYih2Mure14HAC1qGEfTRjyZIlrF69mqCgIC3NDpiz1Y1sTstjy9F8SqplFENLnPR64iMCSYkLIyU2jCkJEYwKHLL5fXZFe2c3Gw/n8dn+LHJKhnSeg0Pj4uzEtLERLJoSz4LJYwjw9rC1SxfIKKjk2Q92kl825BNLHR6dDlKTRnPvkqnMTIoa0r27urr4+c9/zssvv2ytLeqAG4Gj1tpgINhacLyKMohGM375y1/yzDPP4OQ0tOezja0dbErLZXNaHtln5cV/KAn192ba2AimJIxiSnwEMWGOPfSspLqJj3als+FgDm2d1qlMkijo9TqmJUSweFoCi6bE428H4sNkNvPRzgxe/+IQ7fL/3ypMHBPOD5fPZPb4oc37W7NmDQ888IC1EkpbgJsAq5fJ9IctBcdTwJ+0Mubs7Mw//vEPvv/972tlckCcPFPBmt0Z7DxRQLeDJ3wOFwJ8DExNiGDmuChmJUXZTT2+KBkFlby5+Qj7M4tlWN0GODvpmZUUzU2zk5g/Kc7mLbZrm9t44eM9bDtm9w0mhy0psWH8cPks5iQPnfAoKiriW9/6FsePH7eG+Q7gduBLaxi/GrYSHDejHKVosr+Xlxdr1qxh6dKlWpi7Kt29Jr48lMMHO9IplM167J7IYF9mjosidXw008dGDrtGZsfzy3l9wyGO59tF3pcEpSne9dPHsuqaCUyICbWpL4dzSvjzB7tkEroVmRATymO3XsO0sZFDsl9HRwcPPPAAq1evtob5bpSS2TXWMH4lbCE4xgJpgCa3nWFhYXz55ZdMnTpVC3NXpK2zm7V7Mln91QlZIz9M0et1JEWHMC8lljnJMSRFh9htf4b8sjpe/nQ/B7LO2toVyRVIjArmtvkpLJ2ZaLNk0+5eE298mcZbW47KxHQrsnhaAo/fNpewgKGZ7Pzcc8/xP//zP5hMmkfPTSgj7odUdAz1pdaAIjYmaGEsLCyMnTt3Mm7cOC3M9UtXTy9rdmXwn81HaW6zqz4qEkECfQxcc646YVZStE2bAp2nydjBq58dZP2+rBHbN2M4YnB3ZUVqEncvnmyzY7yMwkp+859tslupFXFzcebuxVP4wbIZQ1Ixt2XLFu644w6amzUfCNuLIjo+0dpwfwy14PgA+I4WhsLDw9mxY4fVxcbmtDxeXn+AqoZWq+4jsT2uzk7MTIpi0ZR4rp0Uh+8QH72YLRbW78vi1c8O0mSUk0SHK3q9jkVT4vnuDdNIig4Z8v07unp4ce0+1u09JXN9rEhYgDeP3nIN108fa/UoaVZWFsuWLaOkpERr0z0oomOt1ob7YigFxyNoNFRmKMRGUVUDf/5gF0fzyqy2h8R+cdLrmZYYwXVT4lk4Jd7qpZGFlQ088852MouqrLqPZGiZnhjJvUumMmdCzJAf3R3IOssz72yXx79WZnL8KH5x5wISIqzbhqGqqooVK1Zw7NgxrU13o4y336y14UsZqrfANOAAIByvDg8PZ+fOnSQmJop71Qed3b28sTGN97efcPg245Kr421w47XHb2Gcle5UTWYz72w9zr82HJZVTg5MfEQg9yyeyo2zEod0sFxLWyd/Wr1TVrJYGWcnPd9bOp0f3DjDqi3z29rauOOOO/jyS82LTNqB64BDWhu+mKEQHH7AcSBW1JC1IxuZRVX89u1tFFc1WsW+ZHjh5eHKqz+9hfFWqkIormrk1//ZIvu2jCCigv34yapUlkyzfhj+Yr44mMOfP9hJZ7dsj25N4kYF8vS915ESG2a1PXp6erj//vt5//33tTbdDMwDTmlt+DxDUUj+PjBH1Iivry87duxgwgRN8k2/Qa/JzL++PMz/vb2dxlZ5di5REgBfenQVyXHWuXB8fiCbn7/+JZX1MjdoJNHS3slXx8+w91QREUE+RAYPTXJpYlQwc1NiOZJbKhPfrUhjawdfHMymq8fElPhRVolmOTk5cfPNN1NfX8+RI0e0NO2O0rJiPWCVu25rC47vAv8jasTV1ZUvvviC1NRUDVz6JuV1zTz20mdsOZKPRWZYSQB3V2f+9shKJseP0tx2d4+J37y9jX9vPEKvyay5fcnwoK65jY2Hczl5poLYsACC/bysvmegj4HlqUkUVzfKKK4VsViUhpD7M88yOX6UVbrT6nQ6li1bhslkYs8eTRuHegMLgdWA5mOKrSk4ooHPUVSTanQ6HW+//TarVq3SxquL2HeqmEdf+ozyOqu0kZUMQ1ycnfjzj5aRmhStue3iqkZ++MInHJMNvCTnKK9rYf3+LIqrGkmJC7N6WbarixNLpo3Fw82Fo3ll8ibLitQ1t/H5gWy8DW5Waw63aNEiPDw82L59u5ZmQ4GZwIco/To0w1qCQ4fSSTRJ1NDvfvc7HnnkEXGPLsJssfDPDYf50+oddPXIRD2Jgk4Hv/3e9Vw3NV5z2ztOFPDTlz+jrrldc9uS4U9BRT2f7s3EzdWZ8TGh6K2Y4KHTwaQx4UxLiOBA1lk6unqsttdIx2Q2sz+zmNNldcweP9oqfTvmzp2Lr68vW7du1dJsLBAHfKqlUWsJjkeBh0SN3HzzzbzyyivoNHzztXf18OTrX7J+f5ZmNiWOwSM3z+H2aydqatNigX9sOMRfPtxFT688QpH0T4/JzMHsEnafLCQhMsjq3SzDA324cWYiJ85UUNskS2etSXFVI9uOnWbSmFEE+3lqbn/27NnWEB0TUZqDaXZmYw3BEYGiioRigwkJCWzcuBF3d+2aL9W3tPPI39Zz/LQMaUu+yco54/npbXM1tdnda+K3b2/j410ZmtqVODYNre18cTCbqoZWJo0Jx93Veu3SDe6uLJs1jrPVjRRVNlhtHwm0tnfx5aEc/L0NJI3Wvsw+NTXVGqJjIZB97iGMNQTHP1D6bqjGYDCwbds2oqO1O0c/W93Ig39dJ99UkstIjg3jzw8u0zSjvKW9i8df+Zy9GUWa2ZSMLPJKa/lsfzY+nm6Mi7LezB9nJz2LpybQ1dNLekGldTaRAGAyW9h7qoj6lnZSk6I1r2JJTU3Fz8+PzZs16+GlA5YDG4BqUWNaC46FwPOiRt544w2uv/56DdxRyC6u5sG/rpMd9ySXEehj4LXHb9F0gmxtcxs/fmGt7K8hEaarp5e9GUWkF1QwPTESLw83q+yj08GspGhC/Lw4kHVWzvCxMjlnaziaV8a8lFg8NB74l5qaiqurKzt27NDKpAuwFKVyRSgJTUvB4YJSlRIsYuS2227jD3/4gzYeAVnF1Tz8t09pbde8wkcyzHFxduJvj6xizKhAzWxW1LXwoxfWylHhEk0pr2vh8wPZhPh7kRBpvRba46JDmBgXzu6MQtn51spUNxrZcjSfWUnRBPgYNLU9b948jEYjBw8e1MqkP8rJxfuAajWqpeB4BLhPxEBYWBgbN27EYNDmH/9MeT0//utajB3dmtiTOBb/c9dCFkweo5m9kpomfvT/1spBfxKr0N1rYufJAgoq6pmRGGm13I6IYF/mT4xlf+ZZWjvkjZo1aevsZlNaHknRIZo3gVuyZAllZWWcOHFCK5OxKG0uVNfgaiU4PFFG3Ap1r3nvvfeYOnWqJg7VNBp58K/rZOdQSZ/cOi+ZH62YpZm98rpmHnxhHTVNRs1sSiR9UVTZwMbDecSEBRAd6meVPfy9DVw3NZ79WcU0GWVnUmvS02ti69F8gv08NZ3ZpNPpWL58OSdPniQvL08rs7OB3cBZNYu1Ehw/R5k2p5rvfve7PPXUU5o4Y+zo5icvrqO0plkTexLHYmxUMM89uFyzhK2aJiMP/XU9lfWygZxkaGjv6mHL0TzqmtuYlhhplYFhnh6uLJ42lrTcUupbZP8Ya2K2WNhzLsF82thIzezq9XpWrVrFV199RXm5JtWZOpRczX+jTJkdFFr8lvoBHwOq+7cGBgby2Wef4ekpXp/c02viZ69+QWaRcEKtxAFxdXHipUdXEeSrTS38eXErW0VLbEFOSQ27M4qYkRiFn5f2LbQ93Fy4fvpYTpypoLpRRu+szbH8cprbOpkzIUYhWyRkAAAgAElEQVSzqiQXFxdWrVrFp59+SkODJlWafkAASuXKoNDiFu/nKAklqvnd735HcLBQrukFXvp0P0fyyjSxJXE8Hrl5jmZJoj29Jp58fQNnyus1sSeRqKGwop77nv2I7VYaQe9tcOOVx25mZlKUVexLvslHO9P5zVtbMZu1qxQKDg5m06ZN+PlpdgT3I5Rx9oNCNMIRiNJvXXWTr+nTp/Paa6+h1yC8vfVoPi+u3SdsR+KYzEiM5Kk7F2l25/C7d79i18lCbYxJJAL09JrYfvwMxo4uZoyLQq/XtmmHi7MTS6aP5Ux5PWerZTTP2pwur6O4qpFFU+I167QdEBDAzJkzWb16NWazcNdjHcoo+3+idCMdEKKC42lUqJzz6HQ61q5dq0mDr8KKep54dYOcwCnpEx+DGy//9GbN+his/uokb285poktiUQrThVVcSSvlNkTRms+CM5Jr2fxtHhKqpsoqJBRPWtTWNmgueiIjY3VsjGYP0ozsLSBLhARHAEojUBUX8HvvvtuHnvsMQEXFNq7evjJi5/Kxl6Sfnn63sWajZs/klfGr/+zBdkbSWKPVDca2XQ4l6TRoYwK8tHUtl6nY+HkMRRXNVIouzZbncLKBs5WN7Fw8hjNRMesWbMoKSnh5MmTWpibCLzKAKMcIoLjf4HFahc7Ozuzdu1aAgICBFxQ+MuHuzmUUyJsR+KYLJ6WwI9Xpmpiq6K+hUf/vl5O2JTYNR3dvWxMy8Xfy8B4jUej63Q6Fk2Jp6CigaIqKTqsTUFFPfUt7cxNidXsOPjGG29k27ZtWlSu+ABVwJGBvFit4PACPkBpAqKKBx54gPvuE+oTBsD+zGJeXLtX2I7EMfF0d+XFR1ZqEl7u7O7l4b+vp7xWlltL7B+LBfZlFmPs6GZWUrSmU7d1Oh0LJseRX1onu+oOATklNfSYTMwcp03irpOTE0uXLuWtt96is1O4z8ok4GXgqq1p1QqOB4FbVK7F3d2dTz75BB8fsXBfS1snj730GW2d8m5T0jeP3nINqUniOUIWC/zmra2k5ZZq4JVEMnScKqoiv6yO+RNjNe3X4aTXs2hqPFnF1ZRJEW51Tp6pwNXZSbOjYR8fH0JDQ/nss8+ETQEVwNGrvVDNb58zSu6G6lLYRx55hG9/+9tql1/gmXe3k1FYJWxH4pgkRATx6/uuQ6/Bnd3Hu9J5d9txDbySSIaes9WNHMouYd7EWE2TSZ30ehZNiedkQQWV9bKlv7U5kldKVIgfCRHazNOZPHkyaWlpnDlzRtRUMkouxxWrNtTUot6K0lNdFZ6enpp0FD2YfZYtR/KF7UgcE50OfnHnAk26iRZWNvC3dbLcWjK8ySmp4bvPfqR53xh3V2defOgmJsaFa2pXcjkWCzzzznZNe0298cYbWjTdjAHuudqL1FyNn1Cx5gIPP/wwoaFiSUzdvSae+3C3kA2JY7M8NUmT0GNPr4mn39xCd4+cnCkZ/tQ0Gvn+c2tIy9H2aNDg7srfH11FkoazQCR9o3XDwVGjRvHwww9rYeqqJaeDFRxTAdXp/h4eHvz85z9Xu/wC7207LhOVJP3ibXDjp7fO1cTWPzccJq+0VhNbEok90N7ZzeOvfM7udG2b1nl5KKIjKtg6A+UkX2Ps6Oaxlz/TbMbNk08+iZeX0OxVgMnAhCu9YLCC4/vqfYF77rlHuIV5VUMrb24aUAWOZITyoxWz8PcWnytx8kwFb2+Vzb0kjkd3r4n//sdGNqVpNkUUAH9vD/7+2EpN3n+SK1PTaOTJf3xJT6949DUoKEirKMcVj1UGIzjcgTvVeqHT6Xj88cfVLr/A39ftp7N7wJ1UJSOM8ABvbpufImynvbOb37y1TdN5BhKJPWEym/nNf7ayds8pTe1GBfvx14duwt3VWVO7ksvJKKjkzx/u0sTWE088gYeHsFC8E6XteZ8MRnDcjNJdVBXLli1j/PjxapcDkF9ay7ZjMlFU0j8/uikVVw1K/57/eA/ldbLUT+LYmC0Wnv1gJ+9oHMlLjg3jjw8s1Xymi+Ry1u/L4uNd6cJ2QkNDefDBB0XNjAZm9vfDwQgOoeMULXI3Xvv8kGwnLemXuPAAls8aJ2zneH45XxzM1sAjicT+sViUyPE/NxzW1O78iXH89x0LNLUp6Zu/frKPk2cqhO387Gc/02KQ6vL+fjBQyxEIDGlLTk5mwYIFapcDkFVczd5TRUI2JI7NT1bNFr6j6jWZ+fOHu6SwlYw4/rnhsOYDCb91bQrfvWGapjYll9PTa+K3b28THrkQFRUl/FkNLO3vBwMVHLcO4rWXcf/996tdeoH3ZNMlyRVIjg1jwaQxwnY+2HFSTsKUjFhe+nQ/H+zQZKjXBR5eNYe5KTGa2pRcTlltM69+dlDYzl133SVqYhrQZ330YASHKlxdXbnnnqv2A7kiVQ2t7DhRIGRD4tg8tHK28GCjmiYj/9I4rCyRDDdeWLOHdXszNbOn1+v4/feXEhOmujm1ZIB8tDOd7OJqIRu333477u6qx6SBoiuW9PeDqxEMzFO78/LlywkJEWsG89HOdEzmK3ZMlYxgpidGMjNJfKjRX9fspV1OgZWMcCwW+NPqHWw4mKOZTS8PV1546Ca8PLRrqy65HLPFwj+/FLtp8vHxYdmyZaKuLOzrmwMRHDcjMMb+Bz/4gdqlALS2d7FWQ7UtcTx+fJP46PnDOSVsO3ZaA28kkuGPxaLMqtqToV1zsOgQP/74gxtl5YqV2Z9ZLNwYc/HixaJu9JnzORDBofo4JSwsjBtuuEHtcgA2peXR3tktZEPiuMxMihJuYW4ym3nuI9kqXyK5GLPZwi/f2ExmkXYDMuckj+aRm6/RzJ7kciwW2HQ4V8jGwoV9BigGQ8y5xze4muDwop/QyEC45ZZbcHYWa/7y+QFZnijpn/uWiGfAf7Y/m+KqRg28kUgci87uXp549QtKa7UbJXHf9VNZMi1BM3uSy9mcJtavaty4cYwaJTyL6rIox9UEx3WAm9rdbrvtNrVLAcgvqyO3pEbIhsRxSYwKJnV8tJCNrp5e3vgyTSOPJBLHo7G1g8f+/jmNrR2a2Xz63uuIDpUzV6xFaW2TcGRKgyjH7Eu/cTXBofo8JDAwkGuvvVbtcgA+P5AltF7i2Nx3vXh046OdGdQ0GTXwRiJxXEprm3ji1S80GythcHfl2QduxNVFvCuwpG9Ec9LmzJkj6sJlMyauJjhUp6quXLlS6Dilp9fEpsPaDhaSOA7hAd4snhYvZKOts5u3txzVyCOJxLHJLKril29s1my+0NioYH7+bbGbUkn/HMktFVo/ceJEURcmcInGuJLgSETpi66KW29VnWsKwN5TRTS3dQrZkDgu9yyZipNgC973th2Xv2MSySDYk1HIy+v3a2bv1nnJXD99rGb2JF9zpryeJqP6Y7CUFOEhmJ5A3MXfuNIVW3VdjMFgYMmSPvt+DJjtx84IrZc4Ln5eHqycIzYIsL2rhw93ig88kkhGGu9sPc6WI9oN0fzVPYsYHSqbgmmN2WLhWH656vW+vr5ER4vlyHHJsYpVBMf8+fNxc1Oda0p3r4n9mcWq10scm1vnJePh5iJkY+2eU7S2d2nkkUQysvjdu9vJ0Sih3+Duyh9+cAMuGkx5lnyTo3llQus1iHJ8Y5pmf4LDCYFyWNGmIYdzSmiTvTckfaDX6bhlXrKQjZ5ek+bzIiSSkURndy//9doGGjSqXBkXHcIPl/c71VyiEtFKleRksWstEHnxH/oTHDMBX7U7iAqOnXJuiqQfZk8YTXiAt5CNrUfzqWmUlSkSiQg1jUaefH0DPb0mTex974bpTBwTroktiUJhZYNQkm9SUpKoCwMSHIvUWg8ODhbKbjWZzexO166drsSxuG2+WIjPYkHzEdwSyUglvaBSsy69er2OZ753PQbB41LJ13T19Ao1bUtMTBR1wbqC47rrrkMnMLYzvaBSVg5I+iTE34trklUXTgHKnIHCygaNPJJIJOv2ZrIpTZsWBpHBvjxxu+pZoZI+ELnexcbGim5/VcGhB2aotX7ddX3ObBkwaYK1wxLH5eZrJgiXwq7+6oRG3kgkkvP86f0dmo0HuGVuMvMnCn/QSc5RWd+qem1ISAiurkITfkO4qFt5X1fvJED1IfmMGaq1CiAFh6RvnPR6br5mgpCNkpomjuTJ3y+JRGvau3p46l8bNetE+su7F+FjUF/pKPkakU7KOp2OiIgIURcuJOb0JThmqbXq5eUllNVq7OjWdDKhxHGYM2E0If5eQjY+3ZuJRZsmiRKJ5BLOlNfz/Mfa5HME+Xry2K1zNbE10hFNkI+MjLz6i65MyPknfQkO1bVJ06dPx8lJfS318dNlmrXNlTgWN84SS17q6TXxxcEcjbyRSCR9sX5fFhsFR6OfZ9U1E5ieKPxhN+KpblR/pAKaCI4LY2c1jXDMnClWR30oW4a7JZdjcHdl/sS4q7/wCuw4USDU5lcikQyMZ1fvpKRGfJy9Tgf/e88i3FzUz+SSQF1zu9B6DcbUB59/cqngMACqz0RmzVKtVQAlwiGRXMqCSXG4u4pddNbuOaWRNxKJ5Eq0d/Xw6/9s1SRaHRXsx49WiH2ujHREm2h6e4v1PeIKgiMJUH1lF4lwtHf1yHJFSZ8snSl2nFJc1ciJM+pnCkgkksGRWVTFm5uOaGLrniVTSIwKvvoLJX0iKjh8fHxEXbhg4FLBoXoiVkBAgNBZT1ZxtczfkFyGv7cHs5KihGx8fiBLJotKJEPMGxvTyD4rPm/FSa/nqbsWItDeaUTT02uiu0d9N1i7FBzjx4tN78w5Wy20XuKYXDc1Xqj3htliYcuR0xp6JJFIBkKvycxv/rOVrh7xUtmU2DCWpwq32R6xGAWiHNYUHKobHUyYINYj4VShLIeVXM4NM8SOU06erhDO0pZIJOooqmrg7+v2a2Lr0VuuwVv25lBFu4Dg0CCHw/4iHLL/huRSArw9mCQ4zGnzEW1aLkskEnV8vCudY/niBQGBPgYeXJGqgUcjD5GGbF5eYv2P6EdweACq+8mKCI6aJiO1zW2q10sck7kpsegFDm57ek1sP35GQ48kEslgsVjgD+/tEMojOM/tC1IYMypQA68kQ8iF5lwXC45E+h/mdlVEBMeZ8nrVayWOi+g8hYPZZ2mRgwAlEptTUtPEP788LGzHSa/n53dcq4FHkiHEcP7JxQIjRq01Pz8/oeYgRbIcVnIJbi7OzJ4gNhl2c1q+Rt5IJBJR3t16nLzSWmE7MxIjmZcih7sNhh6TeHRJAJfzTy4WHKqv7qL5G7L/huRSUsdHC3UY7OzuZU9GoYYeSSQSEUxmM7979ytMZrOwrUdvvUZ4cvRIoksgh8PFxeXqLxogF/+PRas1kpgoVkkgIxySSxE9TjmUfVazyZUSiUQbcktqeH/7SWE7ceEBrLpG7EZXMjAMBsPVXzRANIlwxMfHCzlRXCUFh+RrdDqYJzg7ZU9GkUbeSCQSLXnjy8NUNYiXqj94UyoGN+3uviXWRxPBER2tOjiCsaOblvYu1esljkdCZDAB3h6q15vNFvadkoJDIrFH2rt6eHHtPmE7gT4G7lkyVQOPHB+RWVStrdr1MdJEcIwerT65TwulK3EsUgVbmWcUVtLQKifDSiT2yvZjpzmaJ96b4+7FU/DxdNfAI8fGxdnp6i/qh56eHtHtL5QKnhcc7lw00W2wiAiOyoYW1WsljsmMcWKCY3e6TBaVSOydP3+wi16TWAKpp7sr98oox1XxdHdVvdZoNIpuf+EI47zgUF3T6uzsLFQSW1kvIxySr3F1dmJqQoSQDZm/IZHYP0VVDXy4QzyB9I6Fk4SOYEcCIhGOjg7haPGFD/nzgiNEraWIiAicndWfD1XJCIfkIiaNCRcqhy2pbuJsdaOGHkkkEmvxry/TaGhpF7JhcHPh3uunaeSRYyJyTe3uFhtvD1wwcF5wqB5YIXKcAjLCIfkmM5PUJyADHM4t0cgTiURibdo6u/nHBvEOpN9eMJFAH+3KNx0NDzf1gqOlRTgocGFuyXnBEarWUlhYmJAncoaK5GJmCuZvHM4p1cgTiUQyFKzfl0WRYGsENxdn7l86QyOPHAsnvV6oSVpXl3AV6YUzGeEjldBQ1VoFgCajrCaQKLi7OjMuWnXuMmazhaN5UnBIJMMJk9nMS+sOCNu5dV4yIX7Ck00dDl9PN6H1DQ3CfbIui3AEqLUUGCg2ua9ZDteSnCM5NkxIiWcWV2HsED5vlEgkQ8yejEKO55cL2XB1cZJ9OfpAtGxYA8FxwcD5q7vq28qAANVaBYsFmo1ScEgUJo1RnUoEwJFc8bp+iURiG15ctw+LRczGLXMn4OclK1YuxldQcNTWCg/c005wiBypNLd1YBb9DZM4DJPGqC+vBjicIxNGJZLhSnZxNbvSC4RseLi5cMfCSRp55BiICjANIhx155/Y9EhFHqdIzqPX6ZgYpz7C0dXTy6miKg09kkgkQ80/vjgkfBN6x4KJcsbKRYhGODQQHPXnn9j0SKVJHqdIzhEfEYiXh/pueFnF1fT0mjT0SCKRDDVnyuvZfuy0kA0fT3dunZ+ikUfDH3vM4QhSaykoSPVSmttkhYpEITlWrLz65JkKjTyRSCS25M1NR4RzOb6zcJJQAroj4WdnORzugOqOKT4+Pqq9aO8UHgojcRCSRquuzAYgvaBSI08kEoktOVNez75MsfEEYQHeLJoyRiOPhjdBvp6q1xqNRi1mqVxQLOcFh2rc3dUv7+zuFdla4kCMi1YvOMwWC6cKpeCQSByFtzYfFbZx+4KJGngy/AnxV9+bpKxMuPKvk0tmqagPUQBubuqbinT3SsEhUQYLxY9Sn3xcXNlAS7twNzyJRGInpBdUcvy0WF+OqQkRJEapbyToKIQKCI7ycrH/A+Abd4JCEQ5fX18hT+SRigQgflSg0DTDk/I4RSJxON7aIh7l+M6iyRp4MrwJFui+qkGEo+biP+gB1SEKkegGQGePjHBIxI5TADJlOaxE4nAczDpLYaVYhcSSaQl4G8Q+p4Yz3gY3oRJhDQTHN7L59YDqMIVI/gZAd48sY5SIJ4zmltRc/UUSiWRYYbHAJ7szhGy4uzqzdEaiRh4NP4IFEkYBKiqEq/8uO1JRLf9EKlQA2rvk3AuJ0oNDLV09vRRUCNeJSyQSO2TDwRxaBfOzbp2frJE3ww+RhFHQJMLxDQNCORw6nU7Iky5ZpSIB4sLVC47TZXWYzGYNvZFIJPZCe1cP6/dnCdlIiAhivGAUdbgSHiAWFDh79qyoC5cdqYh5JECPSX5QjHTCAryFOozmyOMUicShWbM7Q7jd+YrZSRp5M7yIDBYr7CgsLBR14bIIh1iYQiIRIC5cfWt8gJyzUnBIJI5MRV0LaTmlQjYWTxs7IjuPigiO6upqWltbr/7CK/ON/7iR9z8gsStE8jcAckuF2+5KJBI7Z93eTKH1Ad4ezJ4QrZE3w4coAcFx5swZLVy47EhFNaJlsRJJrED+hslspliwbE4ikdg/e08V0dAqNnvr+uljNfJm+CAS4dDgOKUJ+EZfdCHBIVoWK5GIHKmU1TbTLSfESiQOT0+viQ0Hc4RszE2OQa8fORkEAT4GDO7q8+NOnxab2sslxykgj1QkNiYmzF/12jPl9Rp6IpFI7JnNablC63083ZkYF66RN/aPaMJoQUGBqAuXGZCCQ2Izgn098RRQ4KJdCCUSyfAhv6xO+CZjbnKMNs4MA0aH+Amt1+BI5bIQibOINbNg/4ORE9yS9EWEoAIvrpKCQyKxR3Q68PPywODmeqG9tse5x6W0d3bTazbT2taFyWymrbOH5rYOjB2XN4bceDiXx269RrVfc1NieXn9AdXrhxNxAgMxAXJzxSJKwGWKRUhwiJbMeAr0X5AMf0YFirWAqahr0cgTiUQyWAzursSE+RMXHkBMqD/RoX4E+XoS5u9NgI8BZyexAHqvyUxzWyfNxg6ajJ00tXXi4ixmMz4ikLAAb6oahMs97R6R/Ljq6mqamppEXbiszMWZi2bVD5aeHrFpr6K/kJLhTUSQmOAoq2vWyBOJRHIl/L09SIkNZ9KYcJKiQ4gO9SMswNuqezo76Qn0MRDoY9DU7jXJMazdc0pTm/bIGIEIR06OWILuOS7L4XAGVJ+LtLe3C3nj7qp+ip1k+COS1NTe2U2jYJmctXBzcSYqxJcQfy8CvQ0E+3kR6GPAxdkJT3dXnPQ6XF2c6O4x0dndS3evCWNHF9WNRirrW6hqaKWsroX2TjlrSGIbnPR6piSMYm5yDNekxBAbJtagz55IiQ1zeMFhcHcl1F+9IMzKEmsnD/QAJZd+0xlQfZvY2dkp4hCuzk5C6yXDm1FB6gVHRb3tQ6I+nu6MjQxidKg/sWEBxIQpYeXwAB8ExwwBUNNkpLiykcziKrKKq8kqrqauuU3csETSDxPjwlkxO8mhx7onx4bZ2gWrExceIHQN0kBwFAGX9Sxw7uubA6WrS2yKnxQcI5sIgRyO8iE+TnHS65kQE0pKXBgTYkJJGh1CVLBYFvjVCPHzIsTPi5lJURe+V1LTxM4TBXx1/DTZsq27RANcnJ24cWYidy+eIhSGHy5Eh/jh6uzk0D18RP8fNRAceX1905lLOoENBqNR9VIADO7ySGWk4ursRLCf+tHJQyE4xkYGkTo+mmljI5mSEIGhjwz7oSY6xI/v3jCN794wjYq6FtbszmDd3kza5PGLZJC4ujhxy9xk7l0y1er5GPaEXq8jOtTPofv4jI0MElqvgeDo04AzoDpMYTKJKUS9TiaNjlRGBYkdO5TVal+h4ursxPRxkcxPiWNuSozdX4RHBfnw09vm8sDymazbm8nq7SeolUcukqvgpNez6prxPLBsJiH+6kX/cCY6xN+hBUdSdIjqtVVVVdTXC//bZPf1TWdAKBGjubkZX191Z/EiY8klw5tRghUqFfXaRDh0Opg8ZhQ3zhrH4qnx+HgOv3b9nu6u3LtkKt9eMJG1ezL5z+YjdptQK7Et08ZG8t/fuXZEHJ1cifBA+76ZEEGv15EgEOHIzu5TKwyWfiMcQqUmIqWx8khl5BIpkDAK4j04YsL8WTZrHEtnJgr3A7EX3Fycueu6ydw0O4mXPt3P+n1ZmC0WW7slsQM83V158o5rWTE7ydau2AV9NSBzFEaH+Av9/TQ4TjEDfdbVOqOUr6imvr6eoCB1asrfW9v6asnwQfRDvlyF4PB0d2XlnPEsSx0nFHK0d7wNbvzy7kWsnDOe37/3lUOHjiVXJyU2jN//4AYiBEW+I9HTK9Yl255JGi12bcvMzBR1oRDoM8TqDLSgKBJVCRUiZz2+wzB8LdEGkbPjJmMHXT29A359VLAfdyycxMo5SULTE4cbybFhvPWLO3jmne1sPZpva3ckNuD66WP57feWyIrAS6hpEit4sGcSo4KF1p84cULUhX7PZJwBC9AAqApT1NSoL82TgmPk4ufloXptc9vA0o5mJEZy53WTmZsSi16LxhjDEHdXZ/7wg6UkRAbx2mcH5RHLCOJ7S6fz8Ko5mvSEcTQq6x13LIKI4Ojt7eXUKeGmaP2eyZyfpVKPSsHR0KB+gJavpzsuzk70OHA9tKRvRNoV1zf3n3bkpNezbFYidy2eQkKEWGmYo6DTwf1LpxMR5MOv3tyC2SxFh6Pz/Rtn8NCq2bZ2w24xdoj1kLJXdDoxwZGVlSXc0BPI6O8H5wVHHZCoxnJlZaWaZRcI9feirFbOxBhpiOTvNBovPx7U63XcOHMcP1w+U6hluiNz/fSxAFJ0ODjfWzpdio2r4OzkmEdM0SH+Qh1ijx8/roUb/Ro5Lzhq1VouKbmsXfqgCPX3loJjhKHX6/DzUn+cVt/yda8JvU7HdVPjefCmVGLC/LVwz6G5fvpYunpMPPPONuTpiuNx56LJPHLzHFu7Yfe4uwoNSrdbJsaJtW3XIH+jlT6mxJ7n/L96mVrrpaWlapcCSoRDMrLw83QXyqlobO1Ap4N5KXH8ZFWqPDoZJDfNTqK1vYsX1uyxtSsSDVk8LYGf3T7fZvu3tndR22SkpqmNuuY26lvaaWnvpL2zh/auHrp6emlpvzxc72Nwx0mvw9PdFTcXZ9xdnfH1dMfPywNfL3d8Pd0J8/cm0NeAk142i7wSKXHhQuuPHTsm6sIJrjAQ9rzgUB2mEI1w2Hs3R4n2iJZD+3q68/Yv7mB8TKhGHo087rpuMk3GDt7cdMTWrkg0YMyoQH5z3+IhSxA1dnSTUVhJZlEVmUVV5JTUWL3ZnF6vI8jHk7BAb26YPpY7Fk6y6n7DEZHBdGazmYyMftMvBsoVz2TOCw7VYQrRCIcUHCMPkYRRgO8smqyRJ0NPd4+JzotKer3cXdHrbVNG8OOVqWQUVnI0T3WAU2IHuLo48eyPbrR6M6vCygb2nSpib0YR6YWVQ54HZDZbqGkyUtNkFG4c6IgY3FyIF+ggm5+fLzwfDTh5pR8KC46Wlhaamprw81M3OTMqxLoTNyX2h7+3+pJYe8bY0U1OSQ1FlQ2crW6ktqmN+pY2apvbaGhpp7O7794hOp1SJhzs60l4oA9jI4NIjg0jJTbMqq3W9Tod//e9Jdz5u9W0tDtm1v5I4IfLZxEbFmAV2w2tHWxOy+XzA9l21UDOU7CfjiNWqUyICRW6eTl06JAWbgwowiF0LpKfn8/MmTNVrY0OkUp1pCEa4bAHLBYoqqznaH4ZpwqryD5bQ0lNo6pETItFyUtpbO0gv6yO3emFgBJCnpYQwcIp8SycMoZgX0+N/xZK0vYv717EU//apLltifWJGxXIfddP1dxuaW0T/9l0lE1peXbZtsBTcA5Xe6dQg227RDR/QwPB0UE/Lc3Pc15wVAC9F/15UJw+fVq14Ajx88bg5kJ7l+P9Akj6ZrjOMahrbmPfqWLScks5ml9GQ4vQGKKrYjZbOJJXxpG8MkwnMZkAACAASURBVJ7/aDdzU2K59/qpTIkfpek+i6clMOdANgeyzmpqV2J9frIyVdNEys7uXv654TAf7Dhpl0LjPKIRjrbObo08sR9E8jdAE8GRgaIj+uW8wDAB5cBoNbvk5FxR1FwRnQ4iQ/zIL1VdmSsZZhjchk978TPl9ew4cYZ9p4rIKamxWSmp2WJhT0YhezIKWTRlDP/17fmE+muX//TwzXM4mH1WlsoOI5Jjw1gwaYxm9nJKavjVv7dwtrpRM5vWwlNw8Kej3eDqdMrMHLUYjUYtZqhcVbFcHNEoQaXgOHOm37LbARET6i8FxwhC9O7E2tQ0Gdmcls/Gwzl2dW59nh0nCjiUXcLPbp/PzXMnaGIzMSqY66ePZcsROXNluPDgTbM0q0r5YMdJ/rZ2H70mdUPN3F2dCfb1IsjXgIuLEy5OTpjNFlraO6lpNFLb3HZ1I4NA5Kalu9dk19EbNcSGBQjlxqWlpWEyCf+bDEpwFAPz1OwiEuEAGB0qE0dHEgbBuxNrYOzoZufJAjYeyuFYfrndzxxp7+rh9+99RX5ZLT+7fT7OTuJh9Z+snM1Xx8+o/tCRDB2T40cxe7yq+8NvYDZbeP7jPXy8K33Aa5z0eibEhDIzKYoJMaHERwQRfpVqw5a2To6dLmfniQK+On5mUMMX+0Ikh6PdAY9Tpo6NEFqvUcLooARHntpdzpw5g8ViQadSbkeHyg6RIwmDHeVwHD9dzie7T7E7vVD4ImgLPt6VQXFVIy88dJNw98TIYF9umj2eT/cJh1YlVuaexVM0sfP8x7v5eNfAei8kRgWz6prxXD997KCHL/p4urNw8hgWTh7D49+ax+ufH2TdXvW/Z6F+6htGNli5X4gtmJpgc8FRhRK0uCIXX6FOq92pvb2d0tJSoqOjVa2XLalHFrbO4ejuNbHtaD4f7Egnt0T9tGN7IS23lP/51yae+/Fy4UjH95fNYMOhHIcLOTsSYQHezJsYK2zn8wPZAxIbE2JC+eHyWVyTHKPJEU6Atwe/vHsRXh5uvLNVXWfLEIEO1XVN2h7v2AN2IDgODuRFFwuOXJHd8vLyVAuOaNmLY0ThYaMjlYbWDtbtOcWa3RnUW7nCpD+CfT2JDvUnwNvjwpClzu5epS10cxs1TUZV1S97TxXxzw2HhYd2hQd4s2jKGJnLYcesnDNeuDLlTHk9z36w84qvcXd15vHb5nHb/BSrdDC9f+l01uzOoGOQCZxOej0BAt2KqxpbVa+1R6JD/QgSKJk/ffo0tbXCOZQDUiwXC44zgAVQ9at1+vRplixZomYpnu6uBPt6ap5YJLFPPFyHVnCU1zXz741H2JyWR/cQ37kb3F2ZlxLD/IlxzBgXRcAAErsaWzs4XV5HekElaTklnCqqGlBexVtbjjJnwmgmC5bNrpozQQoOO+a6qfFC681mC8+8s43unv7fC24uzrz82M3Cv0tXwtvgxuhQ/0FHGQN9DUINrmodLMIxLSFSaP3u3bu1cGPQgqMdgUoV0cTRqFA/KTgkmlLd2Mq/Nx7h8wPZNkmEvHVeMg/fPAffQXYL9ff2YOa4KGaOi+KHy2fS3NbJtqOn2Xg4l4zCyn7Xmc0Wnn5zC6t/dZfQiOrp4yIZFeRDRV2LahsS6zA61J8xAu2rAT7ceZLss1f+kL/v+qlWFRsAPb0myusGPyk8RCB/A5QqNEdCNGF0zx7hIY7dQNpAXnhpXE71bY0WpbESiRa0tHXy/Me7ueXpd1i3N3PIxUaAtwe/vm8xv7x70aDFRl/4errzrWtTePO/b+fdX36H+RPj+n1tZUMrr30+oOPUftHrdKycPV7IhsQ6zEqKElrf02virc1Hr/q6oRiMtvNkAa0qWuqLCg5Hi3BMTRAThhpEOI4Dl48B7gPNBId4aawUHCMFg5X6cFgs8Nn+LG79zbt8uCN9yI9PzrP1uR+yco51PrCTokN44aEVPP/j5fj0E8VYtzeTstrB3zlezLJZ44TWS6yDaHLgtmOnr1ql4WNwG3QViho+2X1K1bqIIB+hfR0phyMy2FeoAWBRUZHwxHdgwIrlUsGhOnG0tLSUzs4BiZw+iZa9OEYMXoJzEPoir7SWHzy3ht+9+xVNRscre7uUBZPH8PoTt/bZ7KfXZObdbVecoXRVRgX5EBUs35P2hugxx4aDV78xbGnv4nR5ndA+V+Or42c4frpc1drIYLH5W+WCYtyemJWkrlDjPBocpwAM2MilgkN1aazZbOb0adXLGRMudi4pGT64uThpZquts5u/fLibe//04RXzGxyRsVHBvPr4LX3239icltfvdNqBMlMwfC/RFn9vD6FqhMbWDo7mlw3otW9vUVeuOhBqGo0895H6ML6IEG5oaXeoOSqigkOD4xQTsG+gL9YswgGQnZ2tem14oI/VQu0S+0KrYVNZxdXc/YcP+HhXOmaz/XQGLaxsGLK9EiKC+jxvb+vsZvsx9TcAIH4xk2hLbLjYCPq9p4oG/D7ZnJbHvlPFQvv1RWd3L//9z43UCRQIRAlEw0sdKLqh1+uYnmjzCpWTwICzyy+98pcywOSPPnc+eVLtUnQ6GBsZpHq9ZPjQI9iz32yx8Nbmo/zguTXCuQrW4OSZiiHdr78k0s/2ZwnZnZ4YKVR+KNEW0ShwWm7poF7/v//eTGZRldCeF2Ps6Oaxlz8Tsuni7CTUZbSstkn1WntjwujQfvO4BkJZWRmFhYWibgxKsVwqOMwIJI6mpw+8H39fSMExMujqFhMcj/xtPS+vP2C3Mz82p6meEqCK/mYRnSyoECo19zG4MX50qOr1Em0RjXAczx9czkRbZzcP/209u9OFP5Qoq23mR//vk0H7cCmRQb5CIvhsteMIjhnjxI48d+68cuO3ASIkOEBAcGRkDKwnf3/ER0jBMRKoFaiDb+vsHvSd2lBz4kw5WcXVQ7ZfVUPfWfcWCxwR/LeaGKd+5LVEW0Q6Mlc3tqrqP9HW2c3PX9/Asx/sVJWMbbZYWLM7gzt/v5r8MvFEVNGEUXuMiKoldbzYkefWrVtFXTADewezoC/Bofr2rLy8XKhFamJUsOq1kuFDo0AVyXCoobdY4I/v78BkHpoIzNaj/d8jHMoWK3mT70n7IewqE1mvhMidvcWilLDe8ut3+McXh/oVuBfT02vii4M5fPv/3uPPH+wadPvy/hCtZiytcYwIh8HNhYlx4arXWywWvvrqK1E3TgGNg1nQ13hJdcXR58jIyOC6665TtTYuPAC9XmdXCYAS7RHJErdGSa01yCut5fmP9vCLOxdYdZ+G1g4+P9B/qaNoNCgpOkRovUQ7RAaW1TSKd9dsbe/iX1+m8e+NR5g+LpK5yTHERwRd6Ith7OimuKqRY/ll7Mss1mTPSxGdu1XiIIJj6tgIoUGNmZmZVFYKV/UNWrH0JTjUZ36i5HGoFRwebi5EBftxtnpQokkyzDB2qBccnsOokmnN7gxiwvyt1rXRZDbzzDvbrhjqrmtuo6S6SfWd4egwf9xcnOnqESuxlYhhcHPB4KZ+BlFDq3bDCs0WC2k5paTlDP3RZrRAg8h6ByqJTU1SNYHkAtu3b9fCjUEb6UsinUGZq6IKmTgquRrGjsG3Mz6Ph5uLZmW1Q8HzH+/mwx1i74m+MJst/Po/WwdUuphbOrjhWBfjpNeTIN+TNsdDQGyAWFTRnogOUZ/D4SjRDYC5KTFC67dt2ybqQheDTBiFvgWHCchU64Vo4qi8uDk+IhEOGD7HKqCcfz//8W7+8cWAhikOiO5eE795a+uAJ7rmXGVQ19UYFy3zOGyNaGSvvVObHApb4u7qTIif+jyWEgeJnMeE+Qslz3Z1df1/9s47PMoy68P3THrvgQRCSUKAkBB6k16kKIiI2BYLtl2xrN217bq7KLp21/YprigoCFiQ3ntv0gmhJoSSEFJIT2a+PwKKSEne80ym5Lmvi0tJ8pz3hEneOe8pv6NCf2MNBhITl3tUNPxItmvXLsrLjf9wJzTUNzdXR/q05e9jfPbcXnw2ewNPfjzrqnssrkbm6XweeGsGc2swersvw3gjN0CLGN3HYW88heq8Uu0bRyAmIhiTQBbGVTIc3ZObis6vXbuWoiJxic1QiuRSPRwAhtMU5eXl7N69m5QUY3VrXVJxfQqFGQ4/b1l62V4s/+UgOw4e577rOnPDNYl4eVzu1++PFJWWM3nRVr6ct6nG/RT7jsoCjgQ9qaJxAKQTKkddRIOje1IT0XkF47CgOOAQN44aDTgiQ/wJ9PMmv9D4IjiNYyPNcDhT4+jF5BQU88aUZXw+ez3DuyfROyWWFo0iLylmVFJWwZb9x1i4KZXFW9IoMjhamFdYQubpfKLDjG3ZjG8Qhrub2WGF1jR1Az2hUlVOli7wmz9/vtSN01StpK8xV8pwWAFDCSxp42jzhuFs3Fe9JUMa50MccDhRD8flyCko5ou5G/li7kb8vD1JiYvC19sTb093ysorSTuWzZGTucq0PPYezTIccHi6uxEXHca+dFmmRGMc6SI+T/fqZ9McFcmEisVqJd0FZM27JDYWjcNmZmaydetWqRuLqRL9qjGX+ynMBw4DhopF0oCjmQ44XJq6nOG4FIUlZazZdcSm10jNyKJv2zjD55vHROiAw47kFxmf7AII8vNW5In9iBE0Sp48c5aycufvY5GWU+bMmYPVKta5MjxTe6VQyXBZRT6pomvGroy8h8O1Ao7aYO9RPanizOQXlogEEV0i4BCUVNJdoH/DbDLRTRhwzJ49W4UrhmsyVwo4DEcNWVlZHDtmfEmPvrm5NoWlsoDDVwccNWavsHFUT6rYn/wi431tQf7OHXD4eXsSFuhr+LwrlFMSm9QjNMDH8PnS0lIVgl87AcP7Eq4UcIjqIpIsR1xUmFjoRuO4SDUBJIqLdZXsvEKyBZtj4/X0mN3JLzReVgnyde6AQ5LdANdoGO3ZWjYOu3z5cs6eFcvNizpObRZwSPo4zGaT3uHgwhTpHg67kJpufFunr5cHkcHGd3lo5OQJMhwBfs6nXXMhksV1AMey8xV5Yj/6CHqwQFk5Za7k8JUCjkPA1dcCXoZt20STtSQ2qSc6r3FcyipkzVs10a/Q/MYeYR9HQ4GstEZOloH18udx9mBR6v8pwb+dI9CkfghN64eKbCgIOM4CqyQGrhRwWBFkOaSNo0k64HBpJPLmvk4q/GVvpFMmTQRjiRo5khXzYYG+Tp0ZjAj2E523xeba2qRPG1l2IzU1lQMHDkjdWETVDhXDXG2g13DAkZqaKqoX6QyHayPRl3Cm5W2OhHQLs7SOrpEhff2a1HfegLFeiPEMR0WlhZx8ddty7UFvYcChqJwiNnK1O7fhNEVlZSWbNm0yepzosEBCBB25Gsem2KBqJugeDqOkZ+ViEczgO/MblisgleaWKnXakwhBSeV0fqHo597eRAb7k9hY9gD+ww8/SN2wAnOkRq4WcIgkyTZu3Cg5TlKT+qLzGsdFIsIjUdqry5SVV3JSkFp25jcsV+CwMMMR38B5J43qCQIOyc+8I9C7TZxoad2pU6dYvXq11I2tQKbUyNXu3DsAw8X2DRs2GD0K6LKKKyNpHPX21E2jRjl8Isfw2QbhQbqcZUfyC0s4I9g27Mz300hBSSUr1/g4uCPQu02s6PzMmTOxyFckKKnJXO3uUYKgrCINOFo58S+I5soUCcS/vHTAYZh0gR6Bu5vZ8D4WjRokfRytmtS75JJAR8fD3U30kHHaifs3Av28adesgciGgnIK1FLAAbDeqPGjR49y4sQJo8f1pIoLI9k86uHmptCTusXhE8I+AOGKcI2MwyeMBxy+Xh7ER4cp9KZ28BcuazxbLNtDY096p8SKSsj5+fksXrxY6sYpQNYfcY7qfCfGOz+R9XEE+nkTE6FvcK6IRG3UFbbF2osMocRzYz0aa1cOCUpiAElNna8vzt9bJlrmzAHHtR0SROfnzp1Laan4+5+Lwe2wF2PTDAeo6OPQiqOa3+N8SWHHQdp42FhnOOyKVEslOTZKkSe1hzzDIVM2thfB/j50bNFQZENROWWWCiNQvYBjH1Xr6g2xfr0oXqGVnlTRaJRxIqeAckHDbkPBinCNnN2HT4q2xqbE6YDDWejbNk7UpF1aWsrcuSIlcoBiYJ7UyHmq891YEJRVNm/ejFUwA637ODQadVgsVtEiq3ohsp0WGhlFpeWkZZ42fL5RZDBRwr0ktU2Ab90sqfRv30x0fvHixeTni3fILKRK0lwJ1Q2fDNdFcnJySEtLM3qc5o0i9CieC1JRKdunojGOJOAID5JJTGvk7DxkvBEfoGurxoo8qR38faQBh/NlOEIDfemQICunTJs2TYUrP6owch6bBxwgK6t4ebjTTK/GdjlKyioMn/V011MqEtJP5Rk+6+/jiY+X3mVjT3YcPC463yWxkSJPagdPD9nvu2QE3170axsvGmEuLS3lxx/FsUIl8LPUyIVUN+AQjcRIJM4BEhvrxlHNb3jqbbEisvNkGdIIneWwK9sPyjIcHZvHOKUeR11iQAdZOWXBggXk5som0oCVQLbUyIVUN+DIQCBrKm0cdcZRLo3GUZEqL+qyin05euqMSHE0wNdL31MdmIggP9rER4tsTJ06VYUrSkZcLqQmzRGGo4Zt27ZRVmY8raUVRzUadUiVF8MCfRV5ojGC1Qrr9xwV2eia6Fx9HHWJAR2aYRYsTykpKWHmzJlSN6wo7t+AmgUchusiJSUl7Nixw+hxmtYPxVfXjTUaJUgzHBHBOsNhb9YJA44eyU3UOOIEFAk2U9uDwZ1biM7PmTOHgoICqRtbANkP2SWoScAhahyVCICZzSadAtRoFHEqV9jDIdjcqVHDut1HkWxcb9EokujwurEXR6JbUtvERoXSspGsZ9FRyylQs4BjIwJ5U6niqDMK1mg0jkhpeYVoVFCXVOxPdl4haZmyfr5+beMVeePYSKdcahNpdqOoqIjZs5XsWftOhZGLqUnAkQfsN3ohyU4VgJQ4WRONxrEwCWqUClYt13lO5xsvq+imUcdg7S5ZxrtvO+cIOMrKZZo9fl7OsXvJbDIxqFNzkY3Zs2dTWCgrmVJVTjH8Xn8laqqoZbhxdM+ePaK6UlLT+nqUy4Xw8zZ+E3C2mqwjckrQx6F7OByDdXuOiM4nNalPZIjjl8cKS2Q6Gr6Ce01t0qZZtFgF9ptvvlHhik2yG1DzgMNwXcRisYiyHP4+nk65WlmjcUSyBH0cEUGO/yZVF9iSeoyCIuOy3SaTc5RVioUPGM4ycDCkk6yckpOTw5w5c6RuWHGggENUF1m7dq3kuC6ruBA+XsbFu6RPPBrIPVti+Ky/jyfubnrdgL2pqLSwYvtBkQ1nKKtIf9/9hMvfagNPDzf6CV+L7777TiQ/cY6NwCGpkctR07vGNsDwd7R69WqjRwForRtHXQbJfhxJd76mipIy2VOjljd3DBZvOSA63yYumugwx55WEQccTlBS6dk6VrykbtKkSSpcUTLicjlqetcvA7YavdjatWtFDX96UsV1kOxDkb5ZauR9MM5wE68LrNtzhCLBG7LJBIM7yxoVbU1BkesHHEOEr8HBgwdZs2aN1A0roGTj2+Uw8phpOE2Rm5vLrl27jB4nOiyQSK0B4BJI9qFUVOopFSmFwg2azlIXd3XKyitZtfOwyMb1XVsiGBqzOWfOurYybmiAD91aNRHZmDRpElZ56nctkC41ciVqNeAAxFGYLqu4BpKJIx1wyCkWZom8dcDhMCzanCY6HxMRTHKs495Xy8orRWWVkAAfhd6o57ouLcU9UYrKKTZrFj2Pke9SFDGsWrVKclyXVVwEyROyZLW9pgpp57+Ppw44HIW1u4+IX8/ru7RU5I1tkOz/cfQMx7BrEkXn169fz/79YtmMSmzcvwHGAo4TgOGQWprhaNesgei8xvmxortGpUgzHJIpI41aikvLWbpN1jzav30zh1bklGzHDfZ33AxH69gomtYPFdlQlN1YSNV7u00xmscxHDUcPHiQEyeMf1/NGoTj7wRjTporI2nkkvYfaKCoRBZw+PvIOuo1apm1bo/ofKCvF/3bNVPkjXpcNcMxrJssu1FWVqZqd4qSqOVq1HrAAbKyitlsok281uNwdrTSqH2RTDaALqk4Gpv2ZnDyjGxD6IgeSYq8UU+OIOAI9vcRrXu3FT5eHlzbQRbkzZ49m6ysLKkrZ7HBKvpLYTTgEDVi6LJK3cbX21PUNHq22Li6oqaK4lJZH4wuqTgWFquVOev3iWy0iY8mzkHVnCUbjt3dzIQ6YJajf7t4sez6hAkTVLjyAyBewFIdjAYce4AzRi8qFQBrqwMOpyZIKHAjUcnUVFFeKVuIJRlr1tiGOev2im3c1DNZgSfqkQQcgEPujLnhmlai85mZmcyfP1+FK7VSTgHjAYcFWGf0olu2bBFttGvZKFIrHToxAX7eovM6w6HR/JFDJ3LYffikyMaQzi0c8t566ows4KjvYAFHo3rB4lUdX331FRUV4om9TGCx1Eh1kQz/Gi6rVFRUiLIc7m5mkmPrGz6vsS+BwgxHvmBhlUbjykibR/19PLm2Q4Iib9RxQtif4mgZjmFdE0Via1arlS+++EKFK99SNRJbK0gCDlFdZMWKFZLjtG/WUHReYz8ChBMOkg2ZGo0rM3fDPrFOzajerRV5ow5phiMyWLb2XSUe7m4ME5ZTVq1apUJ7A2qxnAKygGM9YPjOLw042jbTkyrOinRJUUGR7uGQIu3al065aGxDQVEpCzalimw0j4mgfYJjPdCVlFWQX2j8976eA2U4+rSJI1SofqqoWXQHVQtZaw1JwFECbDB6eMOGDZSUGP8BSmpS36GFajSXRxpw6JKKHF9vWZ3eolf2OiwzVuwQ23DELMeJHONllfqhjpPhGClszC0oKGD69OkqXPmfCiM1QSbgDobTFKWlpaxbZ7jvFE8PN5Ka6D4OZyTQV9Y0qksqGs3l2XX4JHuPnhLZ6N0m1qHepEHWx1E/1DEyHE3rh4qnLKdMmSIaujhHGbVcTgE7BhwAK1euFF28XYIej3VG5CUVHXBoNFfi+5U7RefdzGZu6ZOiyBs1SDIcEUH+uJmlb3dyRvRMEm/m/fzzz1W4MhMQK4bVFOkrsBow3KG0fPly0cU7NnesOqOmekimVM4Wl+l0vkZzFeZt2Cfusxl+TSvRkkXVnMgx3jhqNpuIDPZT6E3N8fJwFy/J27ZtGxs2GO5kuJBaL6eAPOAoBDYbPbx27VrKy43LVCfHRuGlBYicjtAA46p/ksYxzW+YhU97FZUWRZ5obEFRaTk/r5WNyAb4ejFUuOtDJZIMB0A9O5eIBnZMEGd3P/nkExWuHAOUKIbVFBU5JsNllaKiIjZt2mT4wp7ubqTE63X1zkZ4kCDg0BMqShBroRTqspajM2XJL+Js4O392jhEKQLkWhz27klR0Sw6efJkFa5MpBa1Ny5ExU+SqC4iLat0cLDxLc3VCQ8yntrMEayp1vyGvHFXB36OTnpWLut2HxXZaBAeRP/28Yo8kiHNcNgz4GjZKJLEJvVENiZNmsTZszI9EsAKKFEMM4KKgGM1VVLnhpDqcXRsESM6r6ldPD3cCBRIm2fn1cqOIZcn0E+PJtcFvl0sl1m469r24kZHFWTnFYpKefVD7BdwqNhRo6icsgI4oMKQEVQEHLnAL0YPr1ixQtTHkdg4UrTqXFO7RATJxtOycnXAoQJpSSVP99I4Bev2HOHg8RyRjYSYCLq0bKzII+NYLFayBA8c9spwBPv7MLhzc5GNNWvWsH37dhXuKFEMM4qq4pzh+dbCwkLWr19v+MJuZrNeV+9ERAg7xXWGQw3B/jKlQ9286xxYrWqyHHcPaq/AGznOKP41okeSeLhBUXYjF1CiGGYUVQHHEsnhpUuXii7eQY/HOg0Rgv4N0AGHKiTd8uUVlRSVGs9KamqXOev3kntW1vvUPqEhSU3tL7QoCTjsIW/uZjYzokeSyEZ2djbTpk1T4c5EwK5NcKoCjuUIul4XL5Ztx9V9HM5DVFig6PypXHHTlAZZ06gWXnMuSssr+G6ZPB1/z6AOCryRIQk4Any9ar383rdtnDizMnHiRNEakHNYgU+lRqSoCjhyga1GD69bt47iYuOBV3yDMHGKWFM7RAsDDkkNV/MbksZd3TDqfHy3bLs4K9WzdSzNYyIUeWSMLOEDR2Rw7WY5bu3bRnTeYrGobBaVCbMoQOWAteGySmlpKatXG992bzaZaK9lzp0CScBRXlFJtm4aVUKYYFvl6Xz9GjgbuWeLmbl6t8iGyQQPXN9ZkUfGkJZUpT1kNaF5TAQpcTKdqJ9//pm0tDQV7iiJWqQ4RMAB8j6Ozi0bic5raoeocOPpxRNnCrSsuSIaRAQZPpuRlafQE01tMWnRFiotMoXYnq1jadEoUpFHNUc6pSbRAKopt/eTZTcAPv74YwWecAr4XoUhKSoDjlVUbaAzxJIloniFLjrgcAokGY7M7HyFntRdIoL8RF3zx/Tr4JScyClg3oZ9IhsmE9x/XSdFHtWc0/lFovNhgcZVjmtCaIAP13ZIENnYvXs3CxYsUOHOFwjem1WiMuAoBAxvldm4cSP5+cZvZNHhgcREBBs+r7E9YYG+oje6zNP6jU4FUeGyPhr9OjgvExdsQZoktGeWw1lKKjf2SMLD3U1k47333sMqz+hagP+TGlGFapF8w2mKyspKsepol0Sd5XBkpN3ax0/LpI01VTQMN15OATimSypOy8HM06zYflBkw55ZjrKKSpHoXG2UVDzc3bi5V2uRjdzcXL755hsV7swHDqkwpALVAYdovlVcVtEBh0NTTygtrJ+s1RAtzHAc06+DU/PZ7A1OneXIKTBeVpFsqq4u13dpKQ5sPv/8cxV7U8BBmkXPozrgWI9AWGTRokWii3do3hB3N8fYbKj5I/VDZSNpJ4XLmzRVNIo0XnosLi0nV5AGwQAAIABJREFUR1hH19iXvUdPKclyPHC9fbIceWeNZzgk4+DVwWSC24TNopWVlXzwwQcq3DkKzFJhSBWq351LqWoeNcSOHTvIzMw0fHE/b0+HUMPTXBrpDPzJM1r0SwUJDY1rKeiGUdfg/2atF2c5eiTbJ8uRL9hUHGzjgKNHciyxUaEiG7NmzeLoUdmW33N8gGCxqi2wRTpAVFaRZjm6Jtp/yZDm0oQKOsQtVqtWGVWAl4c7TaNCDJ8/eipXoTcae7EvPctpsxz5hcaF5ySS/tXhjv7yUdh3331XgSecBT5XYUgltgg4RBHD/PnzRRfv1FLLnDsqQYKni5z8ItFqak0VcQ3CcDMb/7U/fEK2eVTjODhrlkOidOvj5SGeHrkcSU3r0z5Bttdr69atLFu2TIU7k6lSAHcobBFwbAWyjB5etGiRaBSoVeN6Nq/TaYwh2WOQU2DXnUMuQwuhNPWBzNOKPNHYG1VZjj8P7aLIo+pRICipgO2yHHf0byu28cYbbyjwBCvwvgpDqrFFwGFBkOU4deoU27YZX6dsNpvoqLfHOiT+PsZ/0QtLHEK3xulp2Vj2NLov3fCzhMYB+VRBlqN7chPaxEercagaSHf5BNog4GgYEUTftnEiG0ePHmX6dCXb4xcAMh17G2GrkY6FksNSdTU9HuuY+PkYz3CcLdYLw1TQUpD+Liot5+hJh8vSagSkKshyADxy4zUKvKkexcIldJ4C8cHLcVvfNqJSJcDbb79NRUWFCnc+UmHEFtgq4BBFDNKAQzeOOib+gpJKYbHOcEgJ8PUSTajsz8jWu2xcEBVZjpS4KHq2jlXj0FUoq6gUnff18lDkSRXB/j4M7ZYospGbm8uECRNUuJOGg43CXoitAo5jwC6jh1evXk1RkfFZ//qhAcQ3CDN8XmMbTCaTvV2o07Rr1gCz2fhrsPfoKYXeaBwFVVmOscO7Yq6F33GLxbGC3lG9W4uDmE8++USV0Nf7ONgo7IXYUiXLcJqitLSU5cuXiy7ePbmp6LxG42p0bC6b4NL9G66LiixHXHQY13VpocahK1BUKst2+gtKuxfj6+3JrX1lo7BlZWW8/76SHs+zwNcqDNkKWwYcdu3j6J7URHReo3E1OgibqXWGw3VJTc9i6bYDYjsPDO2Cp43GTh2RkT2TxU2okydP5vjx4yrc+RQHHIW9EFsGHMuoUh41xMKFoniF5Nj6SiNZjcaZCQ3wIS7aeJmxuLScA5lag8OV+einNVRaZNn4qNAARgoXl12Ns8J+Lh9PNT0cXh7u4lFYq9XKm2++qcKdChx0FPZCbBlwFCOQOd+1a5dI3tXNbKaLbh51KCSpUG9P9Z3ldYkOzWOQlNe3pmWK34w0js3hE2eYtXaP2M6YwR1Emju2xk3Rvq0brkkkTKCeDDB37lx271YywTqFqt0pDo2tN52J0hSzZ88WXVyXVRyLohLj42y+DnwDcwa6tZIF35v2ZSjyROPIfDprPaXlstHMYH8fRg9op8ijP+LpISvZlJbJR0893N2489r2Yjuvvvqq2MY53lZlyJbYOuAQ6ZRLA45uSU1qpWtaUz0k4l2Skdq6jrubmZ6tZU3Um/alK/JG48icOnOWqUu3i+3c0b+taHfSlZD2iJRXysZqAQZ3ak790ACRjeXLl7N69WqxL1Q92G9VYcjW2Drg+AUwvP51yZIllJYaF3wKDfAhsUk9w+c1apEEHDrDYZx2zRqI5P4LikrZqydU6gxfzt8kVvP08fLg/utss9jNw00YcFTISoNmk4m7B3YQ2QAYN26c2MY53lJlyNbYOuCwIiirFBcXi8djpalkjTpO5xvXVpHWSusyvdvIBJm2ph1zOO0Dje3ILyzhqwWbxXZG9EiicT3jm4kvh5ewn0taMrq2YwKN6gWLbGzcuFE8GHGOXxAKbdYmtg44AER1EXFZRQccDkNWbqHhswG+XvgoVgisC5hM0DtFtuNhw15dTqlrTFmyjaw847+vUNW4/9hN6iXPpRLilYKt02azSUnmRmF2422qHuydgtoIOBYDhotm0oAjsUk9QgN8RDY0ajiVWyA6HxHsp8iTukNi43pEhviLbKzcfliNMxqnoaSsgs9mrRfb6dk6lnYJDRR49Bs+XrIMR3GZ8eb1QR2bi7M2O3bsYObMmSIb58igajrFaaiNgCMHWGv08IEDB9i7d6/hi5tNJq066iCcOiOT7pU2adVFBneSKT+mZmRzLDtPkTcaZ+Kn1bs5ekquI/XXEd1FI9kXE+Ive4AsLjVWUnEzm7lviDy7MX78eKxqdhK9CzjVkqnaCDhAWFaZO3eu6OLSDn2NGtJPyd64Gkeqrwe7Mu5uZgZ2TBDZWKZAfVLjnFRaLHz44xqxncQm9RjYsbkCj6oICZD1c2UbLBUN6dxc3LuRlpbGd999J7JxjhyqlEWdCqcIOObNmye6eNdWjfGywUpiTc04cuqMaNuoRCmzLtKtVRNChOVEHXDUbZZsTWPX4ZNiO2OHdxPrZ5wnPMh4wFFYUmaoadTNbOY+Bb0b48ePV7WC/n2qdqc4FbUVcOxAMB67fPly0SY9Lw93uiQ2Mnxeo4ay8kqOn843fL5VUz3iXBOu7yorpxzLziM1I1uRNxpnxGqFd6evFNuJCg3g1j4pCjyC8EDjvVyn84xNyl3ftSUNwoMMXxcgPT2dr79WslutACeQMb8UtRVwAMwxerC0tJRFixaJLt4rRTYaqFHDwePG93EkNAzXEufVJNDPmx7C3qVl2+QryzXOz9a0TCWZrnsGdSRIoAdznpBA41m77Pyal1Pc3czcO7ij4Wue54033qCsTEnLxUfAGRWGapvaDDhEZZWff/5ZdPHuyU216qgDcEgQcLiZzSQ21lmO6jCkc3M8hIqMczfsU+SNxtl5/4fVVAjGSaFqtF1FWSIiyPjU1ZmC4hqfGdo1kejwQMPXBMjMzGTChAkiG+coBt5RYcge1GbAsQjB9thZs2ZhESyPCg3woXVclOHzGjVIMhyAfg2rgckEN/VMFtk4mHlar6PX/MrRk7l8v3KH2M7Insk0jDBemgjy8xZlOWuqBeTp7saYIfLsxvjx4ykurnmwcwm+AORNNXaiNgOOs4Bh2dBTp06xZo2sY1qXVezPgWOnRec7t9S9OFejfUJDmtYPFdmYtc74KLrGNfls9gbRegKoWnr28PBuhs/HNZA1jh8+WbMHnpt6JhMlHMc/duwYn332mcjGOcqAN1QYshe1GXAAiMZNfvrpJ9HFe7XWAYe9Sc3IpkSwrTElLgpfrTh6RUYKsxsWi5W563XAofk9ZwqK+XLeJrGdfu2akdy0vqGzcVGygKMmDzx+3p6MUdC78dprr1FSUiK2A0zCCVbQX4naDjhEghpSdbZG9YJpUl9rOdiTSouF3UeMZwQ93d2UKxe6EuFBfvRuI5MyX7/3qFjWWuOaTF68lRM5MsVgkwn+OrKHobPS0fgDNSjp/mlAO/FYeXp6Op9//rnIxjkqgfEqDNmT2g449gKG251TU1NFqqOA+GaskbPz0AnReen0hSszsmcy7m6yX+vZupyiuQxl5ZV89JNh4ehfSYmLoo+Be3G8oKSSnVdIfmH1Mg2hAT7c0a+N4WudZ9y4caKN5xfwHbBfhSF7UtsBBwinVX788UfRxXUfh/3ZlnZcdL5PmzjMZj1xdDFeHu6M7CUrp5wpKGbxljRFHmlckXkb9ilpKH74xm41WsTm7mamRaNIw9c7kFn9cso9gzvi6+1p+FoAhw8f5n//+5/IxjkswL9UGLI39gg4RHURaR9Hqyb1iAyWLbPSyNi0L100Yhca6EuHhIYKPXINhnRuQbBwz8RPq3dRXmF416KmDmCxWnn/+9ViO43rhTCiR1K1v75Fo0jRhMqBzOqVU6LDA8VTXgCvvvqqKt2N74A9KgzZG3sEHCsAwxuBNmzYwIkTxlPyZpOJvu10WcWeFJWWs/2ALMvRv30zRd64BiYT3CZMAVusVr5fuVORRxpXZsPedFbvPCy2c8/gDtWWPG8bHy26VnUzHH8e2gVPoYbNoUOH+PLLL0U2zmEB/q3CkCNgj4CjHIHqqMViYdasWSIH+rXTb1b2Zs3uI6Lz/dvF6/04F9ClZWNio2SjsGt2HiFTID2vqVu89/1qLBbZ1tPIYH+GX9OqWl/bqWWM6Fppx64u0x8XHcagTvJFc+PGjaO8vFxsB5gG7FJhyBGwR8ABIGrEkPZxpMRFER5kXI9fI2fl9kOi84F+3vRtqzNV57m9v7zBbfqK7Qo80dQVDmaeZtY6eab/7oEdrqqK6+XhTrtmxqfTKi2WaokOjh3eTaxIvX//fiZOnCiycQ4L8IoKQ46CvQKO+QhURxcvXixa5mY2mejbNt7weY2cA5mnxaqjIxTUWV2B2KhQurRsLLKRnpXLmp2yrJOm7vHxT2tFujoAkSH+3HBN4hW/pkPzhqKM5r70bIpLr5xxaNesAT1byyfgXnjhBVUbYafgIr0b57FXwJEPLDN6uKSkhNmzRcMu9NN9HHZn0WbZlFebuGhxGcEVuK1fG6RrgiYt3IrFKkuPa+oeWXmFTFq4RWznroEdrjix0j25icj+trQrLyuXaINcyKZNm5g+fbrYDlW6G/9UYciRsFfAASAaN5k2bZro4m3jGxAa6CuyoZGxcJMs4FDRKOnsBPv7MKSzbA197tliZq11qQcpTS3y1cIt5OQbW/t+nqjQgMuWSM1mE/2EGeltaceu+PnBnVqQ2Nj4yO15nn/+eaxqAvdvAZfbnmjvgMPwKzN37lyKioz/kJvNJkPCMxp1HDqRw67Dsj1E13VuWaf7cW7qmSRunp2xYiel5UpSwJo6SFFJGV8ryHLc3r/tJT/erpns4dBisbJxX8ZlP+/t6c7Y4V0N2z/PkiVLWLhwodgOUIGL6G5cjD0DjkzAsDB/UVERc+eKlNLp1073cdgb6Rimp4cbt/RJUeSNc+Hh7sbNvVqLbJRXVDJtuW4W1ciYvmKHodXvF5LctP4ld6xc2yFBZHf7weMUFF2+ZfCO/m2pFyJb0Ga1WnnuuedENi5gEpCqypgjYc+AA4QiYNKySoeEhmKtfI2MhZtSKRJuoLy1T0qdLI9d2yFBnN1ZsCmVbL03RSOkuLScSYvkWY7R17b/3d+9Pd3FAceaXZdvhg4L9OWui65phBkzZrBx40axHVw4uwH2DzhEfRyzZ8+muNh4VK3LKvanqLSc2cLNpD5eHtx/XSdFHjkPtyvoX/lm8TYFnmg0MG3ZdnLPyrIcfdrE0axB+K9/79s2Hn8fmcT48l8OXvZzfx7WRSxhXlFRwUsvvSSycQETgcs77OTYO+DYARhe3HD27FlxWaW/FgGzO98s2iaekLipRzIJMRGKPHJ82sRH01z4/W5OzWBfepYijzR1naLScr5dIgtgTSa474KHhxtrIH1+KQ6dyLmswmh8gzBu6FY90bErMXHiRPFS0XOUA+NUGHJU7B1wAHwvOSwdQerQvCFhdTAd70ikZ+WydKvhJcJAVbbq6Vt6icdDnQVp7wbo7IZGPSoakPu0jSO+QRjNYyLEcuZXmoR7fGQP8RLI4uJi/v73v4tsXMDngEwR0cFxhIBDFDHMmjWLkpLqrRy+FGazSVwj1MhRMcvfNj6aIZ1bKvDGsQn29xGrrKZn5YrVXjWai8k9W8wcYYnUbDIxdng3JSXDywUc3ZIa07llI7H9d955h2PHrjxyW00KceHejfM4QsCxCThs9HBBQQELFiwQOaBCO18jY8ehE6zbfVRs58mbe7h8xuq6Li2uKgV9NaYs+UULfWlswreLtyH90eqR3JSBHWX35V8OHOfQiT+qGbu7mXliZE+RbYCTJ0/y+uuvi+2c411AttHSCXCEgMMKzJAYkJZVWjWpR0xEsMiGRs6nP68T2wj08+Zvt/dR4I1jYjJRo5Xel6KgqJSf1+xW5JFG83sOHs9RsknW3U329vTT6kvvPLu1bxua1A8R2QZ4+eWXyc9XsuwwB/iPCkOOjiMEHFC1Ec8wM2fOpLTU8GoWAAZ10mUVe7Pj0AlW7TgsttO7TZxYfdNRaRMXTeN6spvlrHV7KLrKXgmNRsL/zV5v1+sXlZRdcnVCZLA/DyiYaNu1axcTJkwQ2znHeCBPlTFHxlECjg2A4Xx6Xl4ec+YY3ngP6LKKo/DRT2uUpPqfubU3DSOCFHjkWAztduUlV1fDYrXy3VIt9KWxLbsPn1Ty8GCUH1btumRQ/eiIa8RjsABPPfUUlZWVYjtAOvCBCkPOgKMEHOKyyjfffCNyoHG9EFo2kmvpa2SkZmSLl7oB+Pt4Mv7+wXgKex0cCW9Pd7E67sa96aRn5SrySKO5PJ/ZKctRabFccjy3bXy0uC8EYP78+cybN09s5xyvAManHpwMRwk4QFhW+fnnn8nNld1IdZbDMfhk5joqKi1iOy0aRSrZAOko9EqJxU/4dDZjhUxKXqOpLrsOn2TJVsMyS4ZZsvUAJ3IKfvcxVWPzlZWVPPXUUzIjv7GXKqGvOoMjBRzrAcPzRaWlpcyYIUqScG3HBMx1RcjBgTl6KlfJmCzAqN6tGSYsQzgK13WRjfzm5BexcocehdXUHh98v0bJw0NN+HrB5j98bESPJCXCgBMmTGDnTmVB+4tUSZnXGRwp4LBg57JKRJAf7RMaiGxo1PDF3I2cyj2rxNbfbu9D+4SGSmzZi/AgP7oIdQN+XruH8goldWeNplqkZ+Xy3bLa6xlas/MIu4+c+t3Hgvy8+csw+TbY/Px8Xn75ZbGdc6xHKHrpjDhSwAFCEbBly5aRmZkpckCXVRyDotJy3puxSoktD3c3xt8/2KlHnwd3ai5WRfx5rR6F1dQ+E+ZsuOK2VpVcqm/kL8O6EuTnLbb92muvcfLkSbGdczxFVe9incLRAo7VVK2tN4TFYmHKlCkiB/q1a4aXh7vIhkYN8zemskKRGmZIgA/vPzqMyGB/JfZqm+u7ysopOw+d4PCJM4q80WiqT15hCZ/P2WDz66zZeYQdh0787mMtGkWKdWsA9u/fzzvvvCO2c44ZgJqnKSfD0QIOCyCKGKRlFX8fT/EkgEYdr01eQr6ip6OYiGDef+QGAhU87dQmzWMiiIsOE9mYvU7JcimNxhBTl/7CwcssUVPFp7N+LxxoNpt4/o6+4swgwOOPPy7WejpHKfCsCkPOiKMFHACiiGHz5s3s27dP5IBU60Cjjqy8Qt6culyZvfgGYXzy1xsJDfBRZtPWSJtFyysqmb8pVZE3Gk3Nqai0MP7bZWLJ88uxdNsBdh3+fbnj5l6tSWwslzqYPXs2s2fPFts5x4eAbFOlE+OIAcdmQBQxSLMc7RMaEB0eKLKhUcec9XtZoPANMyEmgk+fvIn6oQHKbNoKN7NZ3Fe0csdh8gvrzKi/xkHZsv8Ys9ftUW63vKKSD75f/buPRQb789AN8kbR0tJSHn/8cbGdc5ymDixouxKOGHCAMMshDTjMJhNDu+oshyPx70lLOHpSnWBV0/qhTHzuFiVPQLakW6vG4myMLW7yGo0R3p62Qtn02Xm+W7ado6d+f294clRPsWYNVG2D3b9fLkR4jn8BdVp1z1EDjskIOnjT0tJYs2aNyIHrurTQmhwORFFJGc99PpeycnVjnWGBvnz6xE30biNb9W5LBnaU7fjJPVvMml1HFHmj0cjILyrlX18tVlZasVqtzNvw+4R49+QmSvrwjh07xrhx48R2zpEKfKTKmLPiqLrPZ4CBQIxRA25ubgwdOtSwAwG+Xmw7cJxj2XVip45TcDq/iOM5BfRpqy5A8HB3Y0D7BNzMJrakHbNZjdkI3p7uvDi6v2gV/cw1u1mpaNJHo1FBRlYeYYG+JDapJ7ZlMploExfF7HV7Ka+04OPlwbtjhxHg6yW2/Ze//IXNm/8oImaQe4E6P5fuqBkOEJZVpkyZQmFhociBocJRRI165qzfy5fzNim1aTLBfdd14r+PDCfEgZpJuyc3xdfLQ2Rj1lpdTtE4Hu9/v4qMLDUPc7HRYfz9rgGYTHD/dZ2IDpP3361cuZJvv/1WgXcALAN+UmXMmXHUDAfAYeBxDAZFZWVlNG/enJSUFMMOxEQGM335dkoVpvE1cjbuS6dFowjxmvaLaRARxODOLTh0PId0RTdDCX8e1pWmUaGGzx88nsNHP61V6JFGo4bySgt7jp5iaNdETApK17FRoQT6enFLnzbiMdiKigqGDx+uSuSrErgJOHG1L1SMGWgMdASuBfoBg4Hrzvkz9II/g4HOQEPABORQJVGhHEdvUpgLDDJ6uFevXixbtkzkwPhvlzJ9+Q6RDY16vD3d+fCxG0mJi1Ju22qFH1bt5J3pKym+xIrr2sDP25OF/7kfTw/jzwQf/LCaifOVpYQ1GuU8OLQL91/XSYktK2re0N59912VkykfAw+pMnYJTEAs0AZoAbQ6998WgNF0bRmwE9gGrKVKgj1H7CmOH3CMBr4yethkMrF//37i4ozX/HcfPsmd46caPq+xHf4+nvzfkyNJaBhuE/vHsvP4z9TlrNpx2Cb2r8TAjgmMu9dwrI3VCtc//z9Onim4+hdrNHbCbDbxwSM30Fm4J0gVGRkZJCYmUlCg5PfmNND83H9V4E9VQNEGSDn3p/W5j9uSUmAm8H/AEgTZD0fu4QD4ESgyethqtfLll1+KHEhsUo/4BjKVR41tOFtcxtj3flA6LnshDcKDeHfsMN76y/W1rtnRRzg588uBTB1saBwei8XKi1/MVz4qa5THHntMVbAB8BLGgg1/qoKJG4EXgO+o0qbKA9YBnwB/Abph+2ADwAu4GVgIHAKewWD2xNEzHABfA38yerhhw4YcOXIEs9l4bDVjxQ5e+2ap4fMa2xIR5MenT9xEo3q2W85WWl7Bt4u3MXHBZpsvonJ3M7PozQfw9zGuI/DGlOV8t+wXhV5pNLYjJS6KT5+4CXc3+z0D//zzzwwbNkyVuW1AB6p6OC7EEwi/4E8MEEdVWeT8fx1bHKiKA8BYYH5NDjlDwNEXWCwxMG/ePAYOHGj4fFFpOYOfnUBhSZnEDY0NiQz256O/3kiT+mobSS+msKSM71fu5NvF22z2VNYlsRH/fXS44fMWi5XBz03gdL7h5KBGU+vc3q8tT9zcwy7XPnv2LElJSRw5okyzZg+wgaqgIgyIoCqQcHx545oxBXgCOF6dL3bkKZXzHAHuAgw/vpaXlzNy5EjDDni4u5GVe/YPWv0ax6GwpIxFW9LomtiY0EBfm13H092NlLgoRvVuTdP6oRQUlXI8J1/pNW7t04akpvUNn9+4L0M3Omucjp2HT9A0KlS8qNAIL774InPmzFFpMoKqXosEqqY/QqkqTbgaSVRpjGwH0q72xc4QcFiBIKCPUQNpaWk89NBD+PgY11iICgtk2vLths9rbE9xaTkLN++nc8sYwoP8bHotN7OZ+AbhXN+1JUM6t8Df14vs/ELyFOwsefa23gT6Gt9o+/XCLew+ckrsh0ZT26zeeZierWNt+tBwMb/88gtjxozBYrHJJGhdwBsYRVWZ5YpPOs4QcEBVluNRDJaAKisradCgAZ07dzbsQEiAD5tTj3H8tNqnWY1aSssrmLcxlcTG9WgYEVQr1wz086ZD84bc0ieFfu3iCQv0o6SsnNP5RTVWLq0fGsCfh3Yx7IvVCq9OWkKRncZ5NRoJFZUW1u05ypAuLfHycLf59SwWCyNGjODo0aM2v5aL4waM4LfG1st+kTOQC/SgqqHGEEeOHOGhhx4Sicx4e7qzeMtVs0YaO1NRWUnXVk3sMl0UGuBL+4QG3Ng9idv6tqV1XBRhgX64uZnJLyyhvPLKT1E9W8eKpNv3pZ9i0qKths9rNPYmv6iU/RnZDOzYXIko2JX49NNP+fTTT216jTqEiSrdLCuw/HJf4CzcTtVSN8MsXryYvn37Gj5fXlHJ0Be+JDtPJpmusS1PjurJbX3b2NuNP2CxWjmRU8Dx0/kcP11ATkERBUWlnC0uo6C4lIpKCy/c0Ve0B+LTn9fx2ewNCr3WaOyDSlGwS3H8+HESExPJza3TC1xtxc3A9Is/aPuclTp+oCrTYbh59KOPPhIFHB7ubgzv3orP9Q3dYblnUAeHDDYAzCYT0WGBSnY9XI6VdhAp02hswWez15MSF0WnFoZ3eF6RsWPH6mDDdnwObAEOXvhBRxf+upBiQLRN56effuLYsWMiJ0Z0T8JNoOmhsR0jeyUzdng3e7thN7LzCtmXrptFNa6BxWLlpS/m22S8e+rUqfzwww/K7Wp+JQiYxkWTOc7Sw3GeLOB+o4ctFgsBAQH07t3bsAN+Pp6kpmdx+MQZwzY06hnQvhkvj+5v85qvI7Nq5+Ffe4yC/X1oXC+EyGB/QgN9KS2voKxCLyHUOBce7m7ERASREBOhzGZ2djZDhw4VbxPXXJUoqqoov+poOePdeTuQbPRwVFQUR48exd3deDVpc2oGD779veHzGrV0bN6Q9x+5AQ93Z4uf1bI1LRM3k4km5zZnXszp/CIOZJ4mNT2L3UdOsXb3EZurpmo0NcXXy4P+7ZsxqFNz2ic0UJ5Rvu2225gyZYpSm5rLUkyVgupxcM6A41HgPYmB7777jptvvlnkxJ9encLeozp9bW+Smtbn47/eiI+Xh71dcTrKKyrZuC+D2ev2sHTrAZ0B0diV+qEB3DWwPUM6t8DP27is/5XIzc2le/fu7Nq1yyb2HQUfHx9atGhBixYtaNmyJY0aNSIyMhIfHx8CAgIICAiguLiYzMxM9u3bx549e/jll1/YsmUL5eXKR+rfBR4H5ww4goF0BEtr+vTpw5IlS0ROLNy8n799NldkQyMjNiqUT5+4iZAA44JumiryCkuYsWIHkxdtVSJeptFUl/AgP8YM7siN3VvVSpayrKyMV199lbffflvloja7YDKZiI2NJSUlhZSUFFq3bk1SUhJm/F1VAAAgAElEQVSxsbGG9odlZ2fzySef8Pbbb3PmjLK2gWKqJC1OOGPAAVVrcg33cphMJnbu3EliYqJhByotFm54cSIncpz7B9ZZiQzx58tnRhEZom5ZYmVlJW5udbssU1RSxrdLfmHi/E1aPExjUwJ8vbjr2vbc2rcN3p61PzB55swZpk6dytSpU1mxYoXDK436+vqSnJxM69atadOmDSkpKSQnJxMYqH7qLTc3l9dff5233npLVcbjLeApZw042gAidaNHHnmE999/X+TElCW/8OZ3l9Q30diQkAAfJjx1s9LtsGVlZYwcOZK8vDzGjRtH9+7dldl2Rk7lnuXVyUtYpcdsNTagbXw0/xozkPqhjrHL7NixY8yYMYOlS5eyevVqsrKy7OKHh4cHjRo1Ii4ujtjY2F//26pVK+Lj42v9gWjGjBncfvvtlJWJF5dmAg2cNeAAWA0YnoH09/cnPT2d4GDjb1pFpeVc97cvdONdLeLt6c4nj48QLTe7GKvVyujRo5k8+TdduQEDBvDSSy/Ro4d9tlc6Cj+t3sXr3y7T/R0aJZhMMGZwRx68vgtms+O+/ezdu5d169axb98+0tLSOHjwIBkZGeTn51NSUvOSo8lkIjw8nLCwMMLDw3/9U69ePRo1avRrcBETEyMaaLAFM2bM4LbbblOR6WjtuK/41fkT8LXEwH/+8x+eeuopkRP//XENX87bJLKhqR5ms4k3/3wdPVsbVri/JA899BAff/zxJT/XqVMnnn32WYYPH26oJuoKbEvL5MmPZ+neDo0Ikwmeu60PN/U0PGToEJSXl5Ofn09eXh55eXkUFBTg5eX1u0AhICDg178HBAQQFhbm1PePN998k6efflpq5m/OHHB4AseAcKMGoqOjOXToEJ6exjuis/MKGfrCl5TrJ0CbYjLBP+8ZyOBOzZXafeWVV/jHP/5x1a+LjY3l7rvv5t577yU6OlqpD87AgczT/Pmd7zlTUGxvVzROiMkEL/6pHzdc08rermgMUFpaSnx8PBkZGRIzS525Q64SCAUMF9sLCgpo1qwZKSkphp3w9fYkIyuP1IxswzY0V+fh4d24uVdrpTY//vjjakftZ86cYenSpbz33nusX78eq9VKo0aN8PY2vkbemQgN8OWapCYs3pJGSVmFvd3ROBnP3daHET2S7O2GxiDu7u74+fkxa9YsiRmn7uEAaAIcQCDR3rp1a7Zt2yZSqDx4PIdb/jmpxqvINdVjZK9knrutj1KbkydP5q677qKy0nhmytPTk969ezN8+HD69OlDixYtFHromOxLz+LBt2dwtljcRKapI4wZ3JGHbuhqbzc0QoqKiggODhb1cjh7wAHwM3C9xMC8efMYOHCgyIm/fjhTd/TbgJ6tY3nzz9cpbTCbP38+w4YNU9F5/Tuio6Pp06cPnTt3pl27dqSkpODvr25s11HYfuA4D77zvS4jaq5Kp5Yx/PfR4Zjr8MoBVyI5OZmdO3caPu8KPwWDAJEC17XXXsv8+fNFTuw+coq7xk/RWQ6FJDWtzyePj1A6o79+/Xr69u1LUZH6hVAXYzabiYuLo1WrVjRv3pyEhASaNGlCkyZNiImJwcPDedVRpy/fwfhvl9rbDY0D4+vlwfRXRhMZ7HpBd11l1KhRTJs2zfB5x5q/McZ8YDdgWMVrwYIFbN26lbZt2xp2IrFxJNckNdFZDkXERATzzkNDlQYbO3bsYMiQIbUSbEDVssD9+/ezf//+P3zOZDIRHBxMSEgIwcHBPPzww9xzzz214pcKRvZKZuO+9F+XxWk0F3PfdZ11sOFiSMvGzjun8xtWqrTaRbz7rtgED1zfBZ05lBMS4MP7jw5TKll+5MgRhgwZQk5OjjKbEqxWK2fOnOHgwYNs2bKF8HDDw1Z249lbexPoVzeaZjU1IyLIj1v6qG3yvhQHM08zcf5m/jFxIRlZeTa/Xl3n+PHjovOu8vboDRykah2uITw8PEhLS6NRo0YiR5746GdWbD8kslGX8ffx5KPHbiSxST1lNrOysujWrRtpaY75NP7YY48pCXjtwfcrd/LqZNleIo3r8fQtvbilj/Hpv8tRabGwed8xlm8/yMrth8g8nf/r5/y8PXnkxmu4qWeyfvCzEd27d2f16tWGzzvzWOyFVAA+QF+jBiwWC1arlUGDBokcaVwvhB9WGW+qqct4uLvxzthhtIlXp3ORl5fHgAEDHHY75NChQ/niiy+UiwJtP3icqUu3s3hLGtsOZGI2m4kKDRBNY12KhJhwFmxM1aJgml8JD/LjlbsH4O6m7md6x6ETfDZ7Pf+cuIjvV+1k1+GTFBT/XuG5vKKSVTsPszk1g7joMCJ0OUc5Tz/9NMXFxrV4XCkODAcOA35GDfj4+JCWliYWdnrio1ms2H5QZKOuYQthr7KyMgYPHizeDGwrWrRowbp16wgKClJm81TuWcZNWsLqnYf/8LnQAB+u69KSm3u1Jjpc3cKnBZtSef7zecrsaZybx27qzugB7ZTY2n7wOP+Zspw9R0/V6JzJBD2Sm3L/9Z1p2ShSiS91nQMHDhAfHy+y4SoZDoAioD7Q2aiBiooKKioqGDx4sMiRxvWCdZajhqgW9rJardx9993MnDlTmU2VBAUFsWjRIho2bKjM5ubUDMa+9yOp6ZdePFVcVsH2g8f5btl2CopKadusgZKn0KZRoSzeekCrkGrwcHfjlbuvxcdLNoFlsVr537xN/P3LhZzKPWvIxpGTufywcic7D5+gQVgQ9RxkUZytKa+oJO3YadbvOUp4kL/4tTjPhx9+yNKlssk0V8pwAMQD+xA0w6rKcjz/+TwWbEoV2agr2ELY629/+xvjx49XalMVJpOJ6dOnM2LECGU21+w6wpMfz6qRNkZ8gzDeHTtMycZOneXQAPRtG8cbD14nslFpsfD4hz+zZtcRRV5VkdAwnIEdm3NtxwSiXCT4OFNQTGpGFvszsknNyGZ/RjaHTuRgMpn4+539GaQoY1xQUEDTpk05ffq0xEyFK4zFXkgaMB0YZdRAcXEx48ePF6+uf2TENSz75QBl5Voc6Ur0bB3LM7f0Vmrzgw8+cNhgA+D5559XGmxsTs3gmU9n11iIK+3Yae4aP5X/PTuK6DBZiaVfu3giQ/w5dcbY06jGNVCxWPGTmeuUBxsAqefelP/742qSm0bRqWUMrWOjaBMXha+38X1atUFWXiEZWXkcy8rj8MkzpKZXBRlZeYV/+NrwID9ef2AIKXGGZyj+wHvvvScNNgB+cbUMB0AXYK3EgLe3N2lpaTRo0EDkyEc/reWLuRtFNlwZWwh7TZ48mdGjR2N1UAW2QYMGMWvWLNzc1FQz07NyGf3qFJHUePOYCCY8fbP4dfh89gY++XmdyIbGuVnwxn2EBvoaPr8tLZP735peqwKKZrOJ+OgwkmOjaFwvhNioUBpGBBEVFoBbLW14LSmr4EROQVVQkV31JyMrj4zsfDKycqv94No6LorXHxhCRJDhVsY/kJWVRXx8PPn5+Vf/4ivzL1cMOABWAD0kBsaOHct///tfkROFJWXc+PJX5OTXjtCUMxETEcwXz9ysVGtjyZIlDB48WLlkuSri4+PZuHEjwcHBSuydKShmzBvTSM/KFdu6sXsSL/zJ8JAXUBX83PjSV2JfNM5JTEQwP/zrTpGNu8ZPZdfhk4o8kuHuZqZ+aAAxEcE0jAgiMsQfP29P/Lw98PX2xM/bkwBfL/y8PcEKhaW/3XcqKy0UlVTtHCkuKyevsISc/CJyC0vIPVt87k/V/+cUFFNUIr9n3dyrNU/c3AMPd7WtmY888oj4vfAc3V014BgMzJEYUJXl+GHVTsZNcswpCXsREuDDxOduEafxL2THjh306NGDvDzHFP8JCgpi48aNNGvWTIm98opKxr7/I1tSjymxZzLBh4/eSKeWMSI7t/5rMmnHxKlXjRMyqFNz/j3G+E6qfelZ3DHuW4Ue1Q1CAnx44Y6+9G4Tp9z20qVLGTBggGjJ5TlygEhXUBq9FHOBDRIDJSUlvPbaa2JHbujWivgGYWI7roK3pzvvPDRUabCRkZHBkCFDHDbYcHNzY8aMGcqCDYB/frVIWbABYLXCq98sES9k69xSJpyncV4SGsrUcmet3aPIk7pDt6TGTHnpDpsEG8ePH+e2225TEWxA1XtypasGHAD/lBr4/PPPycjIENkwm008MbKn1BWXwGw28ep9g0hqWl+Zzby8PIYMGSJ+nWzJ+++/T79+/ZTZ+3LeJuZu2KfM3nkysvJYuu2AyEbrWHWNahrnomlUqOj8yh1aobm6+Hp58OxtvXlv7A2ECXpmLkdRURGjRo3i5Ell5a0vwTV2qVyO2cAmiYHS0lLGjRsndqRTyxi6JzcR23F2HhvRXUkX+3nKysoYMWIEO3bsUGZTNc8++ywPPfSQMnsLN+/nw5/WKLN3Md8t2y4637aZOpVYjXPRuF6I4bMZWXl6F0o16dm6KdP+8Sdu7tXaJhLuZWVljBo1ilWrVqkyuRZYBK4dcAD8Q2rgiy++4PDhw2JH/nqT+mYeZ2Jkr2Tu6G98G+/FWK1WxowZ47AqogBPPvmk0vHc1PQsXpm40KYd/NsPHL/kqF11CQ3wxddbjdCQxnlwM5tFZdLtB2VLweoCkcH+vPHgdbz90FDqhdhGR6SyspI777yT2bNnqzT7yvn/cfWAYzbCXo6ysjJeeuklsSNN6ocok/t1NmyhtfHYY48xefJkpTZV4eXlxQcffMCbb76pzGZeYQlPfTqbkrIKZTYvhcVqZfk2mSz/gPYJirzROAv1QwNEqrX7LqOOqwEvD3fGDO7I9FdG07et+l6N81RWVnLvvfcydepUlWbXAfPP/8XVAw5Q0MsxefJkNmwQxS0A3DekEw0j1O3NcAYSGobz6n2DMJvV5f7Gjx/PBx98oMyeSlq2bMn69et5+OGHldm0WKy8MGEemdniOfhqsXFfuuh8K4WbfjXOQVSY7In7RE6BIk9cB5MJBnZMYMYro3nohq74KpIovxTng42JEyeqNv27p/W6EHCIsxxWq5UnnnhCLCbl6eGmXMLbkYkM8efdscOUC3s9//zzyuypIiQkhDfffJNt27aRkqJ2LffHM9eybvdRpTavhHSstVGkGp0RjfMQ6OstOq+3Df/G+cVzk56/jXH3DlKyeuBKlJSUcPPNN9si2JjPud6N87iatPnl+AdCXY7Vq1czffp0br75ZpEjXRIbMahTc+bZYMrAkfD38eT9h28gMkTdiuglS5YwZswYh1IRTU5OZsyYMdx7770EBKi/MSzZmsaX80W9zzUmp0AmVOfv49gy0Rr1BPvLAo7cs3rxX1WgEcv913eqtQ23ubm5DB8+nOXLl6s2XQo8dfEH60rAMZeqWlIXiZFnn32WYcOG4eXlJXLm6Vt6sXFvOqddVIHUbDYx/v4hSvVHduzYwYgRIxxCRTQ6OpqbbrqJu+66i/bt29vsOmnHTvOPL23bJHop5AGdq+oJai5HgK/sniiR5nd2zCYTvVJiue+6TjSPiai16x49epShQ4eyfbtsMu0yPA78YWV6XQk4oKpTdq7EwKFDh3jvvfd45plnRI4E+Xnz3O19ePoTpZ3ADsMzt/SmS6I6AShHEPZq0aIFQ4cO5cYbb6Rz586Ybbxj4UxBMY9/OJOi0nKbXudSSL83R8pAaWoHky3mM12c0AAfbrimFTf2SFIqhFgdlixZwq233kpWlk2adacAH1/qE3Up4JiHgizHuHHjuOeee4iIkEWifdrEuWRpZVTvFEb2SlZmz17CXvXr16dXr17079+fa6+9lkaNak9Bs7yikic/mcVxOzXSNRNmpnR6XFNTKist9nahVvD0cKNLy8YM6pRA7zZxeNpBKuGtt97iueeeo6LCJhNv+4AHLvfJuhRwQFUvxzyJgfz8fF5++WU+/viSAVyNeOaWXmzelyHSPXAkuiU15qlR6lRVKysrueOOO2wu7OXm5kZSUhLXXHMNXbt2pVu3bsTGqhMoqyn/nrSE7Qfsp0vQPqGh6PxZBYuoNBpXwcvDna6tGtO/XTw9WjetWvZmB86cOcODDz7ItGnTbHWJImAUcNknpboWcMwHViLcJPv5558zduxYkpKSRM4E+nnzrzEDeei9H7BYnDsNHd8gjFfvHax0/PWRRx5RLUADQGhoKF27dv31T8eOHW3S8GmE/83bxOx19tspYTLBtR1kO1/yC0sVeaNxFryET+puAg0PR8NkgvjocDq1jKFzi0a0S2igdFLPCEuXLuWuu+4iPV028n4VHgau2BBS1wIOgCeB9Qg62yoqKvjLX/7CihUrxLXLDs0bcte17fnfvNqdRFBJSIAPb/75eqXTCePHj1eSRQJo3LgxPXr0+PVPixYtHLLm/O2SbXz4o+1ky6vDoI7NaVJfthPjxBmtqVDXCPLzEZ2/rksLJszZqMib2sXNbCYuOpSkpvVpn9CQji1iCA2Q/XuoorS0lJdeeom33noLi8WmZauPgf9d7YvqYsCxEZgM/EliZNWqVUyYMIH77rtP7NCDQ7uwcV8GOw+dENuqbTzc3Xjrz9crFTT78ccfRVobTZs2ZcCAAfTo0YOePXvWav+FUb5ZvI13pq+wqw/1QgJ46pZeYju6abTu0Sulqej8X4Z15ZpWTfhpzW6Wbk0jv8gxs2Rmk4no8EBaNoqkVZN6tGpanxYxEfjYUJTLKOvXr+eBBx6w1RTKhUwGHqnOFzreY17tEAPsBURr9sLCwtizZ4+4gRSqlPZGvzaFMwXO03BnMsE/7xnI4E7Nldlcv349ffv2paioZiPDLVu25KabbmLEiBG0batuZ4utsVrhgx9W89WCzXb1w93NzKdP3ERKnHzb6/vf2//70dQur943WFyKO09FpYXdR06yJfUYW9KOsS3tOEW12BdkNpkID/YjOiyQqNAAosICaVI/hNioUJpGheLl4djP6fn5+bzwwgt89NFHts5qAMwEbgKq1YHq2P9ytiMdeBt4UWLk9OnTPPnkk3z11Vdih+qHBvDvMQN55IOfnKaf466BHZQGG2lpaQwdOrTawUZgYCAPPPAAY8aMoWXLlsr8qC3KKir5x5cLWbAp1d6u8NANXZUEGwBFpbpptK6hskTp7mamdWwUrWOjuJsOWCxWTuQUcOTUGdJP5ZF7tpi8whLyCkvILywht7CEkrIKSi/aM1RQVEKArzcmEwT4eGE2m/Dz8cTdzUywnw/B/t4E+/sQEuBDiL8PQf4+RAb7US9EthfGnvzwww888sgjHDt2rDYuNx24g2oGG1B3Aw6A14F7AdFd9uuvv+bWW29lyJAhYoc6t2zEw8O78f73q8W2bE3ftnGMvaGbMnt5eXkMHTq0WnPhjRs35uGHH+aBBx4gMLB259dVcfRULi9OmMfuI6fs7Qp928YzeoDtBMw0rk+QUPjrSpjNVWWM6PBAuiba7DJOzf79+3n00UeZN080hFkTPqaqjFJZk0POGcap4SzCDMd57r//fs6cOaPCFKMHtFeaNbAFiU3q8c97BqLqoaasrIwRI0awd+/eK35dw4YN+eSTT0hNTeWpp55yymDDYrUybfl2/jTuW4cINprHRPDPe65V9loCTpOh06gjPEhUndYYJDs7m7Fjx5KYmFibwcY/gYeoYbABdTvgAPgS2Co1kpmZyRNPPCH3hqq+iJfv7C/WQrAVkSH+vPngdUrHvB544AGWLFly2c+7u7vz1FNPkZqayoMPPoinp3Pu6ticmsHoV6fw+rfL7KIgejFhgb6889BQ5SN7jvC9aWqX8GB1O5M0V6esrIy33nqLZs2a8dFHH9lKxOtiKoGxwN+NGqjrAYeFSyyYMcKXX37JTz/9pMIUHu5ujL9/MDERjrV10xYL2caPH3/FLYUJCQmsXr2a//znP/j4OMaoWU3Zdfgkj7z/Ew++/T370m0iJVxj/H08effhYUpfS03dxNPDjUAbllQ0v1FZWcmkSZNo1aoVTz31FLm5ubV16VLgVuAjiZG6HnAALKGq+UXMfffdx/HjahQiQwJ8eP/RYUQ6yJODh7sb//nz9UoXss2cOZMXXnjhsp9v27Ytq1atolOnTsquWZts3JfB2Pd+5K7xU1m7+4i93fkVz3Ovpa02UtYVmWpNFfWCHUM0z5WpqKjg66+/JjExkdGjR5OWllabl88FBqPgfVIHHFX8FciXGsnOzmb06NHKRpFiIoL56K83Ehpo3/ro+TJPx+bqyjzbtm3jtttuu+y/Vdu2bVm4cKGSkePa5GxxGd+v3Mmd46fyl3e+Z/2eo/Z26Xd4uLvx+oNDlL6WF1NcpksqdQndv2E7KioqmDhxIomJidx5552kptb6RNt2oAOwVIWx2t8c45gUAIVURXEiDh06hK+vL927d5d7BQT7+9ArJZaV2w9RUFz7Yjhms4kX/9SP67uqGzvNyMigX79+nD59+pKfj4+PZ9myZYSHhyu7pi0pLa9g9c7DTJizgX99vZhl2w6Qlet4+3G8Pd1544Hr6JEsE2m6GvM27uPoqVpL9WrsTHLT+vRvr0aDQ1NFZmYmb7/9NnfeeSdff/01OTk59nBjCnADcFKVwbo8FnsxHwF3UhXNiXj55Ze55pprlAUdjSKD+eKZm3nk/Z/Yfyxbic3qYDab+MddAxjSuYUym0VFRYwcOfKy219NJhNff/21w2c2TucXsX7PUZb/cpA1u45Q7OCNkiEBPrzz0FCSmta3+bXKK3RJpS4R4SBlX2fHarWybNkyPvzwQ2bOnEl5ud3uKaXA34B3VBvWAcdvVAL3AxsAkU5tWVkZo0aNYtOmTURHRytxLjzIjwlPj+QfExexZKvt63cBvl6Mu3cQ3Vo1VmbTarVy9913s379+st+zQ033ECXLl2UXVMVpeUVbEvLZP2eo6zbk87+jCycRcG7UWQw7z0yrNaakEvLa6VjXuMgRAT72dsFp2br1q1Mnz6dqVOncuDAAXu7s4uqtR/bbGFcBxy/ZxvwGvCy1NDx48cZNWoUS5YsUTbG6evtyesPDGHi/E18NHOtzfQOGtUL5p2HhtK4XohSuy+++OIVVyObTCZeeeUVpdc0yun8IrYfPM4vB46z/eBx9h45RVlFjcfO7c41SU3495iBBOgpAo2NiAjSAUdNsFqtbNmyhWnTpjF9+nRHCDIArMB/gWeAEltdRAccf+TfwDCgjdTQ6tWrefTRR/nkk0/kXp3DZIK7B3WgdVwU//xqERlZecpsAwzp3IKnb+ml/A1q8uTJvPbaa1f8mn7/396dx1dV3/kff2UhCSQQsgAhLCYsIezriIAsoiMiUhbrYLVq66jj2Nqpy4yO/Vl/086v7dQ6ziAaO0y1Wh2XUZS04oaKaFFQCEGWFMhCAmFLICFkz839/XFA2ZR7z/fc7dz38/E4D2ac8z3f75DLPZ98v5/v53vppYwZM8bRfn3h6eykdF8txWX7+aLsAMWl+9lX4+zfa7DFxMDfXnkht101mdggn4wbiYGZ2JepgOO89uzZw3vvvcfq1at57733OHQo9EX/TlEO/B3wbqA7UsBxtnbg+ziwtALw29/+lpycHO6//37jgZ1qwtB+vPB/rmPZ6+t4eU2x8fR+eo9uPHDdJcwaN9iZAZ5i/fr13Hzzzec9RXTmTPOTSn3R1NJG8YnZi6Jd1WzfczDsczD80Ss1mX/53uVcOHxASPpv05JKVAmXrfvhorOzkx07drBhwwY+/fRTPvjgA3bt2hXqYZ1LB/AI8C9AUE4NVcBxbpuxqqn9womHPfDAA+Tl5bF48WInHvelrold+MclM/nW1BEUFH7Cuq176PQz8kjsEs+i6SO5dd5kUpOTHB0ffHUgW1vb+Q/0GjYsMCXdm1ra2FBSxaZd+yjaVc1f9h52bfnt2eMH85PvXhqQn6XIuWQa5HDU1NSQmppKly7hd7y7Lzo6OigtLWXr1q1s3LiR9evX8/nnn3PsmHGVhUBbD9yGte01aBRwfL1/Ay4DZps+yOv1csMNN9CnTx+mTZtmPrIzDBvQi//4wbfYV1PPio+28mFxGRUHvv5sl5gYGH5BH+ZPGc7cC/NJ6RqYUuGHDx9m7ty5Ph3IBpCf79xumGNNrawtLuP9olI+3bGHtnZ3T/Nnpibzj0tmcumEIaEeikSRbkkJdEu0Hyy89tpr3HXXXUydOpUZM2Ywa9YsJk2aRFJSeAXMbW1t7N69mx07drB9+3a2bdvGjh07KCkp8emXqTBSh3WGWAFWpe2gUsDx9TqBG7AiQOPymk1NTcybN4933nknYJUz+2Wmcueiady5aBrVtcfYsKOK+sYWGppb8Xq9dO+aSE5WGuOGZNMzJbBlwpuampg/f75fFfF69jTfRVFWXcsThZ/y8RfldERBxcu42FgWTx/FHQumKDFUgs40YbS6uprGxkbeffdd3n3XSiGIi4sjNzeX/Px88vLyyMvLY+jQoQwdOpT+/fsTE4CcpJqaGmpra6murmbPnj1UVFRQUVHx5f+8d+/eYJ1XEkgvAXcBzpTDtkEBxzerBm4GXgeMP+X19fXMmTOHDz74gHHjjHNSv1F2Rg8WXjwyoH18HY/Hw3e+851v3P56LtXV1QwYYJZ3kJ2ZSm5WGn/eWmH0nEgwdeQF/Pjb0xnUNz3UQzlNY3NE/cYnBnobbondt2/fWf/N4/Gwe/fuc/6y0rVrVzIyMkhPT//yz8zMzLN+WUlOTiYhIYHjx4/T3t7OsWPH8Hg81NXV4fF4qKmpOe3yeFw9A7odK9B4J9QDUcBxfoVYBVAcOQ62rq6Oyy+/nNWrV4dkR0ageTwebrzxRgoLC/1uW1JSwuTJk436T0qI5wcLpzJ/yggeX7mODzaXuipfo0t8HJeMG8y1l4xlzOC+oR7OObnnb1vOx7Tol79nTzU3N7N3796vLRwop6nBykX8L6wE0ZBTwOGbfwamnLiMHT58mNb5iIIAACAASURBVMsuu8x1QUd7ezvXXXcdr7xi74yfLVucy18a2Kcn/3bblRw40sAra7+gcN12jhxrcuz5wdY3vTuLpo9i4bSRIT9bR+SkPoanDVdXVzs0EjlFM/DvwMNAWO3vD+4G/cg2ECgCHJu/zsjI4I033jD+rT4ctLW1sWTJEl5//XXbzxg4cCDl5eXExjp/pmBnp5f1JZW8/dlO/ry1gqMNQdkFZqRbYhemjLyAeRcN5+JROcTGBuefa0NDA9272z8B9KoHnubAkQYHRyTh6p+vu4SrZ4y23b53794+J5XLebUC/w38CgjLKSDNcPiuEqvk6x9x6NC72tpaLr30UlasWMHll1/uxCNDoqmpicWLF/P2228bPaeyspI333yTefPmOTSyr8TGxjBlxAVMGXEBnV4vJXsOUbS7mq3lB/ii/EDYvCB790zh4tE5zBo3mEnD+pMQH9zzFUtLS3nttde49957g9qvRKa+6T1st21ublaw4YwWYDnWzsqzk2LCiAIO/7wJ/AyrUIojGhsbmT9/PsuXL+fGG2906rFBc+jQIRYuXMgnn3ziyPMeeughrrzyyoBkop8UGxPDiJw+jMjp8+V/q6lvZGv5AbZWHGRb+QF2V9cGZRZkYJ+ejMrJYmROH8YM7kv+gN4EuTDolzZs2MD8+fO5+eabQzMAiThZ6faXVCorKx0cSVRqwgo0fo21wSHsKeDw38+BiVjlzx3R1tbGTTfdxMaNG/nNb34TMUVwNm/ezIIFCxz94ti4cSMvvPAC1113nWPP9EVmajKzxg0+rdJqfWMLZfuPUHnwKAePHufAkQZq6htpaGqlobn1yz/PVeMjNjaGlK6JdO+aSPduiaR0TSC9ezf6ZfagX2Yq/XqlMqx/Jj3CpEDXq6++yk033URjY2OohyIRJCvd/tLbnj17HBxJVNkO/BZ4hjDL0TgfBRz+82IdY/8RYH/x8hyWLl3K5s2befHFF+nbNzx3IJz08ssvc/PNNwfkBfXDH/6Q6dOnG2+RNZWanMT4IdmMH+LMib/hyOPx8OCDD/KrX/3qvKXnRU7Vo1si3ZLsFw3UDIdfWoEVwJPA2hCPxTbns/OiQz2wGHB8AXLt2rWMGjWK5557zulHO6K+vp7vfe97LFmyJGC/DR89epT58+dTU1MTkOeL5dChQ8ydO5df/vKXCjbEbyazG6CAw0cbgTuBbOA6IjjYAAUcJnYD87HW0Rx15MgRbrjhBhYuXBhW/yjfeustRo8ezTPPPBPwvoqLi7nssssUdATIqlWrGDNmzJfVHUX8pYAjYLZg5QqOASZhHRt/JKQjcogCDjPrge9gnTDruJUrV5KXl8e9997LkSOh+7wVFRVxxRVXMHfuXKqqqoLWb3FxMZdccgkHDx4MWp9u19DQwB133MFVV12lv1cxooDDMZ3AOuCfgCHAWKyCXV+EclCBoIDDXCHWmSsBqY3b2trKI488wuDBg/n5z39OQ0Pwtm+WlJRw7bXXMnHiROMtr3Zt3bqVGTNmsHXr1pD07yaFhYWMGDGCgoICLaGIMQUcRnZi1cz4LtZyyTSsQl2loRxUoCngcMZLwN8SwNP36urq+OlPf0pubi4/+clPAvqPdePGjdx0002MGjWKl156KeQvp507dzJ58mSWL18e8rFEot27d7No0SIWLFigktDiGJOAw+v1BnW2NMQ6gK1YO0uuA/oBw4BbgeeBqJlqVMDhnGewDnoL6ClAtbW1/OIXv2DQoEEsWLCAZ5991pHiORUVFSxbtoxx48YxadIknn322bA60KipqYnbbruN2bNns3379lAPJyLU1NRwzz33MHLkSKMKsP5qbg3ICqOEGZOA48CBA5F2rLuvWrCW2n8L3A5cBKRi7Wi8HXiBCKmZEQjaFuusZ4CjwItAQM9/93g8FBYWUlhYSGxsLOPGjWPcuHHk5+czfPhw8vPzyc3NJS7u9EqVLS0tVFVVUVpayrZt29iyZQtr1qyJmOnNNWvWMHbsWG699VYeeOAB+vfvH+ohhZ0jR47wyCOPsHTpUo4fP+53+zM/M/7ydAZsok/CiGpwcBArwbPoxJ/FQAlhclBaOFLA4bxCYM6JP3ue515HdHZ2smnTJjZt2nTaf09MTCQ1NZWUFKsaYENDgytKCXd0dFBQUMDTTz/Nbbfdxn333Ud2tntrZfjqyJEjPProoyxdupRjx47Zfs7Jz4vI14mPiyUz1f7R9BHyC04bVlBRhrUr8eR18n+3/48sSingCIyPgJnAW0DIKni1trZy6NAhDh06FKohBFRLSwtLly5l+fLl3HrrrfzoRz9i8ODB52/oMtu3b6egoIBnn33WKNAQ8VXvtBRiDWrwGwQcv8M6L6Q3kAX0Ak6W643FWr44UztwHGvmoQFoxCqkVYe1BNIIHDpx7ccKMg4CtXYHKeemgCNwtmBlHr+DtdVJAqS5uZmlS5eybNky5s6dy+23386cOXMipkS8He3t7axYsYInn3ySNWvWhHo4EmVCuEPln3BJTYpopIAjsMqBi4E/YRVwkQDq7OzkjTfe4I033iAjI4O/+Zu/YeHChcyYMYOkpPA4s8SEx+Ph008/5fXXX+e5557jwIEDoR6SRKmstJAEHMdRsBHRFHAE3kFgOlbWcuQdB+uMPcACYC7wy2B0WFtbS0FBAQUFBXTr1o1Zs2Yxe/ZsLrzwQiZMmEBysv3152Bqamri7bff5k9/+hN//OMfXZGDI5EvRDMcEZH4IV9PAUdwtAA3ARuAfwfsn3gUeT4GrsZaH92CVeTmzmAOoKmpiVWrVrFq1SoA4uPjGT16NBdddBGTJ0/mwgsvZNiwYcTGhn6XeEVFBevXr2fDhg2sX7+ejRs30tLSEuphiZymb4YCDvGfAo7gehzrBfw0MD7EYwm0duBfgV/w1TYxL/AjoBlrLTYkOjo6KCoqoqioiIKCAsDa0ZOfn09+fj4jRoxg8ODB5OTkMHDgQPr27Ut8vHP/VDo6OqiqqqKsrIzS0lJ27tzJtm3bKCoqUrlxiQgmMxyNjY3U1trKx1TAEeEUcARfMTAZeODE5cbZjmLg+1j708/lPqwZj4cB+6nuDmptbaW4uJji4uKz/m9xcXFkZWWRk5NDVlYWaWlp9OzZ88vr65JTjx49Sn19/ZfXwYMHKSsro6qqivb28C2O1dGhMgLyzUJUg8ON35VRRQFHaLQD/4JVEv1JrC20btCMNavxG6w97N/kEaAG6zyBsP4cejwe9u3bx759+0I9lKBobGw0at81oQvHm11ZRVJOMEkaNdihkmW7UwkLoV+0jm4lwCXA97BevpHsTWAU1hKKr2+bZ7CSSesCNSgJvrg4fa24WWpyEl0T7W85Nwg4NtjuVMKCvhlCz4v14h2KNTPQHNrh+K0EWAxciVWBz1+rgHHAp04OSkQCI4Q1OPQdEeEUcISPOuAfgXysZYam0A7nvCqBW7AOJXrN8Fl7sLYO34O1115EwlQIA44Go44l5BRwhJ9KrGOL+2O9gP8S2uGcph14HZgHDMIqM+xUhmEH1pbhESf6kBBpbW0N9RAkjIUw4AjfTGvxiQKO8HUU6wU8HCup9PeEbrmlBGsba39gEdYySKDOrq860ccCrEqtEmSmdT+Sk7SZwM36hi7gCPdZXzkPBRzhzwusxdpm2hcrwfQloD7A/e4G/gtrqWM41hbWYJ4CVwiMBH6GllkiisGZXhIBTGY4Ojs72bt3r93mqoAX4cJ6O6KcpR4rwfQZrJ/dGKyEy5PXGM59WuL5HAA2Y9XP2IwV4FQ7MF5TzcBDwGPAvcAdgNmvVyJixCTgqK6uNqlBo7W+CKeAI3J1AJtOXKfKxko8zQXisH7GZ35DtGAtXVRj7SwJ9/Pra4D7sbbc3gT8ABgW0hFFjrXAjFAPQtzDJOAwWE4B6xh5iWAKONynmvCYnQiEY1izHcuwlnpuAb4NdA3loMJQPfAcUABsA1YDl/rauKnJbKk8VmsqrpUQH0dGD/sHHxoGHJrhiHDK4ZBIdDKv5UasvJa/B9ad+O/R6uTfyXex/k5+iBVsgJ9r36Zl17spadS1+mb0MMrRMQg4vCiXK+JphkMiXT1WefgnsZaRlgBzgam4//PdCXyGtY34f4HSr7lPX9TiiH69ehi1r6iosNv0mFHHEhbc/oUs0aUc+NWJKxWrbPxUrMPyJgL254LDRxPwHvBHrJ08vhwvq9PYxBHZGSELOFT0ywUUcIhb1WP95n+yiFg81jbbKVgByIVAHuH9b8CLVfhtw4lrPdZOIn/XPPTboTgiO8POJrivKOCIbuH8ZSvipA6sl3Ux1vILWMddD8eqbjoSa3fPCGAIYP90KntasQqsbT7jcuJgu05/bm5oMPtuj4tVaphb9cu0P8Ph9XopK7Nz3BKgZUFXUMAh0ayNr4KQU3UBcrAqqw4ABmIlYmYCPU+54oG08/TRiTXbcvTEnyevPVhLQGUnrmoCl/TqVwTR2elXfHKWron6WnGrbIOAY//+/SZl8zXD4QL6ZhA5Wzuw68TlBoEqQy9Rpl+m/SUVg9kNUMDhCpr7FHE/TUeLsZSuCfTolmi7vUH+Bugz7AoKOETcz68kU683msuZyNfJNpjdAOOAI9BnR0kQKOAQcT+/SoceO2a2qSUpIdj5thIM/Qy3xJaWfl2ZGJ8cNepcwoICDhH3a/PnZtMZjvg4fa24kUnCKBjPcBwx6lzCgr4ZRNyv2Z+bTWc4uiVqhsONTBJGwThpVDMcLqCAQ8T9/NqL6PGYbWqJjdXhbW5kUmW0vb2dffv2mXSvGQ4XUMAh4n5+Hd52/LjZhoBkHd7mStkZ9o+lr6qqMg1kFXC4gAIOEfcL6mmxOp7enfr1sr+kYpgwClBr+gAJPQUcIu7n15JKU5Nfm1rOohkO98no0Y3ELvbrRBomjIJmOFxBAYeI+/kVQRiUnwYgTrtUXMdkdgOME0ZBSaOuoG8GEffza42kpcWvFZizdFUdDtcJ4bH0YFUZNYuCJSwo4BBxv0Z/GzQ3+7WT9jRd4vW14jYhDjj2G3UuYUPfDCLu1+Fvg7Y2v2qFncZkrV/Ck8mx9GCcNHrQqHMJGwo4RNzP732ujY1+T4p8KUEBh+uYnKPS2NjI4cOHTbpXwOESCjhE3M/v9e+ODr8nRb6UEB9nu62EJ5MZjvLyctPuD5g+QMKDAg4R92sE/DogpaGhwXZnSQma4XCTuNhY+qSl2G7vQMBxyPQBEh4UcIhEB78OSOns7LTdkQ5vc5c+aSnExdr/mTpQg6Pa9AESHvTNIBId/Ao46uvrbXekw9vcJcQJo6AZDtdQwCESHfxKHDWZ4Yg1+G1Ywo9Jwig4MsOhbbEuoW8GkejgV1KGSQ5HcleVNncT0xkOB3I4tKTiEgo4RKKDXzMcJrtUdDq9u5gW/TIMODxoW6xrKOAQiQ5+BRwmdTiSkxJtt5XwYxJw1NbWGs2WYQUb9qNfCSsKOESig1/f+ialzVWHw11CfCz9XtMHSPhQwCESHfzapXLsmF+3nyahS5yCDpdI7BJPRo9utts7kDBaZfoACR8KOESig18zHCbbYkGJo25heiy9AwmjlaYPkPChgEMkOvgVcJjMcAAkJyngcIN+oU0YBQUcrqKAQyQ6+JU0qoBDAAb26WnUXksqcioFHCLRIbgzHFpScYX+hksqu3fvNh2CZjhcRAGHSHTwa4bDNIcjRVtjXWFgb/szHB0dHVRWGscLCjhcRAGHSHQI6pJKimY4XGFAL/sBx549e2hvbzfpvhUV/XIVBRwi0cGvKQvlcEiX+Diy0rvbbr9r1y7TIZSZPkDCiwIOkeigHA7xS3ZGD2IN6tQ7kL9hXDVMwosCDpHocMSfm81zOBRwRDqT/A1wJODYafoACS8KOESiQ60/Nzc0NOD1em13ltJVSaORLgx2qGiGw2UUcIhEhyagxZ8GJssqWlKJfANCP8NhnAQi4UUBh0j0CNqyipJGI5/JDIfH46GszDjnUwGHyyjgEIkeNf7cbDLDoRyOyHeBQZXRyspK0y2xbajKqOso4BCJHn7lcZjMcKgOR2SLj4sN9ZbYXYDH9CESXhRwiEQPv5ZUlMMRvbIzehAXa//14ED+xlbTB0j4UcAhEj2CF3BoSSWimR7a5kDA8YXpAyT8KOAQiR77/bn5yBG/4pPT9OiWRIz9mlESYrlZ6UbtHVhS2W76AAk/CjhEoscBf24+fPiw7Y5iY2NITe5qu72E1gV90ozal5Yal9DQDIcLKeAQiR5+HYRVW+tXjulZUpOTjNpL6OT2tT/D0dHRYbqk0oTOUXElBRwi0aPan5sPHTpk1Flad81wRKqcLPszHKWlpaZbYncAnSYPkPCkgEMkevi1pFJT41fZjrOkpSjgiETp3bsazU6VlJSYDmGT6QMkPCngEIkefiWNGi+ppGhJJRKZ5m/s2LHDdAifmT5AwpMCDpHo0Qoc9fXmgwf9Svk4S3r3bkbtJTRM8jfAkRmOjaYPkPCkgEMkuvg8y2E6w9FTMxwRKcdwS6xhwNGCdqi4lgIOkeiy19cbW1tbjYKOzNRk220ldHIMl1QMA45iwCjjVMKXAg6R6OLXgVj79/uV9nGazB4KOCJRbrb9GY7q6mqjM3hQ/oarKeAQiS7BCzh6KuCINF0Tu9AnLcV2ewfyNzaYPkDClwIOkehS4c/Ne/f6vAJzlt497b+4JDSG9s8k1qAmvQMBx1rTB0j4UsAhEl3K/bnZZIYjKSFex9RHmPwBvYzaG26JrQT2GA1AwpoCDpHoUuHPzdXVfhUnPUuvVM1yRJL8gb2N2m/bts2k+UdGnUvYU8AhEl324ccuAJMZDoBeyuOIKHn9M43aFxUVmTT/0KhzCXsKOESiiwc/EkcrKiqMOstK727UXoKnS3wcg7MzbLcvKyujrq7OZAia4XA5BRwi0afC1xvLy/1K+ThLv8xUo/YSPEOyM+gSH2e7veHsRjVgnHEq4U0Bh0j08fno76NHjxrVVcjO7GG7rQTXmMF9jdobBhxvGXUuEUEBh0j02e3PzWVlPscnZ+mXoYAjUowfkm3UftMmo0NeFXBEAQUcItFnqz83m+Rx9NUMR8SYkNffqP3nn39ut6kHWG3UuUQEBRwi0cevgKO0tNR2R71Sk0lKiLfdXoIjJyuN9O5dbbcvKSnh8OHDdpt/ih+nGEvkUsAhEn0qgQZfbzZZUgHINTx9VAJvwtB+Ru3XrjUqEPq2UecSMRRwiEQfL7Dd15sNq0eS21cBR7ibMWaQUXvDgEP5G1FCAYdIdPJ5WcU04DCp7SCBl5QQz1/lm+VvfPSR7RIah4CNRp1LxFDAIRKdfJ7hOHjwIEeOHLHdUf5As/M5JLAuGnEBiV3s59mUl5dTWVlpt/k7QKftziWiKOAQiU7r/bnZ5IyMkTlZRieQSmBdPCrHqL3B7AbAm0adS0RRwCESnTYCbb7evHWrXxtbTpPSNYFB2crjCEexMTHMGGuWv7F6te0dra3AG0adS0RRwCESnVoAnwsnGJ4CyphBZlUsJTAmDx9otB3W4/Hwxhu2Y4b3APtlbCXiKOAQiV7rfL3RNOAYZ1jFUgJj/tThRu3XrVtnkt/zilHnEnEUcIhEL58DjqKiIjo77ef2TRuVQ1ysvm7CSY9uicwaO9joGStXrrTbtB0oNOpcIo6+AUSi1599vbG+vt5oe2xqchIT88yKS4mz/npSHgld7J8OC5gsp3wA1Bp1LhFHAYdI9DoEfOHrzevW+Twhck6XTRxq1F6c9a2pI4za79ixg5IS2yfK/8Goc4lICjhEots7vt5oGnBcPimPboldjJ4hzhg7uC8jc/oYPeO5556z2/QYsMKoc4lICjhEopvPAYdh+WpSuiYw7yKzJEVxxk1zJhm17+zs5Nlnn7Xb/CWgyWgAEpEUcIhEt4+AZl9uLCsro7i42Kiza2aNQTXAQmtQdgbTR+caPePdd99l7969dpv/3qhziVgKOESiWzN+zHK89tprRp0N6pvOpDyzczvEzA8WTDEO+n7/+9/bbfoX4BOz3iVSKeAQkdd9vXHFCvOl9yWXjDV+htgzefhAZhpWFq2pqeH1133+yJzpcazTiiUKKeAQkT8BHl9u/OKLL9i0aZNRZ9PH5JKV3t3oGeK/uNhY7r5muvFzHn/8cVpaWuw0rQOeNh6ARCwFHCJSg5XL4ZOCggKjzuJiY7nhrycYPUP8d+3ssQzOzjB6RmNjI8uWLbPb/L+B40YDkIimgENEwI9lleeff97ouHqAhRePJL1HN6NniO8GZ2fwgwVTjZ/zu9/9jpqaGjtNO4DHjAcgEc2szJyIuMV+4MfAedMJOzo66NWrF1On2n+BxcfF0tnpZUNJle1niG8SusSx7EcL6dUz2eg5HR0dXHvttdTX2zpv7X/Q7pSopxkOEQGoBD719eYnnnjC6GwVgGtmjtYsRxDcuWgaQ/qZLaUA/OEPf6CystJOUw/wr8YDkIinGQ4ROak7cIUvN9bV1TFx4kSGDRtmu7Mu8XEkJcTz560Vtp8h32zm2EHcfc0M422w7e3tXHPNNdTV1dlp/gKw3GwE4gaa4RCRk14BfJ62ePzxx407XHTxKIb2yzR+jpxtVG4W/+9vr3Ck0Nry5cspLy+307QT+Ln5CMQNVPNPRE71MTDN15s/++wzJk0yK5O9pXQ/t/zmFTq9Ks/glAG9evLUP11DWveuxs+qq6sjLy+Pw4cP22n+P8D1xoMQV9CSioicKgWY6+vNNTU1LFmyxKjDPundqW1oYvueQ0bPEUuv1GQe/4dFjtU6uf/++3n//fftNO0ElmBtuxbRDIeInCYL2IuPv4zExMSwZcsWRo0aZdRpQ1MrS372PIfqVKbBRL/MVAp+vIjszB6OPK+kpIQxY8bQ3t5up7lmN+Q0muEQkVMdB6YCQ3xtcODAAeNZjsQu8eQP7MWq9SVoZcWeERf05okfL6KPQzMbXq+X66+/nl27dtlp7gGuRbMbcgoFHCJyphhgka83l5SUcPnllzNgwACjTrMzetDZ6WXTrn1Gz4lGi6eP4le3XUn3bomOPfPJJ5/kscds1+r6L+AZxwYjrqAlFRE5U3fgAOBzkYxp06bx8ccfG3fc2enl9kdXKOjwUVJCPA9cP5srJ+c7+twdO3YwadIkmpqa7DSvA/IAW1mm4l6a4RCRM7UBYwCfEzOqqqoYO3Ysw4cPN+o4JiaGySMG8u7GXTS2tBk9y+2GDejF0jsXMHn4QEef29bWxty5c6mqsl0F9v8Aqx0ckriEZjhE5Fy+Baz0p8GwYcPYunUr8fHxxp3v3lfLLb/5X443K+g4U1JCPH83/yKuu3QccbHOl1K6++67efTRR+02L8EKVm1lmYq7aYZDRM6lHPh7/FhWqa2tJS0tjSlTphh3nt6jGyNzs3j38514OpVFetKUERew9IcLuHh0DrFOVPQ6Q0FBAQ8++KDd5h5gIbDHuRGJm2iGQ0S+zsPAvf40SElJYfv27cYJpCdt2FHFPU/+iebW6P6FeXB2BncsmMLMsYMC1kdhYSGLFy/G4/HYfcR/AHc5OCRxGQUcIvJ1BgKlgF9rJPPnz6ewsNCxQXxRfoB/eGwlx5paHXtmpBjaL5MbLp/AFRcOC8iMxkmbNm1i+vTpdpNEwfqcjAUanRuVuI0CDhH5Jq9hTZP75dVXX2Xx4sWODaK65hj3L18VFdVIY2NjmDV2EEsuGcvEvP4B72/79u3Mnj2bgwcP2n1EG3Ax8JlzoxI3UsAhIt9kBvChv40yMjLYsmUL2dnZjg2krcPDf7zyMS+vKXbsmeEkMzWZq6YM59szRjtWlvx8HAg2AP4BWOrQkMTFFHCIyPl8iBV4+GXWrFmsXr2auDhnc9NXb9zFL55/3xVLLN27JXLJuMFcceEwJuX1JzY2eF/JmzZtYs6cOdTUGBUDfQ24GlBmr5yXdqmIyPlUAjf526iiooK4uDhmzpzp6GAGZWcwf8oIauob2b2v1tFnB0NK1wRmjh3E3y+YwgPXz2b2+CH0y0wlJoA5Gmf6+OOPmTNnDkePHjV5TDlwJdDizKjE7TTDISK++Ahrnd4vcXFxrFy5knnz5gVgSLBp1z5++8f1bNy5NyDPd8qQfhlMHXkB00blMG5IdkDqZ/jqrbfe4uqrrzZJEAUrb2MqsNGZUUk0UMAhIr6YDbxnp2FqaiofffQRo0ePdnhIX9lecZAVH2/lnc920hQGW2j7ZaYyfmg244dkc9GIgfRJC05OxvksW7aMu+++2+7pr6e6E1jmwJAkiijgEBFf2crlAOjfvz+ffPIJ/fsHdtdFU2s7HxaX8UFRKeu2VdDS1hHQ/gDiYmMZnJ3O+KH9GDckm3FDsumVmhzwfv1x/Phxbr31Vl588UUnHvc88F0nHiTRRQGHiPhqJrDGbuPRo0ezZs0a0tPTnRvRN2hr91Bctp+NO/eyaec+/lJ12Ph8lj5p3RnQO5WcrDSGDejFsAG9GZKdQUKX8E2HKykpYfHixezYscOJx30CzMJaUhHxiwIOEfHHe1jLK7aMHz+e1atXBy3oONPh+kaqa45Re6yRY42tHGtqpaGphU7vV5ssusTH0TWhC8lJCXRL6kJmajKZPbqRnZlKUoL5OTHB0tHRwX/+53/y0EMP0djoSD2u3Vh5GzoFVkREAm480IG1DdLWNWHCBO/hw4e9Ejiff/65d+LEibZ/Rue49gFDAvvREhEROd2jGL7A8vPzvVVVVaF+L7vOsWPHvPfcc483Pj7eyWDjAJAf2I+UiIjI2boDezF8keXk5Hh37doV6ne0KzQ1NXkffvhhb2ZmppOBxslgY2QgP0wiIiLfZCEOvNCysrK8n332Wajf1xGrtbXV+8QTT3izs7OdDjS8WIW9tIwiIiIhtwwHXmyJiYnexx57LNTv7ojS3t7ufeqpp7y5ubmBCDS8QDHQN3AfHRERmdozNAAAA8FJREFUEd8lYlWadOQlt3DhQu/Ro0dD/S4Paw0NDd4nnnjCO2TIkEAFGl5gLdAzQJ8ZERERWwYBdTj0ssvNzfW+//77oX6vh53du3d77777bm/Pnj0DGWh4gVeApMB8VERERMwsAjpx6KUXExPjvfHGG7379+8P9Xs+pFpaWrwrV670zps3zxsbGxvoQMMLPIYO9BQRkTD3MA6/AFNSUrwPPfSQt6GhIdTv/qDxeDzeDz74wHvLLbd409PTgxFkeLFOe709AJ8JERERx8Vjrf07/kLMzMz0/vrXv/Y2NjaGOh4IiPb2du+HH37oveuuu7z9+vULVpBx8qoELnT4syAiIhJQfbG2Ugbk5di7d2/vz372M29tbW2oYwRj+/fv9z711FPeq6++2puamhrsIOPk9TKQ6eQHQEREJFhysX5rDtiLMjk52fv973/fu27dulDHDT6rr6/3rlq1ynv//fd7x48f742JiQlVkOEFaoFrnfuRi4iIhMYQoIogvDyHDBnive+++7yffPKJ1+PxhDqu+FJ1dbX35Zdf9t55553ecePGeePi4kIZYJx6/QHo48hPWcRPOi1WRAIhD3gf6BesDtPS0pgxYwazZs1iwoQJjBkzhp49A19Oorq6ms2bN1NUVMTmzZvZuHEj5eXlAe/XTzuBO7BO+xUJCQUcIhIoFwBvEcKDv3Jzcxk2bBgjR45k0KBB5OTkkJOTQ3Z2tk/BSEtLCwcPHqS6uppDhw6xd+9e9u3bR2lpKbt27WLXrl0cP348CP+f2NYM/BJrF1FLiMciUU4Bh4gEUgbwJvBXoR7ImWJiYkhLSzsr8Ojs7KS+vp6mpiZaW1tDNDpHvAbcBewJ9UBERESCIQVYRejzF6LlWgtM9+knIyIi4jJxwKOE/mXs5mstcIWvPxARERE3+zZwhNC/nN1ydQCvAlP8+SGIiIhEgwFAIaF/WUfyVQX83xN/lyIiIvINFhGkeh0uudqA14Gr0CFrIiIifknByu1oJ/Qv9HC9tgD3oYJdIiIixsYCHxP6l3u4XF8ADxLCGiYiIiJuNg/YQOhf+MG+OoHNwE+B4cZ/iyIiIuKTi4EXsKpjhjoYCNRVBTwNXA9kOfPXJiIiInb0wqqWuZXQBwimVy1W0uedaBZDREQkbE0BlgH7CX3w4Mv1F+D3wK1YAYaOkpCopn8AIhJpYrGCj8uAGcBFQLeQjggOYOVgFAGfAp8Ah0M6IpEwo4BDRCJdHJAHjDvlGgVkO9xPJ7AXKMU67v0vwHagGCvgEJFv8P8Bp43xg3nmQHAAAAAASUVORK5CYII=;" parent="1" vertex="1">
          <mxGeometry x="695" y="213.22999999999993" width="90" height="92.83" as="geometry" />
        </mxCell>
        <mxCell id="kMh38vBJg7g_2Ti8jL4W-19" value="" style="shape=image;verticalLabelPosition=bottom;labelBackgroundColor=default;verticalAlign=top;aspect=fixed;imageAspect=0;image=data:image/png,iVBORw0KGgoAAAANSUhEUgAABLAAAAEGCAYAAAB1imwAAAAABmJLR0QA/wD/AP+gvaeTAAAgAElEQVR4nOzdeXxcdb0//tf7zGRrm7YUWloWQUArm6JFBfVqFEgyyZyTVB1cQBTUtoAiF7kgm4wL/uCriF6lTQtcVOSCHaDNnEkmKQWLuFCggCCoyKKylLVbSjtJZs7790fTa4ldssw5nzMzr+fj0Uchmfm8X22TzJz3+SyCALXf2D51oD/3E4UMinhrpKD3TdhnyiOpk1OFIHMQEREREREREVHpkKALtt/YPrW/f2sHIJ8a+tDrgK4UoHdw0Ou986t3vhh0JiIiIiIiIiIiCq/AG1jbNS1uao2o/ESBtw771GMC9HjAsp75PfdBoEYCBqh5UfPBEBxRP62+l7PRiIiIiIiIiIjezFgDCwASP0zUbZ646RKonA+gZicPeU4Et4l4t3V9ecUfyrWZFVsUOwOiN0D0z+LpBd1nrsiYzkREREREREREFBZGG1jbNS9sni0WrgVwwm4e9hygt8OzfpU9K3tfUNmC0Ly4+RxR/HiHD91tWd5lXfNW/N5YKCIiIiIiIiKikAhFA2u75o7mzwjw/wAcsIeHPi7Q6wpR3NT7pd51QWTzU2xx7EyoLtzJp3oFumjitMnZ1MmpgcCDERERERERERGFQKgaWABgL7YnDOrgeQJcCGDSHh6eg8odCr2uZ0HPPaW6xLC5o/lUAW7azUNeA+Q2gdcTraq5O/3FdF9g4YiIiIiIiIiIDAtdA2u7lmtbZnqW9x0RnA4gMoKnPKmKjohGftZ1Vtd6v/MVU2xxrB2qy0b48DyA1QqsBvBgFIUHM/PvfKpUm3dERERERERERHsS2gbWds0Lm98plvwA0JNG+JQtAtwinreo66wVa3wNVyRNS5pOtDy5cxxDbAH0SYH8TVX+BuDvgsLagiUvAlh7/NrjX04mk16R4hIRERERERERBSr0DaztmjuaW4b2xzpy5M/S1Qq5rram9vblpy/f4Fu4cYotjB0HS//gc5lNQ782AtgkijcAQKGDIrJ56DF5Bfq2fRyDAt2sIhvgYb2IbIBgvVUovD5Q0LVT9536curkVMHnzEREREREREREpdPAAoBkMmndN/O+T1nANxV4xyie2g/VuyHW3QC6swuyT/iVcSxiHbEjAH3cdI5RKgB4BcBaBZ6zBM+op8+oyDPw8PSrkVefWTN/zaDpkERERERERERU+kqqgbVdYmkisvn1zZ+G6GUAZo9hiL8L0O0BXfVb6n+dOi+1tdgZRyO+KL5/QfLPm8zgg0EATyrwOIDHRORP+YH8/Xd+9c4XTQcjIiIiIiIiotJSkg2s7RJLE5G+dX2fEeAyAG8f4zBbFVhhiS6NRmtcEyf8Nf6icWJki7V5z48sC89DZDXg/QGedXd2QfYRbkBPRERERERERLtT0g2s7bY3sizgklEuLRwuByCriqU5L5dZdfaqwJpKsY7mAQBVQdULD3kZ0JWALMcA3Ow52X7TiYiIiIiIiIgoXMqigbXd9j2yBLgUwBHjHG4rRLqhSBUmFDIrTlvxRjEy7kpsUfMrEEz3s0YJWKfALVrQH/We3fuU6TBEREREREREFA5l1cDaLplMWqtnrj4V0O8DmFGEIbcI0KWQpVGJdrvz3S1FGPNNYh2xJwF9W7HHLVF5AX6u1XJR9ozsq6bDEBEREREREZFZZdnA2q51YetenuV9D9B5AKwiDfuGAl0CSRWzmRVb3PxHKN5ZjLHKyDoFvtKzoOcW00GIiIiIiIiIyJyybmBt17K45f2q3nUAji7y0FsAdANy29bC1q7x7JkV64g9BuhRRcxWNhS4tn5a/Xmpk1MDprMQERERERERUfAqooEFAHMWz6ma4c24AKKXAqj1ocRWAbIecFt1VXVmtKcZxjqanwZwiA+5yoSujkrhZHf+yn+aTkJEVOoaGxsnVlVVVQNAJBLJp9PBn8BLRERERDQaFdPA2q55YfNsy8LVCrT6WCanQC+A2/KSd1fOX7lxdw9OLE1ENq/r2wx/GmvlQ/EqIE3ZM7MPm45CRBQmDQ0NtZMnTz5IVQ9S1YNE5GAROUhVDxaR6apaBWAqgGoAE3cz1AYACmCLiLyqqi8CeAXAiwBeBvCS53lPT5gw4YlUKrXV7z8XEREREdF2FdfA2q55UXODJbhKgff5XKpfgJWewvU8r3vF2SueG/6A2KLYByH6W59zlAndIBJp7p7fvdp0EiIiE+bNm1f1wgsvvDMSibxPVd8H4L0ADkfx9nocCQ/AMyLymKo+oaqPeZ53X3d39z8CzEBEREREFaRiG1gAAIW0dDQl1JIroDgsiJIC/NEDugH81lPvwagV3VfV+zmAdwdRv0z0Cax494Lu35gOQkQUAInH4+8VkTYAH8W214uwzth9CsDdAO7K5/O/zmZ5kiwRERERFUdlN7CGzFk8p2q6N/0MEVwK4ADTeWhEtkDFzp6Zvdt0ECKiYmtoaKidNGnSx4aaVjaAWaYzjYECeERVbykUCrdks9nnTQciIiIiotLFBtYOEksT1ZvXb/4CVJMozYuFStMHlY9wTywiKhfxePx9IrIAwMnY/V5VpcYDcI+q3lRXV3dHKpXa7d6QRERERETDsYG1E/Zie0JBB76skIsBzDCdh3ZrreSt47u/wn1XiKg0NTY2TqypqfmMiCxQ1Tmm8wRgq4j8vFAofL+rq+sZ02GIiIiIqDSwgbUbDdc2TKqL1J0NeN8AZKrpPLRLT1he5ENdZ3WtNx2EiGikHMfZV1UvBHAGgCmm8xiQF5FfichVnZ2dj5kOQ0REREThxgbWCDRd3zQtMijnqOA8APWm89BOKO7BoDRlz8n2m45CRLQ77e3tUwuFwvkAzkV5LRMcKwWQAXCR67qPmw5DREREROHEBtYotFzbMlMj3sUA5gOoNp2HhtPrsgt655lOQUS0M4lEorq/v/8LqvodcHn6zuQBLMzn85dls9lNpsMQERERUbiwgTUG9uIT3zKI6HdFcSr4dxgqAj2je0HvjaZzEBHtyLbtNgDXAtjfdJYSsFZELkin0zdj2+wsIiIiIiI2X8ajZXHL+1W9HwD4kOks9H9yUPkATyYkojCwbXsfAD8G8FnTWUrQPYVC4fPd3Tykg4iIiIjYwBo/hTQvaf6kKK4EcIjpOARA8NQg8seunL+Sx7QTkTHxeNwWkQ4A+5nOUsI2icj8dDp9q+kgRERERGQWG1hFkliaqH5j3aYzFUjyxMIQEKSz83raIVx+QkTBSiQSk7Zu3XqdiHzadJYysqi2tvbrqVRqa5BFk8mkdf/998+oqqqa7nneLAD7qup0Ecm5rrswyCxERERElY4NrCJrXNQ4IyLyfUA+B/79GiXQc7sX9P7YdA4iqhzt7e0HFwqFTgDvNJ2lDD2mqpeIyHrP87YCWF9TU7PV87yty5cv37CH50pra+tUz/OilmXVRyKRKao6UUQmDTWkZgDYT1WnA9gXwCwA07Fts33r3wYT6U2n083F/gMSERER0a6xweKT5kXNDSKyBNC3mc5SwXKAzMkuyD5hOggRlT/HcT6oqrdjWwOEypiI3JxOp081nYOIiIiokrCB5aPEDxN1b9T1XamCr4J/16Y8PGla/XGpk1MDpoMQUfmKx+MLROS/AVSZzrIHAwCqTYcodar600wm81XTOYhKTUNDQ+3kyZNtVT0RwHsAHAxgCoACgI0i8qSq3q+q2WOPPfbXyWTSM5mXiIjChU2VAMQWxU6B6A0AakxnqUiiV2Tn915qOgYRlad4PH65iCRN59jB0wBWiMgjAP6Sz+efnDhx4uZUKrUZABKJRHU+n6/v7+8/MBKJHC0ix6hqE4AjjaYuLd92Xfdy0yGISkV7e/tUz/O+rqpnA9hrhE97BsD/19fX97NVq1blfYxHREQlgg2sgMQ6Yp8ENGU6R4UqKPAfPQt6/mA6CBGVF9u2vwngW6ZzAHhNVa8DcGMmk/nbWAZoaWl5ezQa/dwoLzArkoicm06nucci0QjYth0HcB2AmWMc4kHP807r6ur6cxFjERFRCWIDK0CxjuanABxqOkeFeqaqqvqY9BfTfaaDEFF5cBznMlX9tuEYGwB8q6+vr2PVqlW5YgwYi8UmRyKRc0TkYgB1xRizDJ3muu5NpkMQhZw4jnO5qn4T47/m6APwWdd1M0XIRUREJerfTtYhHwkeNx2hgh2SHxy40nQIIioP8Xj80hA0r34VjUZnu677o2I1rwAgm81uymQy3xWRd6vq74s1bjkRkXWmMxCFXTwev1JVL0dxbpjXA1juOM6nizAWERGVKDawAqTARtMZKpkCC5oXN3/IdA4iKm22bX9RRL5jMEIewDdc1/30smXLXvGrSDqd/mtdXd2HRaTDrxqlSlVfN52BKMxs275ERC4o8rARVf1FPB5vKPK4RERUItjACpCoFu0OOY2JJYrrG25sqDUdhIhKk+M4JwEw2dAZEJFPuK57VRDFUqlUIZ1OnykiYdjnKzQKhQJnYBHtgm3bMQB+zVCtEpHbYrHYAT6NT0REIcYGVoAEMmg6A2F27UDthaZDEFHpaW1tPURVlwKIGoqQV9VPp9PpdNCF0+l0UlW5afmQSCTCBhbRTrS3t08FcAP8vcbYOxqN3uDj+EREFFJsYAVIRTnzJwREcXGsI3aE6RxEVDpisVhNJBJZCmCqqQwickkmk1lmqv6xxx57HoDlpuqHiNbW1q43HYIojDzPuwzArABKNdq2/YkA6hARUYiwgRUgUeFpTuFQDegNyWSSX/9ENCLRaPRKVZ1jqr6qptPp9PdN1QeAZDLpeZ53hog8bzJHCGxMpVIF0yGIwsa27X1U9cwAS34bPFGdiKii8AI+QApwBlZ4HHffvvd92XQIIgq/tra29wP4qsEIm6qrqxcAUIMZAABdXV3rReT0MGQxiBu4E+2Eqp4OIMibtUc4jnNigPWIiMgwNrCCtZfpAPQvInply7UtM03nIKLwSiQS1Z7n3QAgYjDGpXfcccdag/XfpLOzc6WI/K/pHAaxgUW0EyLy6aBrqupngq5JRETmsIEVrBmmA9COZKpGCoGc5EVEpSmXy30DwJEGI/yltrZ2ocH6O2VZ1qUA+k3nMEFEuP8V0TCxWGw6gHcbKN0KLiMkIqoYbGAFiw2s0JHPtXS0fNh0CiIKn7a2tiMAXGwyg4h8P4z7LS1fvvzvqtphOocJqsoTCImGiUQi74WZRtIMx3EONVCXiIgMYAMrIEMbhnMJYfiIwrsmsTRhcnkQEYVQoVD4MYAagxFeqKmp+aXB+rvled41AELXXPObiLCBRTSMiBxoqraqmpwlS0REAWIDKyBrZq2ZBrN7qNCuveeNdZu4oTsR/R/HcU4SEdObA9+QSqUGDGfYpe7u7n8AcE3nMOA10wGIQmgfg7UPMlibiIgCxAZWQAYLg3ubzkC7ppAr7MW2yTdfRBQiqnqF6QyFQuFm0xn2xLKsa01n2IWNqroSwP0A/gLgRQCbizQ298Ai+nfGtskQkSmmahMRUbCipgNUChHZp7JPHQ+9aXlv4NsAzjIdhIjMchznJFV9r+EYD3R3dz9pOMMeVVdX/zqXy70MYF/TWYbLZDKNGPbCm0wmrQceeGCKZVlTC4XClGg0OllVJwOYrKqThy6EpwKYPPRryrD/nqqqrwT7JyEqCSY3Uq82WJuIiALEBlZAVHVv4Rkp4SYyv3lJ840983oeMB2FiMxR1QtNZxCRklial0qlCo7jLFPVBaazDDOlra3tgM7Ozud2/GAymfSwbQYVZ1ERFZexpbWq+rqp2kREFCwuIQyKhcmmI9AeWSjgR1Aex0xUqdra2o4GcILpHJ7nrTSdYaRE5HbTGXbG87yjTGcgqiAm94bjrEgiogrBBlZwTJ5kRSMkgg/EOmJfMp2DiMzwPC8MM4k2bt68uWRmgg4MDNwLYKvpHDvBk8mIAiIiLxms/aqp2kREFCw2sILDBlapEL3Kue6E0O3nQkT+amxsnAjgVNM5ROS+VatW5U3nGKlsNtsP4A+mc+zEYaYDEFUKVX3YVG3P854wVZuIiILFBlZQlA2sErLXYKHqatMhiChYNTU1bYD55d6qusZ0hjG4x3SAnTjIdACiSuG67rMAntvjA4vv2Uwm84KBukREZAAbWAEREZ6QUlpOaeloPMl0CCIK1MmmAwCAiDxiOsNoici9pjPsBBtYRAFS1U4DZUviwAsiIioONrCCojzxsdSoWAsTP0zUmc5BRP6LxWKTATSbzgEA+Xz+j6YzjFYkEnnUdIadeIvpAESVRFV/FnRNz/N+EXRNIiIyhw2sgIioZzoDjZLisL4Jfd83HYOI/FdVVXUiwrFXYWHixIl/Nx1itJYtW/Y6gLAt45nY0NBQazoEUaXo6upaE/BszN90dXWV4pJrIiIaIzawAuIJ1HQGGj0Bzo4tip1iOgcR+UtVY6YzDHkhlUoNmA4xRqGbhTVt2rS9TGcgqjAXAcG85xWRi4OoQ0RE4cEGVkDE4wyskiXa0bi48R2mYxCRr8Ky592zpgOMw19NBxiuUCiwgUUUoHQ6/TsA/+N3HVX9n6FaRERUQdjACopYbGCVrkkRtZbai+0JpoMQUfHFYrEDEJ4Nv8O2DG80/mE6wHCFQmGS6QxElaa2tvbrIvKkjyX+VldXd56P4xMRUUixgRUUQd50BBqXows6+N+mQxBR8VVVVX3IdIYdvG46wFipaugaWJFIhAeoEAUslUptFJG5ANb5MPwGy7LaU6nURh/GJiKikGMDKyDq6VbTGWh8FPhiS0fzRaZzEFHRvdd0gO1ExI8LvkCISOgaWJ7nVZnOQFSJOjs7n8C2pdnFbMqvB9A4NDYREVUgNrCCInjDdIRhNgN4DuDMsNFQ4IrmRc1fMJ2DiIpHVY82nWE7VS3ZBlahUHjRdIbhVJUzsIgMcV33IRE5DsDjRRjuryJyvOu6DxRhLCIiKlF8YxecLaYDbCMZhX6vZ0HPHwAgsTRR3be+732icgagpwCoNhww7EQE18c6Yl52QfYXpsOUk8ZfNE6M9kXrCyhMiopOQUQme2pNUtHaHR42QSA12/9HPG+DZ4mq6HrxRCOet6Eg1uu52txLq05flTPwx6DSFKYGVp/pDGOlqutNZxhORHiThsigdDr9VENDw7H19fVJAOcCqNnDU4YbVNWFInJxOp0OyXtpIiIyRUwHqBTNi5qbRNBjNIToN7Pzer8L2fnxxq2LGo/yYP0PJDzLaULMg8qC7JnZ60wHCbOGZEO0dt/aAwAcDAsHiaf7iiUzoZgOxUwVmQlgOqAzUPyfR+sArAXwvCgeVpE1qvpgz5k9fy9yHSph7e3tUwuFQmgaL6p6aiaTudl0jrGybXszgImmc2xnWdZxnZ2dq03nICKgpaXloEgk8jUApwKYvoeHbxSRWzzP+2Emk/lbAPGIiKgEsIEVkKaFTf9hWfIbU/UVuLZnQc9X9vS42H/HarRafyHAyUHkKnkq38suyF66q6ZgRVBI66LWtxZQOMqycCSAQxU4GMBbARwIIGx70LwgitsLqrcd/8rxv0smkzwhtIK1tLQcE4lEHjadYzsROTmdTqdM5xgrx3GeU9UDTOfYTkTelU6nHzWdg4j+JZFIRLZu3TpHRI4FMBvAZAAREdmkqk97nvfg/vvvf9+SJUsGDUclIqKQ4RLCgEQikQ2qhq6TBY/m1ubOHclDs+dk+5PJ5GdW73vfVgg+73e0kid6cWxx8+E1N9aesfz05RtMx/Fb0/VN0yQv74binZbgSFW8E4txuGcVJglQKl28/VVwjiVyzuqZ962NdTT9qiC6eMX8FX8xHYyCF4lEDjKdYUeqWtIXbKq6AUBoGlgA+k0HIKI3S6VSBQD3D/0iIiIaMTawAmJ51rqCGGlgKTw5a1Vy1Yj3AUkmk15iaWLe5nV9BwL4mI/ZysXc/v7cu2OLYqdmz8z+znSYYmm8rvGtVt46RkSPgcgxUDkGeX0LAECGmlWlP4dzFiDnRlS+Futo/jUgi16RVzrXzF9T0k0EGpX9TQfYkaoWTGcYDxHpVw1PKzufz3MvPCIiIqIywQZWQDbXbn69rr92zw8sMgVSPWNoqqROTg3Yi+1P5TX/J0D39SNbmTkYor+JLWpaPGgVLlo5f+VG04FGas7iOVX76D5HiMgxonoMIMcAegwKMnVbg2p7tyo8F6U+EAAfA/RjM7zpL7Z0NF+dn+AtXnHairCdHkpFJiJ7h6nhIiIlfZCGqg6YzrAjVeWmz0RERERlgg2sgKw6fVUu1tG8BcCEAMsqPFwx1ie7893XYh2xLwNIFzFTObMgcmaVRk+OdcSunLRl0rWp81JbTYfaUfOi5oMhOEJUjwLkCAiOhuIoANVvnlJV+lOrxkywnwJXR7ZYFzV3NP84L/mflFJDkkZHVfcxnWGYkm5gAQjT7MXB97///a9ns1nTOYiIiIioCNjACtY6BNjAUiDdc1bPuDavzS7IurGOZheAXaRYlWBvQL+/ua7vgtii2HUFr9Cx4uwVzwUZoPHaxgMtyzpCLD0KwBGicpQChwOoBwBIBTeoRm4fAb5TpdHzmxc3X5PL565edfaqzaZDUdFNNh1gR+UwA0vC8/PlJR7SQERERFQ+2MAKlL4ASGCb24rKfxdjHM/SiyxPWgBEijFexRBMB/TiSMT6Rqyj+fcCva1gYWXvl3ufKMaphY2LGmdENHIIBIdCcChUD4Hg7QCOADAFAKDbLiTDs0CqJE0RRbIuUrugeVFzMvdy7obR7ClHoRe2hlGN6QDjISJh+nHzoukARERERFQ8bGAFSp4D8P6Aij2ZXZD9Nc4c/0C983ofj3U0LwPwyfGPVpEsAB9SyIcsD4h1NL+qHVhjAY9B9MkCsNbyrBcttTZakf58IV89oBGd5nne3hEL0wBMU8E0qMwU4BAAh+q23+ux47ViaCY9lK2ZIuiom1XztZaOpou6F/R2mg5E4yci1WHaA0tV9zKdYZzC1BB8wXQAoj1pb28/tFAoHA3gHSJyuOd5+4nIZACTANQC2AJgi6puEpHnAfxVRJ60LOuPy5cvf9pkdvJfLBabHI1GZ4vIbM/zDhaRGSIyS1VnikidqkaxfXb9Nm+IyICqbgbwiqq+bFnWK6r6lIj8raam5m+pVIrbIhTZvHnzqp5//vm3RiKRt4vIbFV9m4jM8Dyvfuj7eQL+tQpng4ioqr4MYK2IPK+qz6nqYwMDA4+vWMH9V/1k2/YEVT1eRD4M4EgAew/9mohtq6VeA/AnVV1dKBTuyWazrxqMGzSxbXs2gCNV9XAROUJVp4vIFGz7OVMN4I2hX30A/qGqT1qW9VdVfcR13X8GEZINrACJ4LmgrpMEWFyMWT7bKdAhbGAVh2C6AM0KNEMFFgCIwpMCPI0CkW0rXixrh39AfdNvZJLK4Qosj3U0310Q7+wV81f8xXQkGpewzSwN255co6KqVWFZQigia01nIBrOcZx6AM2q2gigsVAovGX751QVu/r+2fHjqopCoQDbtv8J4C4RWaGqadd1eWhBCYvFYjVVVVXHep73ARH5IIBjMXRS7o5fG9tvuuzq5suOHxeRNz0+l8vBtu2/A1itqvdHIpHfVVdXP5hKpUr6BNygJRKJ6v7+/uMAfExVP7p27drjIpFINfDmf59dfT/v+G+0/b9FBDU1NZ5t20+r6r0isiqfz/86m80+7/MfpxJIa2tro2VZXwHQuJvtGg4Z+r1ZRBCNRgu2bd+tqrds3rz5llWrVpXdycZNTU3TqqqqYpZlNQ69Ls0E/vWas6f3dDv+jLFt+ykAd6lqb6FQ6M5ms/1+ZA7Hu8wK0byo+T9F8MMASm0dyA8eeNdX7nq9aCMqJLak+VkoDiramESlLyeKq7bU5q5cdXr5vahVAtu2bwbwWdM5dnCj67pnmA4xVrZtP4BtF11hcI7ruj8JsmBra+she37U2Hme1xemu8Hz5s2reuGFFw70s4ZlWS+NpDHT0tIyU0R822e0urp647Jly8b8vsq27eMAfAnAp7BtdlWxbQRwq4hcn06nH/Rh/BGzbXuC53kz/ayx//77P7dkyZIwHRoxJo7j7Od5XiuAuIiciGAPe9rudQArAXTl8/nObDa7yUCG0Js3b17VSy+9FFPVzwNoRkD/ViLyiKreVigUUt3d3U8GUbOYWlpaDhKRot0stCxLXdd9dqSPj8fjp1iW9U1Vffs4S78E4Md9fX0/GkkjKx6P76+qvm0LUVVVtW758uUbxvh0cRynQVW/BODj2Dbbt9heA/BLANe7rvt4MQfmDKwAichTQcyhEeBXRW1ebRtUsUi7IVKERYlEZaNWBZfXDdSeElscOzs7P7vCdCAatbDNWCjpGVgA6kwH2M7zvEeCrJdIJCK5XM7XJV2WZd2AbU2QUHjhhRcOsyzrCT9rqGorgO49PS4SidwAoMWvHPl8/hoA543yaWLbdpuIXK6qx/iRawdTAMxX1fmO4/Sq6mWu6z7gc81dOcmyrOV+FnjppZfeBuApP2v4JZFITOrv7/+Eqp6uqh8W89NW98a2xuqnotHoVtu2MyLyy5qami7OzAJs2z5SVb+8du3azwCYEXT9oZ8dx0Qike/atn0/gEV9fX23lspsoEgkshrAvkUcMocRvNdobW09JBKJLFTVpiJtFTETwCXTp0//8UgeLCJpEXlPMQrvTKFQ+AaAq0bznEQiEenv7/+Mql6qqrN9irbdPgDOBfA127bvsCzrm52dnUV5v8AGVoAkL49qNIhFYNa1foyqKj0ixdhVi6jMKA4DtCfW0XQ9Bqzzs+fw7mUJCVUDS0R8nc0SgL1NBxiinuf90XQIqlyO47QC+Jaqzgl6nz1VbQLQ6DjOchH5WmdnZ6AnIdPOOY4zW1XPy+Vyn4U/s/CKoQ5AQlUTuVzu7/F4fKGqXt/V1bXedLCgtbS0HBOJRC4D0C4iluk8Q94H4H319fVXx+PxxSLyQ9d1XzMdKmxs2zXOb3IAACAASURBVP4cgMWqWuybal2pVGprkccMgsTj8ZNzudzl2HYqfaC1AXzC87y5tm3fBOD88X7NhuWbsSJ0n939T0DHOtVvpO7rXtDty9RxS637/RiXqEwIIF9GjT7atKTpRNNhaGRUNVSbparqoaYzjFNYNqF/hstgyISPf/zjsxzHuUNVM6o6x2AUUdW5nuf9yXGceeC2IcbE4/HjbdtepqpPAJiH8DavhjtYRP6fZVn/sG37u62trWH5+e4rx3HeHY/HOyORyEPYtrwqjNfL00TkIgDPxuPxq2Kx2HTTgUJCHMdJAvg5/JkRnvJhTF+1t7cfatv2ShG5FcE3r3ZkAfg8gMfj8fi49tUO4zdk+RIoYPk6nVuB7/g1dvfZ3S8B4Ka4RLujOMjyZEWsI7ao4dqGUnmTWrFE5CXTGYapt227JJcRDm1O7dt+D6P0kOkAVFmSyaRl2/ZZg4ODf1HVuabz7GCyqi62bdttb2+fajpMJWltbT3ctu3lIvJ7AO0o3euuegCXWJb1bDwevzSRSIRmqXgxNTY2TrRt+0pVfUBEHJRG03eSiFwQjUafdRwnGYvFwvIaHLhkMmk5jvMzVb0c/vzbvQEg68O4vmhoaIg6jnNRoVD4E4CPmc6zgxkiknIc55e2bY9pH7lS/UFautTHzq3Imp75Pf5+Y6kGuqcIUYkSQBfURWofbFnS4ve+JzQOqjrijUADdJjpAGNUzD0uxuu3pgNQ5XAcZ781a9bcDeBaAJNN59mFVs/zVjuO4/e+JxXPtu194vH4EsuyHgXQZjpPEU0Rke/kcrknbNv+hOkwxWTb9idqamr+CuBChO904pGYqKqXR6PRPzqOc5LpMCY89NBDV6rqaT6W6CqVk14dxzmsvr5+tap+D/5s0D5uqnoKgHtjsdgBo30uG1gB86q82wGs82Vs8b6xbZaXn6yH/R2fqKzMVs/7Q8viprNNB6GdsyzrH6YzDCci7zSdYSxE5GDTGbYTkT1u+k1UDPF4/ARVfRjAR0xn2RNVfbuq3hePx08wnaVcDe2984SIfBnlu9fwwQBus227Ox6P7286zHi0trbu5TjOHQBuA1DSf5Yhs1W117bt62KxWFib6UVn2/YXVfW/fC5zu8/jF4XjOB9X1QcB+LaBfBG9JxqNPuA4zqhOr2YDK2C9X+pdp8AFxR5XBTf1zutdWexxhxPLK+oxmEQVoFZVftrc0by86fqmaabD0JsNDg7+3XSG4QzvmzNmhULhraYzDHkmnU6X5OlkVFLEtu0LRaQXBk4mG4epItI1tMk8FUk8Ht/ftu1eAL8AUCn7EcVE5DHHcU41HWQsHMc51rKsNSFb8lsMAuBL0Wj0T5XQrG5ra/sAgA6fy2ytra0N9Y2xhoaG6NAS2Nuw7VTaUjFTVVe2tbW9f6RPYAPLgJ75Pf8jwB1FHPKVKlSN9mjnsdHIk4HUISozArRZeVnDJYXhks1mN4nI86ZzDDOqO1FhEaIZWBnTAai8De2V0wngSpTmcqMaVU1V6lKjYnMc5yQRWQOg0XQWA/ZS1Zts275prPvZmBCPx09T1d8ACMuNFz8cKCJ32rZ9ZTKZLMtr/lgsVuN53nXwf7ZjdyqV2uxzjTGbO3fu3pMnT74b25bAlsLebcNN8Tyvx7bt947kwWX5xRx6Ao1WVX8BgkeLMFq/wEq484M5QlUHlA0sorE7WD3vd7GO2KdMB6F/UdWwnbB6VCldCGynqkeZzjCky3QAKl8tLS0za2tr7wFgm84yTnWq2jnapRv0L0ObJF+tqr0I1x6AJpwK4Letra2HmA6yOw0NDdF4PH6DiPh1Sl3YCIAL16xZk2lqKr9VANFoNAngCL/riMhtftcYq/b29kMLhcLvVfU/TGcZp6kAeuPx+Nv29EA2sAxJfzHdhyo5cZxNrIIqvtC9oPs3RQu2B9lzspsAhO3ULqJSMgHQW2IdTVcmliZK8c59OQpbA6taRD5sOsRoWZYVhv0Wnqutrb3LdAgqT21tbUdEIpH7SnWZ707Uqeodc+fOLaUlkKHgOE59fX39MlU9D6U548EP77Ys6wHHcT5oOsjOxGKxmvr6+ltF5AzTWQyIVVdXr3Ycp1QPifk3bW1tRwM4P4BSOYT0xlg8Hn/fUPPq7aazFMleIpLe0/5tbGAZlD0j+2pVtPpD2LZx4OgoXlWgqefMnluLn2z3BPhb0DWJyowAcmHfur7MiYtPLKV16mVJRMLWwAKAklraM3fu3L1VddQnyRSbiFyXSqUKpnNQWXqv53m/BXCQ6SBFdmA+n7+1XJcY+aG1tfUQVb0PQNx0lhCaNrSJeKj+btrb26dWVVXdCaCsTk8cpcNU9d7W1tayaMB7nnc5gjkooSedTvcFUGe0ThKRX6O09mAciXdEo9HrdvcAvlgZlv5iui+7oCchqp8EZCSNoRyAn+TzhWN6FvQYucusimdM1CUqNwI0V2n03sZrGw80naWS5XK5+wFsNZ1jR6raZDrDaBQKheNMZwCQB3CD6RBUtj4EYC/TIXzy0Yceemi+6RClwLbtd1iWdS8CWLZUwiYCWGbb9smmgwBALBabXigU7imDJVbFMNOyrLvj8fjxpoOMR1tb2xEAAtl8f2hT9DA6AUDJbTcxQic7jvPxXX2SDayQ6D6z9/bs/OxsBU6EytUA7gbkT9i2KWQvIB0KfBbV8pbsgp5z7vzqnS+ayqqC50zVJipDR0ci1h+aOpreZTpIpVqxYsUbAMK27OzIoTdoJcHzPOMzxkTETafTxl4biUqZql7pOM5+pnOEWWtr6+EA7gbAv6c9iwL4X8dxPm0yhOM49VVVVVkA7zSZI2Qmi0iPbdthuPE0JoVC4TIE08for6ur48EwBqjqTxOJxE5XqQQx7Y5GSqA96LkL4buQehMReQ6qpmMQlZP9LchvmxY3fbp3fm8o19mXOxFxVTVUSx5U9TMALjOdYyRE5MQQZPiB6QxEJWyyql4J4DTTQcKora3tCM/z7gGwj+ksJSSiqr+Ix+ObMplMd9DFE4lE9datW+8QkbJYMldkkwH02Lb9Mdd1HzIdZpSqRSQRUK07U6nUxoBq0ZvNyuVylwL4r+Gf4AwsGj3OwCLywyRLpbOlo2mB6SAVKgMgVJ15Vf0sSmBz4Pb29oNheDmNqqY7Ozt/bzIDURn47EhOgKo0juPs53leN9i8GosqEUnF4/H3BVk0mUxauVzupjDcXAmxKQAyLS0tpbavnwUgkEOQVDUVRB3apTNjsdj04R9kA4tGzYP3T9MZiMpURCGLWhY1/xga/sZFORlaehbYia4jdIht28aX5u2J53mfgdlGW0FELjZYn6hcREQkiFO9SkZ7e/tUVe1F+W3eH6QJIrKsra0tsP0+16xZ8xMAodiDK+RmRSIRd0+nvlWoQVV1TYeocBOj0ehXh3+QDSwatbqquhdMZyAqZyo4J7ak6XqeChW4xaYD7MTXTQfYk6GZYibd5Lru44YzEJWLzzuOs6/pEGGQTCatQqFwC4CjTGcpA/t5nnd7LBar8btQPB7/MoCz/K5TRo6ORqM3owRmfAdsRVdX13rTIQhftW37TZvV8+KIRm356cs3AOg3nYOorKmcsXrWfTc3JBu4V2FA8vn8HQBeNZ1jmJMcxwnt5rOO43wQZi/uNlqW9U2D9YnKTQ0Aoxtvh8VDDz30LQDNpnOUkfdGo9Hv+1mgtbX1KBH5kZ81ylQ8Ho9z9uWbhfX0wUozVUScHT/ABhaNVdgu8ojKj+LTdTNrf8aZWMHIZrP9IvIz0zmGEVW9wnSIXfE87wKT9VX1Pzs7O7kvI1ERqeoppjOYFo/HW1SVS5OL76vxePyTfgzc2Ng40bKspQAm7PHB9G9E5Hu2bX/IdI6QGBwYGEibDkHbDH9N4kURjdUrpgMQVYhTVs9cfa3pEBXkRwC2mg4xTNy27UbTIYazbftIEbENRshkMpkbDdYnKlfvdRxntukQpti2vY+I/A94neQLEeloaWmZWexxa2trFwI4vNjjVpAogF8mEolJpoOEwF29vb3rTIeg/9O042bu/MFMY6P6sukIRJVDFzQvbv63Y2Sp+IY2c+8wnWMnrgli75BR+iHM7ZnxelVV1TxDtYnKnqrGTGcwaCEA7gPmn70tyyrqnpO2bX9WVU8r5pgV6qBcLhfaWd/jpCLyiKpeB+Cqod//ACC/k8feHmw02oOqaDT6fyeKcm8VGhvhEkKiIIniyuaO5sd7FvR0m85S7qLR6JX5fH4egImms+zgiGg0eiWA/zQdBADi8fhcAKZmhXkicsYdd9yx1lB9orHaAuBREXnS87yXLMsaADBBVfcWkZmq+gEA9YYzbvcxbJuRWlEcx/m0qiZM5yh3IjI7FotNz2az476eSCQSU3K53NXFyEUAgK84jrM0nU7/znSQYlHVW1X1211dXX8e/rn29vapQ6cpz1PVY7CtobU88JBm9A019Z4G8LKIDKrqJBGZpqoHADgO4VmS+zEAtwBsYNEYicoG5VkVREGyBPhl86Lm9/Sc2fN302HK2bJly15xHOcaVb3UdJZhvmbb9grXdbMmQ7S0tMwUEZPLWi9Jp9Pcm4JKxSYAt6rqLXV1db9PpVIDu3pgQ0NDdMqUKXNU9XOqejrMXjh8OJFIRFKpVMFghkDFYrHJqnqN6Ry78DqA34vIQ6r6tIg8k8/nnxeRTZ7nbclms/3JZNJ64IEHpkQikTpV3QvAYap6qGVZb1PV7QdumH73/oaIXFFTU3P17r4XRiOXyyUBFH1J4jgogD8DeFxE/grgOQDrAWxRVRGROgB7DTUI3o5tyx6PQnhWRlmqem0ikZhTBt//W1X19Ewm86tdPWD58uUbACwC0BGPx+OWZTWk0+nXgosYuNcB3Kyqt27evPmBVatW7WwGGgAgkUhUb9my5f2WZZ0O4BQA1YGl/Hcf3f4fbGDRmKjoBvOvgUQVZy8ANyeWJj6cOrnk31SEWk1NzfdyudxnABxqOssOBMCtLS0tH+nu7n7ERIBkMmk9+OCDNwGYZaI+gJTrulcZqk00GltE5PuFQuHHIz2KfehCYjWA1XPnzr08n89fDuArMPOGa0oul3sXgIcM1DaiqqrqUlUNUyPkURG5VUQ6Ozs7/4xtjZFdSiaTHrY1StYDeBHA4zt+3rbtfVS1QUQ+DcBGwBejIrJMVc9Np9P/LNaYra2tR2Hb94hpeRFxPc+73fO8u7q7u18azZPnzp279+Dg4Ecty2pX1U8AqPUp50i9a+vWrWcAuM5wjvHYCiCWyWTuGeHjNZPJuABcHzOZtEFVvzcwMLBwxYoVb4zkCUNN5nsB3Os4zqWqeiWAz/mactcOjcfj+2cymRfYwKKxEWza/csoEflBBB/YvH7TuQA4Xd5HqVRqa1tb2wLP81YgXN36yZFIJGPb9gdc1y3aRcBIDDWvrhORE/f8aF+s7uvrOw17uIgjCoF7PM87o6ur65mxDrBs2bLXAZxj23YWwM8BTN/DU4pORI5GhTSw4vH421T1a6ZzABgAcBOAa1zXfXxPDx4N13VfA3AbgNtisdj0aDT6eQDnw//9vp4CcE46nS727GGxLOunMDshY6OqXlNdXb1kPMvah77fbwNwW3t7+1c8z/u8ql4IczeLICLfcRzn1nQ63WcqwzgogC+4rjvS5lW5c6uqquaP52t0aI/Y0xzH6VbVxQAmFy/eyFiWdTSAF8IyVZFKjAAbTWcgqlgq34l3nPQ20zHKXWdn50oRucl0jp3YH8C9Q3eeA5FMJq01a9YsFJEzgqo5zOP5fN5etWpVzlB9opH6QV9f34njaV7tyHXdrOd5HwEwqhkdRXKkgZpGiMgVMLs8piAi16rqIa7rfqnYzavhstnsq67r/qC2tvYwVU0C2OxDma0ALu/r6zvaj6Xvtm23AfhIsccdoTyAq6PR6KGZTOZbxdyTcfny5RvS6fSPARwG4CIAI5ot44N9Pc87z1Dt8Vriuu5S0yFCwANwkeu6bcX6Gk2n07daltUIA70AVT0KCM9aWyoxHoQNLCJz6gqILDIdohJYlvU1AE+bzrETb7Es67etra1NfhdqbW3da82aNS6A+X7X2oW/FgqFE4ux2S+Rj1RVv+667n/tbk+RsRjaePij2LZ3SWC2XyyUu7a2tqMBfMJghPsBvC+dTn8lk8m8EGThVCq1OZPJfCufzx8O4NdFHDrjed5Rrut+28cbDxf4NO6e/BnAB1zXPX9o5pQvXNfd4rrulQCOBrDKrzq7IyLnOI4TloMlRupFEeHJ3UBBVU8f+hoq6sz1zs7O1ZZlNWHbwSRBOhJgA4vGyPK8raYzEFW4E2KLY+2mQ5S75cuXbxCRBIAwzvyZYllW1nGcRX69wbRtu9GyrDUAWvwYfwT+rKonjHY/ESIDLs5kMj/0a3DXdf8iImf6Nf4uzA64nhGe510OM9dEHoBvz5kz53jXdY0u1cxms8/PmTPnRGyb8TM4jqGeFZE213XtYs1C3BnHcT4M4Hi/xt+NW2pra+e4rvtAUAVd1312zpw5J4jI94OquYNpqnqWgbrjcUmJLnssJlXVL2cymV/4VaCzs3O1iFzo1/i7MBtgA4vGqBCRMF7MEVUW1atj/x2rMR2j3KXT6YcRjk1id0ZUdQGAJ+Lx+NkNDQ1F2fi1paXlGMdx7gDQC+CtxRhzDFZHo9H/CHpGAtEYLB66y+2rdDqdEpGb/a6zA2P77wSlra3tCAAfN1B6HYC467qXD22+blwymfSGvo5PArBhlE/vF5Hv1tbWHhnEKbGqGvTsKwXwbdd1T0mlUoHfxE8mk146nb5AVedh2/LFIJ0Xi5XMe82n5syZ41vTpoR8J5PJ3Oh3kXQ6fS2AO/2us4P9ADawaKzy6DcdgYhwCKrxVdMhKoHrujcA+InpHLuiqgeIyE/r6+ufsW37ytbW1jmjHSMej+9v2/YXbdv+bSQSeVhV5/qRdYSy/f39J/i5PIOoGERkTT6fD2zz73w+fwnGN0NmNOra29unBlTLCFX9KoI/qONlEfmoH/tCFYPruvdYlvVBACM9KORuz/PenU6nLwuiudPa2no4gJjfdYa5yHXdy2H4EJFMJnOdqn4B22bvBWVGVVVVIsB643FtWBrCBt05Z86cbwVUSwOehbUvAOEphDQ2wgYWUTjoN1uubfll99lcYuW3OXPmnLtmzZoZAD5lOstuzAJwoWVZFzqO87yqPqiqj1iW9bSqbvA8b6OIRCzLmqiqkwEcIiKHq+q7AIRivxsR+X5NTc1FrusWTGch2oMBVf18NpsN7D1Rd3f3PxzHuUVVTwuiXqFQmInRz8YpCYlEYkoulzs1yJoi8jyAE9Pp9F+DrDtanZ2dT8RisQ9Go9EVAA7fxcOeA/CfruveHmA0WJZ1LoKdhPFt13WvCrDebmUymZsdx5moqh0IqPnqed6ZAH4ZRK1xyA8MDFT67KtN+Xz+jCCbeOl0+mHHcXpV1fc9WQHUtra2TuUMLBobNrCIwqIeUS9pOkQlSCaTXm1t7WkAQnnXfDhVPQBAu4gkVfUmAK5lWb8RkV+ragbA/wL4rqqegnA0r7YAOCWdTl+QSqXYvKJScJXfp8XtTD6fvyaoWiIyI6haQevv7/8CgEkBltwgIk1hb15tl81mn1fVkwA8O+xTAwCu6u/vPzzo5lUikagG8MkAS/5yaOZVqKTT6SUi8oOg6onIB+Lx+LuCqjdG9/b29q4zHcIkVb04m80+b6D0j4IqZFnWvmxg0ZhErEjQ062JaBdU8aXmhc3vNJ2jEqRSqYHa2tp2AMtNZykzj1uWdZzruv9rOgjRCL1qaFNldHd3PwLgbwGVmxBQncCp6ucDLDcoIid3dnY+EWDNcctkMi94nncigBeHPnQPgPe4rvuNFStWvBF0nlwu1whgWkDl/ghzp+/u0Xve855vAOgJqp5lWacEVWssRKTLdAbD/rbffvstMVF45syZdwFYH0QtEaljA4vGRPL5iOkMRPR/ImLBt9Ov6M2GmlifAnCL6SxlwANwTT6fn9PZ2fmY6TBEIyUiVxk+6SoTRBFVLcrBEGHjOM5sAO8OsOT56XQ6yM2Oi2boNMFGEfmM67oNJmYd7uDkgOpsFZFPuq67JaB6o5ZMJr1oNPp5AIHsFamqn0Lw+8WNmKr+2nQGk0Tk20uWLAlqf8Q3GaobSDPV87xaNrBoTDQS5f5pROFyQktH40mmQ1SKVCo14LruKQC+gWA3Uy0nfxORE13XPS/IPYSIimBrf3+/7yc87Y7neb1B1BGRsmxgqepnA6y10nXd0B4CMhKu6z6eTqdvNZlh6JTdtiBqiUgynU4/FUSt8Vi2bNkrAM4PqNxb2trajg+o1mjlZs2aVck3wV4dHBxMmQwgIoG8JlmWxQYWjY0IZ2ARhY3C+h40vHfHypAObez6CQR0B7RMvAHg0tra2qPS6XRF3zGlkrXU9F4rqvrHgOqUZQMLwMcDqrOhUCicDsOn15WDSZMmxQBMDqDUo5s2bSqZWe2u6/4cwKoganmeZ/J04t1ZY2r2URio6o2mbwTm8/nAXpPYwKIxKXhWnekMRPRvjm3paArqTTkNcV13uYi8E8AK01lCzgPwc1Wd7bruFalUasB0IKIx6jAdoLu7+yUArwRQquxm3MdisQMQ3MEVVxjaVLkcfSyIIqp66apVq/JB1CoStSzrkoBqBXHS3Fg8ajqAQQrgeuMhVP8MwPcmoqpG2cCiMRHIPqYzENG/U5ErGpINZXfBEXbpdPpF13WbROTkoWPS6V9UVdMicqzrul/IZDIvmA5ENA5/dl33PtMhhlTykpkxi0ajzQGV+ntfX99PA6pV9kTkgwHUWJPJZALZX66YOjs7f49g9iA6ynGc/QKoMyoiUhIne/rknkwmE9ShHrs0NAPsySBqsYFFYyOBnQBCRKMzu3bf2lNNh6hU6XQ6lcvl3gHgEgAVfZwzAE9ElonInEwm05ZOpx82HYioCAI79WsEKvmibTwagyiiqt9etWpVLoha5c5xnHoAQZy2fBVKdLmnZVlXB1BGAIRuv9VCofAX0xkMqrjXJDawaExUdW/TGYho50Rw+ZzFc6pM56hUK1aseMN13e/l8/m3isg3Aaw1nSlgm1T1xyIyO51Of5yNKyozYTpJ7mXTAUqU7zN5ALy2efNmnlRbJKp6PAC/9999bXBwMO1zDd90dnbeBeDpAEodF0CNUamqqgr9hvs+CtNr0ktBFGEDi8ZEgANNZyCiXTp4hjfjc6ZDVLpsNrspnU5/Z9asWQcB+BSAe0xn8pEC+J2IzBeRAzKZzLmlcIIT0SgN1NbW3ms6xHYiEsjFQjlpa2s7EIDvS6BU9TrOvioeEflAAGV+bnoj7HFSAL8IoM57A6gxGtrf31+pWze8PmfOnEdMh9hBIDdVuE8KjdVBpgMQ0W6IXtyQbPjFqmRJbURaloZOxlkKYKlt20cCOAvAqQjmNCW//VFVl1mWdTMbVlQBfp9KpTabDrGdqnIG1igVCoX3iwRyWO+NQRSpFKp6rN81LMu6w+8afhOR5ar6LT9rqOo7GxoaakPUoH2txBuP47EymUx6pkPsgA0sCrWDTQcgot06tG5m3WcRzN04GiHXdR8HcLbjONeo6v0A9jKdaZS2APitiKwoFArLurq6njEdiChAD5oOMAwbWKP3ngBqPB6GTZXLzKE+j/96dXX1ap9r+C6dTj/mOM7zqnqAj2Wq6uvrjwDwkI81RqNSZ19BVdeYzjBMIK9JXEJIo6cQcAkhUfiJXsYTCcMnHo+/S1XvQmk0r14D0K2qSVX9aD6fn+a6blM6nb6azSuqNCISqqaE53mvmM5QakRkdgA1lvldo5Ikk0kLPt84V9U7U6lUwc8aAVHP81b4XkT1bX7XGIWKXUotIoGc+jdSQc0K5oUNjZpz/QkzBoEJpnMQ0R4oDpswq+ZkAP9rOgptY9t2G4BfApg0xiEGAQwAmFi0UNu8BOCf2HaCzBMA/uJ53qNsUo3ckUceqWvWhO1mKBWT53mhuliorq7emM9zlfgo+X7hraor/a5RSR5++OH9AdT6WcOyrPv8HD9gDwA4w88ClmW93c/xR+l10wFMCdtrUiQS2eh5/q9oZAOLRq0/Hz3ICmT7ACIaL1W5BIpbIKV5LHQ5sW37GwCuwNhnPz9QKBRO7e7ufjIWi9WIyF4islc0Gt1LVfdS1ckiUg+gTlVrsW2Pre2nNvVj2/K/ARFZB2C9qq4TkZcGBwefq+D9I4ommUx6tm0rth0zTkUiIqHp0IjIP0xn2NH69evfqK+vNx2jZCSTSWvNmjWH+VymUFtby052EanqWwMoU06n5fq+tC9kM7DWmw5gimVZoXpNGhwcfCMS8fuwUDawaAwiwMG8EiYqGUc0L2q2e9BTskdDl7pYLFZTVVW1RFVPG8cwV8+aNeuioQ3hMdRwegkVPHU+pPIAqkyHKCciMmg6w3b5fD5Ud/pXrVrVb9t2Af9qVNNuPPTQQ9MB1Plc5vEwbfRfDlT1EL9LDA4Ohukkt3Gpq6t7LJfLefBxqyBVneXX2GNQqQ2snOu6W0yH2JGqBpKHe2DRqKlYHzWdgYhGTixcYDpDpZo7d+6MSCRy9ziaV4Oqeobruudvb15RqIVmtlC5UNWwfN3ns9lsn+kQwyiAraZDlAoRmRFAjcf8rlFpRMTvZsnr2Wx2k881ApNKpbbC5820g/heGoUNpgMYEqobKgAQjUbfCKIOG1g0Yg3JhmisI7YI0AWmsxDRqHwwtij2QdMhKk1bW9vR+Xx+tYh8YIxDFETktEwmw+PYSwcbWEVmWVZYGljrgFAuxQ7kgqFM7Ot3AVX9u981Ko2qFnvPx+Ge83l8E/w+mS9MDaxQzUIK0DrTAYZzXXcrAN83wWIDi0akdWHrXnUza3vZvCIqUZZyFlaAHMdxPM/7PcZ3ctLp6XT6SVUgVgAAIABJREFU1iJFomCwgVVknueFpYEV1mUqXK42Qp7nTfe7hoj80+8aFcjvg6P8bvYETkT8/jPt7fP4I6aqA6YzGBLG1yRFAA1FNrBojxqva3yrF8n/DsDHTGchojFS2E1Lmo40HaMSOI5zgaouw9hPGgSAha7r3lSsTBSYcjiGPVTCMgNLRMLaKKrU2QdjEcQJ2i8EUKOiqOp4XktHYqPP4wdOVf1eElmVSCTCsvdepTawKvY1iZu4027FFsaOQ0E7Ea6pokQ0emJ51tfh89HKlSyRSFTncrnFqvqFcQ71Qm1t7YXFyESB87vZUnE3HvP5fChmtalqKPeaEpEB1TCubAwfVa0V8f2Q0LDtk1byLMua4OfXeFi/t8dDRLb6/XNh48aNtQjBEmbLsiq1gRXKr9sgXpMq7o0QjVysI/ZJWHo32LwiKhN6StPipjCdHFM2YrHY9FwudxeALxRhuCRPsSpNIuL3DKxQ3Xi0LMv395FVVVWhuDhR1ZzpDDujqpz1N3I1fhcox2aIaX7vgSUiofzeHo8gvg5FxPfvp5Go4CWEofxZE8RrEhtYtFOxRbFLAF0K/48bJqokz1he5FConCDAswbqV1uedaaBumWttbX1qGg0uhrAh4ow3Mb+/v5bijAOGaCqfs8WClUDS1V9z1MoFMKyhDCUFwvgstURsyzL969Xz/PC+nVSyvz+dyvHKYy+b6Q9YcIE36czjlClNrDC2nhlA4uClViaqG7paL4Rot8FEJYfTERlQdT7WtdZXc9kz8ze3Z8ffC+Ahw2EmN9wY0Nt4HXLlOM4zZZl/RbAW4s05MoVK1YYn5JPY8YGVpFVVVWFooGFCr5YKCP9fheIRqN871x8fu+pE4qZREXm+35vb7zxRih+JnIGVuiwgUXBaV3YutfmdX29WpwlMET0Zr/rPnNFZvv/3PWVu15HRBwAawPOMaMuV/fZgGuWJdu2z1fVDIApxRpTRO4v1lhkxP/P3p3Hx1WV/wP/PPfemUybpkBpWSooi4gK4ldaVrdoocmkudMWnaIIKiBNWr6C4q6I4xeXn7ihAl0QWb6CXxmg7dwkk4SCEVHWICCKuAAi0I0W2rTJJDP3Pr8/kmApaZtlzjl3Zp7369UXJW3O52nTJDPPnPMc1Q2siOL1x8RxHOUNrHw+Lw2sPZMG1igFQaB8uLDv+3JyofhUf9zK8UU95Q2sffbZJxRfEyu1gRXio6/SwBJ6xFfEjwws/z4AtaZrEaIcMXD1rm/LXpB9HkxnQ/f2dYsv1ppXZpLJZNR13V8A+D6Aot7CEwSB3GBV2lS/IhqqHVgo8r//kcRisbA0sML6JEkaWKNERDp2t+q46bDSqG5gqb7l0ATVf6Z8Op0Oxdcex3HC+rVZqRA37qSBJdSLL4u/G8z3AzjadC1ClCXGppppNbeP9EvZJdm7ibBScz3HxZfFP6g1s0zE4/EZ/f39awGcqyhC+Q4BoZTSq8uJKFQ7sAqFgvIGVi6XC0UDi5mVz5QZp1A8iSwRyhtYRLSv6owKpPT7IjOX4+U2b1C8/mbF649aiBs5qlXs9yRpYFW4+uX1HwXxWgDTTdciRNkirEovSu/2Gyz30xcB2qCzJNmFNXbDw9qZ+b2qMizLmqFqbaGF0gYWM4fqeJJt26p3hAWe54VizgcRVeyThXJBRDpeIHijhoxKo/TjRkSqmz0mqP4zbVK8/qgVCoVyHMK/V5X8PUkaWBWsYXndxQT8EuV59luI0CAEt+3p17MXZbcx8zd01QMAYDTWL6s/TGtmCRsa1v57FG9Y+4iYuRwfSFcMIlLawAIQtt0dqo9L9SAkN4QRUSjqGIHquWtlIwiCjaoziOhNqjMqkOoX+GYmk0nlu0l1qa2tdQCo3lWm/HNptIiobD52YxEEQcV+T5IGVgWatWJWJL6s/gYGXQn5NyCEYvzKBtrctbfflduQuw7ET2ooaJhFFn9KY17JSiQSCWZeA2Cqhrg6DRlCEWZW3cAq2oUBRVKjeP2titcfi7DudArrk5jQ8X3/GdUZzHyk6oxKw8zPKo6I5HK5oxRnaDN16tS3Q/28RN0XEO2WZVmhOlqvi2VZYd2Bpfx7kjQvKkziukTNATyjBYRPmK5FiEpAoLu7m7r3OsOlK9VVAFuX6ajpVUznzVoxqyK/8Y9WPB4/hJlvBBDVFHliY2Nj2TyQrkAVtQOLmVUPClb99zlqIZ6BJUYpm81uA7BFccyJitevOLZtP6s6g4j+S3WGLkEQzNIQ83cNGaMVtstNtKjk70nSwKogDVc3HJTPD3QBmGu6FiEqB9852t950vqT7gDwZ4XF7OrgGTzD1ZhXcmzb/j70Ng2IiK4GQBozRfH0KF6/JpVKhemxW8XswKrkJwtl5lnF6x/c2NgoR8GLKAiCZ6F4Vwczl00DC8DxqgOI6G+qM0YrbJeb6BLiGVjKhelBkFCo/pr6o2EHf4CGL2pCiP9gskbdwEqlUgFAV6isZ1cEataZV0pc130rES0yEH2667opA7ligohIdcPFevTRR3UcZR2timlghXgGlhgDInpaQ8a7VWdUEs/zeqF+aHit4vW1IaLTVWcwc2gaWJAdWBVHGlgVoH55/Slk4fesePiwEGJXtCHblP3nWN6jb33fLVD/CvFO+LT4irjM7BhZE8x9n7zMdd0VyWRS9REtUVyqd2CBmWeqzhgtIlI9kys0N11BZk2VBU1PvGVnc/GpPrJ2guu6JX8ju+u6hwM4WnFMIRaL6ZzZKsRrVGTHspI0LK+bz8AtUH9TkBBiV8QPjPVdulJdhfjy+NUAf19FSSMgcHABgC9ryisJQ7f4fNRwGYtzuVyisbHxW8x8S2tr68uG6xm1uXPnVkcikWhVVVWsv79/EjM7RDSW3TovA0BVVVXf9u3bt3V2du5QVGpRMbPyHUO+7x8G4C+qc0YjCIKZROpOuzKz6tvHROV5UENG4+LFiyMrV67c6/xLMWoPAVC5s81i5joANyvM0KFRdQARPZFOp/tU5wixO9LAKmPxZfHzGLwC8nEWwoyAxvVAuaqq6uf9/bkUgOriFrQ7dH78p/FvZC/K9uvJC7999tnnxCAIDjRdB4CDiOgqIvqx67pdRPSbIAj+GgTBn4lo0wknnLB18OjpfySTyX16e3stx3GmFAqFiOM4sUKhMMlxHAdADTMThuZ6MfNUIrKZeTKAqqEfkwHY+M+ti/ticCZXzVAjahIRxZg5AmAKBnepDe/E2Qc77VrL5/OwrPFvYsvn86iqqoLrur0A1jPzeiLaCOBZInrS9/0no9HoX1atWrV53CHFtV51ABEdpjpjDN6ocnHLskJzVbsoD0R0P7PyzXT7rl+/fi6AVtVBlYKIHlD9cSOis1D6DaxPqg5gHvuLs0IUkzQ2ylT98vrLAb7UdB1CVDTC4+N5t9Xnrn4lvrz+ZgCLi1zR7kxHFAsA/FpTXugxc9guu4gAOJ2ZTyci2LYNAOju7obrujkA/RhqIuVyOViWhSAIXvffkYzlScHwbhsNTwB3NRnAEUR0xPAbmBmWZaFQKMB13Q0A7iOiriAIumbPnv2nXRt7OhDRcxqeZB2mNGAMiOhQleszszSwRFFlMpkNrus+DeCIvf7mCWDmpZAGVtFYlnW/7/uqY+oSicTMTCbzouogFebNmzcLega469jFKMRuyQyscsOg+PL6nxIgzSshDCOLnhr3+5J1VTFr2RsGN+nMCztmPtV0DWMQw392QFWqAwEsYOYriejR7u7uja7r3pRIJOqHjoNqUVVVtQGA6mNDb1a8/qgM/b0epDhGjhAKFXTsIKlPJBKh+FwtB6tXr34W6ne42gDOV5yhjGVZ/60jh5nX6sgRYnekgVVOGFS/ov5nAD5tuhQhBPIbeMMz433ntqa2P5GeWR0AAAI+MO/qeW/TlVcCyulK7Uq0P4BzmDlbU1PzYiKRuGr+/PlvVx2aTqd9AEpfvWfmU1SuP1qTJ08+FoM7A5Xxff9ZleuLinWvhgyLmb+mIaeS3K86gJkvTiQSqm9XLbqhZunZGqKe9DzvOQ05QuyWNLDKRPLWpF2/sv5GAi40XYsQAgDwQndT94R2YjDRdcUqZjR82/+UzrywWrhw4QEAZpiuQxTNDGa+MAiCPyUSiTtc1z1Bcd6/Fa9/0IIFC4zfHOo4jupGGvf29soTJVF0zLwGem6V/LjrusqPdFUQHUcy9wegZSdTkX0dekYDdWjIEGKPpIFVBlKplLV9S8+NxDjHdC1CiGH8yoSX6Mf/AdB2+xoBn6i9vjamKy+sfN9XOphaGGMx80IAD7qu26bweI/qBhaCIHiP6oy90XDMdl1XV1dOcYaoQC0tLS9Azw5nC8AVGLwEQ0yQ4zgZAMoHYTHzl84444yDVecUSyKReDcz69h9BSLK6MgRYk+kgVXqGPTAQfctB/Ax06UIIXZGE25gZS/KbiMgXYxqRmn/WH/swxrzQomZDzFdg1AuzsyPu677tWQyGS3mwsysvIEFYL6GjN1KJpNTACQUx4z7CLYQo7BKU86cRCLRrClLmYaGhoMaGhqMHq1ftWrVRug5/rlPPp//sYacCUsmk1FmXgk9z+nXV1VV3aMhR4g9kgZWiYuvqL8CoAtM1yGEeJ2ibOVmi24oxjqjZem7+TC0mHmq6RqEFpMAfCuXyz3c2Nh4VLEWJaJ/FWut3WHmxoaGBtUD1Herv7//LABKP0+YedyXYAixN8x8h8as7xfza4xutbW1Mdu2V9u2fV8ikVhishYi0tV4PLOxsXGhpqxx6+/v/xYA5fMdh9w6NOdRCKOkgVXC4svrvgng86brEEKMgHj/YiyTvSB7D4B/FmOt0WDgvfXX1B+tKy+kJpsuQGj1DiJ6OJFIFGtH0Z+LtM6eRBzHOVdDzkiImZdqyNHx9ygqVEtLy98B/FFTXDURrU4mk6V4WyzV1NRcB+AkADFmvsZ13f+Lx+NGXugpFAqroWd+GYjo+jA3HhOJxBnMrPN54K80ZgmxW9LAKlH1y+vPB+gy03UIIXaD6c3JHyUnTXgdAgN0UxEqGj1Ly002oWVZVmC6BqHdVGa+w3Xdiya6kG3bj0HDEyxm/sLChQuL0igfC9d1zwbwTtU5tm0/rjpDVLyrNWa9PZfLpRcvXqz05s5ic133uwDO2uXNZzqO83AikXiX7nra2tr+RUSdmuL2IaLbTTXr9mT+/PnvYOYboG++2mOe5ym/BVKI0ZAGVgmKr4zHCVhuug4hxB5FeqdsLcqDOyrQjQC0NVWIcA64cofOMhdhAL8oRTaAnzQ2Nl4ykUVWr179CgAdt+ftVygULtWQ8yrXdScD+LaOrHw+/4SOHFG5YrHYLQC2aIw8fd26df9bIk0scl33JwC+tJtfP4qZ/2DoSOHPNGa9w7bt7NDcv1BobGw8KgiCDgA1ujKZWWezV4g9kgZWiam/pv44BHwr9FyVKoSYgICpoRjrtP13278A/KYYa40K403xa+Pv05YXPtLAqmBE9APXdT81wWV+X5Ri9u7CxsbGUzRlgYiuAHCohqjn2tra1mvIERUsnU73EdF1mmPPfPHFF2+Lx+NVmnNHrba21nFd91oAe9uRauRI4fHHH58F8A9deUR0al9f36q5c+dW68rcnUQicbRlWXcD0HlL4taBgYFbNOYJsUfSwCohC65fsC/ZuB1AaF4FEELsAVOyWEsR843FWms02NdzJXMYyQ6sikcAlruu+8HxLsDMXcUrZ48iRHSHjivfXdc9h5kvVJ0zRG66Elow8zIAWgdTE1HCcZy1iURips7c0YjH44dMnTr1bgDnj+HdznQc52FdtxSmUqkAeo9/gohOq6qq+sP8+fN1NPBHlEgk3s3M9+q+KZmZr+ns7NyhM1OIPZEGVqlgUH9/7iYw3my6FCHEqL2lYUXDScVYyLaitwPYVoy1RoMIyaLM8CpBvu+/aLoGYZwN4JfxeHzGeN6Zme8qcj17clA+n79j3rx5+6kKmDdvXh2AlarW3xUR/U5Xlqhsnuc9w8xpA9HvYeZHEonEBwxkj6ixsdF1HOdRZn7vON79KNu272tsbGwuemEjiMVi10PjY6Ihxw0dm9S6Qz2VSlmJROJiZr4bwHSd2QB6fd//seZMIfZIGlglon5l/ZcAuKbrKGcMfApM5zMhBfC1BLQC+BOAzYZLE6WMg/8uxjJek9fLjFuLsdYo7bN98vZi3cpWUrLZ7PPQOxdFhNPBjuPchHEMyW1tbX0awGPFL2m3TrYsq0vFTqxEInG2ZVkegFix196DuzVmiQpHRF8F0G8g+kBmvst13ZvG2ywvBtd13+i67k1EtAbARC6GiBHRskQicceCBQv2LVZ9I0mn01sBXKEyYyTMfAgz/8Z13R8NzQRUat68eUd0d3ffxcxXAoiqzhvBymw2u8lArhC7JXOUSkDd8rp3EuObpusod0TUlW3O/nOkX6u9vjZW1Vt1iBPhAwpM+9kBpgUW7QdgP2LaD+BJNDhM0QFjPwYisGgKmCdh8EH/8H+H7fr/okwxsKhuRd0XO5o61k10LQLdAPBEZ/OMIY/PAfBrXXkhcz+AoswwEyWtPpFInJvJZH4x1ndk5lVEpPy2vp0cl8/nH0kkEhdlMpkJ7yiZN2/efrZtf4eZm6DvpisAeCyTyWibbyOE53nPNDY2XktERXnBaYwIwDmO48Rd1/1OLBa7Np1Ob9cRnEgkZjLzJQA+jSI2R5h5oe/7xzY0NCxqa2t7tFjrjuDHAJYAeIPCjJFYAD4L4MzGxsbLZ86ced3KlSvzxQyIx+MzHMf5Kgb/fKbmpW2PRCLam4RC7I00sEIu/tN4FYhvAhvpuoshXed25TA4MFLJg+rkj5KTemO9rza0BvyBSVE7+ur/F5zCJKfA//l/0GQ4I39DswOmgKwRX/migKKwUM3gGDFNAoLJAKpAVjWYowTU8OBgyBkAjoQ02YohSkyfB/C5iS6Ubc7+Ib6i/m8A3jLxsvaOgbrEtXMOzFxw1wYdeWFCRJ3MLA0sAWa+fO7cub8e6wwQZr6diFKKytqdg5j5Vtd124joe5lMZsyzpJLJ5D79/f3nMPOlzHygiiL3hIhu150pRCQSubxQKHwCGm9228V0AD/K5XKXJhKJa4IguKmlpeXvxQ5JpVJWd3f3aQCamDkBdc8Fh48UfralpUXJzeme5/W6rvsNAD9Xsf4ozCSiZevWrftqIpH4RaFQuL6tre1fE1lw/vz5p/q+fz4RnQnA9ND4799xxx0TfvFViGKTBlbYRfA1MI4zXYZQK31Jug9A305vetlULcNqU7VO1UFVx9hM5zHh09D7CnxZIaA5ce2cKybcCCIwVvCNYNJyjT0Ap+A7HwHwE015oVEoFH5t2/YPIN8nBTAzGo1+HhjbTujW1tYnXNd9BMDxasraowZmbnBd9wlm/jWA+yzLejCTyfSM+JsbGt5iWdbJRPTBXC6XBKD8aMxuBL7v32woW1SwVatWbXRd9wcY4+e5AtOY+VIiujSRSHQDuJ2Zf1coFB7KZrPjOuZ4xhlnHDwwMHA6EZ3e3d19OgBdjekYES1zXbe2UCgszmazRZ9ZFYvFbsjlcp8BcGyx1x6DQ5n5G7Ztf9113UeJ6C4Av/V9/8nJkyf/K51Oj3hJQDKZnNTX1/cWAMcS0RwApwVBcChRKB5uv9Df3/9D00UIMRJ5YB5ic6+dezh8/oLpOoqHngO4G0R/R4BtQPAGEL0LwGyE4N8iEdmmawiTrlRXAYMzXC6Or4i/AcwfMl1TCZtcCCJfAnDJhFeyrJvg8/9gcMi0ckzWOajABlZbW9t613UzAM4wXYswj4i+sHDhwqtWrVo1ppmIzHwtES1TVdcoHEtExw7V4ruuuwWD8922YfDI0H4YnHlj+pX+Ya1D88OE0K6np+eKmpqajwB4m+laAICZZwGYBQCO4/S7rvs4M/8TwDOWZf0bQA+AfiJ6OQiCfZi52rKsamaeBuBwAEcDeGs+n59uuClypuM4x6s4UphOp/3GxsbPENGdMP9CqwXgeGY+HsAXLMtCLpcbcF33BQA7APQSkc3MUwBMyeVyMykk3aoRfEVuHhRhZbxpIHbPDuzvA1zKR7hyDHQAuI2i1JE9b+QhgIlr5xyY9yNfw+AZfJNMveIcfoSfgSENrAlgxtJ518y7qnXpxJ6cZS/IPh9fXn8XgLlFKm3PmGfVraw7pmNxx5+15IUIEX2TmRdALjwRQLXv+58EMKZXpC3LupmZr4C5Y0k7szF4PNzYsOi9sSzrp6ZrEJWrq6srN3/+/HODIPg9NL1INAZVAE4gohMAgJlf/YXhnxPRa94eMkfZtn1/IpH4UiaTKeqLYi0tLXclEolrmPnCYq5bJFEMNhMBIMwfn53d7XneL00XIcTuyIPykKpfUf+eEt3x4gPwiPhjkUj0gPbm9gXtze2/3F3zCgAyF9y1IdvcfhEDV2us83UYXPTbm8pF9oLsPQA2mq5jD3YACPujgiq2/P9XjIUYuKEY64yW7dPZOvPCIpPJPA7DX5dEeDDzklQqNabHTUNH9m5QU1F5IaJH16xZc5fpOkRlW7NmzQPMLEen1Khi5isbGxt/Vewb/Jj5iwCKPjOsAvXatr0Y4X9MLSqYNLDCivE10yWMDT0H0Ddg02HZ5vZEW1PHLZnzR561sTv5Qv4bAAYUFbh3Ad5sLDvsCMxAl+kyRsb3OBQ5AEzvBbDedDV7wsCH562ce+pE16nprVkNjXPSmPCxsT5xLxf9/f1fAfCE6TpEKBz50EMPnT7WdyoUClfA5Pe2EsHMKciTJhECvu9fBqDidh3rQkQHxWKxcc3z2h3P83oBnAcgKOa6Fegrq1evHvFGdiHCoiKfkIRd3Yq64wmoN13HKBQYWBMQN06ZNuWIbHP2f7IXZJ8f72J3/fddmwm4s5gFjgnxhBsL5cwC/8Z0DSMIrMA512vyerNLsr8H0XsAvGC6qD2gILCuqk3VTuj49uDQf76xWEWNwqH3H3T/BzTmhcbQDIgEQt4cFXpYlvXRsb5PNpt9HsBNCsopJ3/0PC9jugghACCbzfYHQfAJADnTtZSh9b7vf3R3g80nwvO8e4lIds+NX4vneT8zXYQQeyMNrBCyAutzpmvYi5cY+C5sOry9uX1BR1NHa3pRcb4RMeh3xVhnXAK8z1h2SbAfNl3BCO7ceaZUtin7Tw4wB6CJ3fan1rsmHxS7aKKL+MQroHG3AjHO0ZUVNp7nPUNEtUQ07ga9KBvxce5GvByvvWlW7MSyrC9Cdl+JEGltbe0GsMR0HWWmAOBjbW1tyl4Qqqqq+gqArKr1y9gLAM6FfB0WJUAaWCGz4PoF+4J4oek6duOPBD6vryp3aHtz+1cnsttqdywKHiz2mqNGmFl3dZ0cI9yN6t7qP2Nwxll4ELXv+qb2pe1PWeyfBuAlAxWNCgPfnHv13EMnskZnU+dfAejbFUc4o/bq2ina8kImk8k8lc/nj0doj9IKTQ54+OGHZ4/1nTzPe46IrlBRUKkjotvWrFmz1nQdQuzK87wbmPkq03WUCyL6rOd5d6vMSKfT/sDAwNkA/qEyp8z0W5a1yPO80D5uFmJn0sAKmf6B/kUAJpmuY2fEWMvAadnm9uPbmjuu7zq3S9mWagoif1O19mhYliW7sHYjfUm6j0I2IJOJfz/S21uXdD5BsOIYHO4eRlNsmyZ82xYTlhejmFGqmWRNGvPxqXKSzWY3HXzwwXOJ6DLITKOKRUTzxvN+Q7cR/rvI5ZS6Hcwc9l3nooLNnDnzEgC/NV1HGbguk8loaQZ2dHRsAeAC2KojrwxcsGbNmj+YLkKI0ZIGVtgEfJbpEoYwAXcQrBPalrSf3t7cruVmoJbmlhcB9OrI2o05BrNDj4nCNNQ0oBw9vrtfbGtue5gDnIWw7Rp7FS1oWF43fyIrbMKm1dA684sv0JcVTitXrsxnMpnLAbwTQIvpeoQR7x7PO3me10tE50OOaOzsc57nPWe6CCF2Z+XKlXkiOhPAs6ZrKWFrenp6mnUGep73VyL6GEL7GDA0vuN53v+aLkKIsZAGVojEfxqfCkIYBonfx4T3tTW3f6ituU3v3CMCAzB3+wXxvOStyaix/JAj5qf3/ru0eS57UXaPt9i0L23PEML76j6DfjaRY3ndTd15JvykmDXtEeGEuhV1x2vLCzHP8/7qeZ4L4BQAt2JwtoeoDO8a7ztmMpk7ASwrYi2lrNPzvJWmixBibzKZzAbbtk+DXOYxHnf39PR8pKurS/v3yEwm0wrgLMj35xEx8y88z7vUdB1CjJU0sEKEIzwHQMRgCf/mAPOzze2ntje132uqCMPH1PbZ/sp22YW1W2FqYNGo/p20NXf8BEBYb1U5dJI1KTWRBaifVgD8SpHq2SuLrYrfhbUzz/Pu9zzvTMuyjhg6IrbFdE1CuWkLFiw4bALv/wUAfylSLaXqBd/3PwHZjSZKxOrVq/9JRA2Qr/GjRkS/i8Vi87u61I0e2RvP825l5rMhTazXIKKbZs+efQHka7AoQdLAChMyd3yNgBvyVHhH+9J249dYM5HZwYtBENYh+sYFTM+YrmEno75EYMq0ms8CFM7jXsQXN6xs+K/xvnv2ouw2YtI4C4vPmnvT3Gp9eaVhzZo1/25paflSLBY7AMB7AfwUQJhvwxQTUCgUxr0Ly/O8XgCNCPFFE4rlmPkMlTeRCaFCJpP5o2VZ7wWwznQtJeDuqqqqhnQ6vd10IS0tLb8GcB7kOOGwG6uqqs5LpVKB6UKEGA9pYIUIASaO5gwA9Im25vZz1zatDcWwQ0JgeFA4zU/emrTN1hBOlm2FqIEVbBzt70wvSvuRSOQshHPXg8NBsCyVSo3767Hj5K8EoOtB4lS7z/64pqySk06nfc/z7vU87+Kenp5DgiCoh9Y5ZWOSB/DyXn7kjVUXYkT0tom8v+d5zxBRJR5tYWZK6FKKAAAgAElEQVT+VEtLi7kbh4WYgDVr1vwlCII5AP5lupYQuzUWi8XD0Lwa5nne/xLRJ1Hh39OY+QrP885Np9PSzBMlyzFdgBiUSqWsB3D/cZpjewKLz+hY3B6q66sD0F/JbAkHbH9l+3sgt868Dud4PUIyIYxAo25gAUDm/ExPw8qGhRz4DwC0r6q6xunkBw5+4FMAxjUPJnPBXRviK+quANP/FLmukTF/vjZVe21XSv9Mi1JSXV191NCNhW9QsHwBg0+g1gF4iZk3EdFGItoUBMFLzPwSM28gom2RSCTI5/NbAcC27UImk+kZa5jrupODIKgKgqDasqwoEdUQ0b4A9mPm/QDsZ1nWfsx8KIBDMPhnfiOAyUX7E4fLhD+mmUzmTtd1PwbgFgAV8aIJEX3B87ybTdchxES0trY+2dDQcLJt2xkAJ5iuJ0QYwBWzZs36ahh392QymV8mEokXmDkNYH/T9WjmE9HnPM/TNzdVCEWkgRUSD8588M0IoPNYjg+Lzgxb8woAIoj8tWD6BZIACyENrNfJXpTdFl9e3wdgkulaGDTm4zdti9v+Vrei7myLkUHYdqAyf3fusrmrO5d0jqkxN8xB9IcF5JugplmyqyMmH1y1CINPvMUuFi9eHFm3bt0XAXwdQFURlnwGwMMAHgHwGDP/Y+bMmc+uXLlS2xfKoWNvvRjclTVqiUTiQGY+hojeDuAYZn4ngNkwO+9xwpj5kGKs43nera7r1gC4FoDh126UuzSTyfzQdBFCFENbW9t613VrASwHcI7hcsKgh4jOz2Qyac/zTNeyW5lM5jfz5s070bKsDIBjTNejyWYAZ2UymU7ThQhRDNLAConADw4njQ9dmfGF9sXZrL7E0fOavJfiy+o3gTDDYBkLwfjs0K2I4rU2ADjMdBHEwY7xvF9HU0drfEVdSttupdGbZlv0XQDnj+edvSavt2FZ3cVMdFuR6xoRg74Exq/kc+S1XNc9fv369dcBGPdcMwwecWgD0ILBm9qeK0pxBmQymQ0Y/Jpx9/Db5s6dWz1p0qRTmPn9zDwfwDuMFThOlmUVrVHsed51ruv6GNyBWdKNvd0IiOjiTCZzlelChCimocb+xxOJxL3MfCVC8OKeIQ8T0UczmYzZGbaj1Nra+nQ8Hj/VcZxfAWgwXY9iDwH4cCk/jhBiV+HagVDBLIsP1ZVFwO/am9uv1JU3HkT4q9kK+I0NKxtONFtDWHEoBlP7FsZ9q012cce3AF5dzHqKgukT9dfUj/socduSjtsBur6YJe0W47i6lXXl/sBv1Gpra2Ou634XwAPMPN7m1QCAb/u+/0bP8xZ4nvfzcnzQ2dnZuWPNmjVrM5nM1z3POw7AsQC+jRIajMzMM4u5nud5N1iW1QAgFLMoi6iXmc+U5pUoZ5lMZiURvQvA/aZr0SzPzN+NxWLvLpXm1bBsNrvN87xGImqCvhmiOhUAfC8Wi72nHB9HiMomDayQYIauBtYAg5rDvmuCwd3Ga2D/I6ZrCCUOxxXSxDT+a5kJHIlUfRzETxaxpGKwycIVE1mgz++7CKAnilXQnlhMX9aRE3bz588/taam5hEAX8b4dzY/BuAUz/MurbTb2TzP+7PneZfGYrHDhp5M/Nt0TaNQU+wF16xZsxbAuwFo+fzV4B9EdEpLS4uWXaFCmJTJZJ6KxWLvAfBZlF8jeiQPMvMJLS0tX02n0wOmixkn3qn5eK/pYoroCSI6xfO8L5fwx0aI3ZIGVkgQaLqeJL4x25wN401sr8FM95iuAUyLJnIzXLliojEPgFZhQg0sDA51Z58WInwPNOviK+Jzx/vOXRd2bS/kC3UAni1eSbv1nvjK+Ps15IRSIpGoSSQSVwVB8DsA472Vjonosp6entme5z1SzPpKTTqdHshkMit7enreAuCHAEI3BHgnSo4KeZ73556enhOY+Sog3C807QkR3RyLxWZnMpnHTdcihC5Dt9Be6fv+WwFcD6DsbnojoueZ+bxZs2ad0tLS8pjpeoohk8n8Y9asWe/HYPMxFI9xx2kLEX26p6fnXZlM5mHTxQihijw5DwkGT9EQUwBZ39OQM2FURffC9IN3wsyHDr6vYp+c744Vkm/ugRX0TXSN9qXtT3GAjyN8T5S/Ax7/QOc7P33ni4HPp0NHE8vnbyrPCKFEIlHPzH9i5gsx/u+lA8x8TiaTubyrS250HNbV1ZXzPO/zQRDUAnjRdD27YS9evFjJvKqurq5cS0vLp5n5gxjcmVdKng6CoD6TyZydTqfD9uKAEFq0tbWt9zzvvCAI3gHgVoTvMcZ4bATwFWY+uqWl5fow3jI4EalUKvA870oARxDRj4Dxj6kwoBfAjwcGBo7KZDJXyeMJUe6kgRUWZKm/gZBwW7Yp+0/lOUWQPS+7CYDx410B46OmawgdwjbTJQCAxVZRHly0L23PEOPyYqxVNMyzGpbPnTeRJTou7PhHQHwqqX4CTHh/fFn8g0ozQmTBggX7uq67gpnbALxpAkvtALCgpaXl5iKVVnZaW1t/Z9v2uwE8bbqWkaxfvz6mcv2WlpauWCw2C0AzwtvIG7YBwGd7enqOaW1t7TBdjBBh0Nra+qTneWcy81sBLMNgo6HU/IOIlsZiscM8z/t/Q4Pry5bneS9lMpnPFQqFozB4sYbha9H3qAfA9xzHOdzzvEs6OjpCMeJDCNWkgRUWQTBZdQRx8AvVGUV2l+kCADpj1opZ5Xgr1LgFjHHd/ldsVlCcBhYAnLjh5P8BEK57n8n6+kSX6GjqWMcD9D4G1hSjpN0i/qrS9UOisbHxw77vPwlgMTD+HXIYHNY+z/O8UN4EGyarV69+FsAHMNggCZV8Pq+0gQW8eiRpRSwWO5yIPomQzccior8B+Gx/f/+Rnudd2dXVVUq7FoTQoqWl5e+e5y2NxWIzh+b8hX3Ye46IbgYwx/O8t2QymWXpdHrCu95LSTabfd7zvKZCoXAEEV0GPWMZRusxABcWCoVDPM/78qpVqzaaLkgIncY7bFaUHHruxPWn3tWGTtOFjBrBuo0RfNpwGftPx/S5AFoN1xEaFsPniTx1L5KCXSjag6lUKhWctuK0cyLsPAjgLcVadyIYODG+Mh7PLs5OqMmRvSi7DYyF8ZV1l4LpGwDsIpW4szl1y+ve2dHcUWrHnUYlkUgcCOAqZv5wkZa8yPO83xZprbLned5ziUTio8y8FiF64a2qqkrbK/NDg3hvBHDT/PnzT2Hms5h5EYAZumrYycsAWpj5Rs/z7obp4/7/8V0iukHV4kEQ/E3V2hNBRN8D8L+q1mfmMc/SIaKHACxSUM6rqqqqSu6yi6FjtSsBrFywYMFhvu8vBDAfwEkAlDfE92IbM7cR0SoiymYymVCMizAtm80+D+DyVCr17UceeWQOM58PYB4AHaNfdvY0Ed0eBMFtLS0tD2rOnhBmvsCyLJX/vkM5a9GyrC8x836q1mfmP6laeyKY+auWZU1TtT4RdYfgaagAgPjyuAdwo6r1mfHz9iXtF6haX4VUKmU9cND9LwA4yHApN2eb2882XENoxJfHLwPMzz2yAnta69LWl4u5Znx5/O0A3w8FN4yND9+Tbe4o2hy2eSvnnhoE9g0AH1WsNf+Dlmebs0uKv65R5LruJwD8CECxHoT80PO8zxdprYriuu6PAXzGdB07qTZ5nKa2ttaZOnXqqQA+yMwfwOCT4CoFUXkA3QB+T0QdBx10UNfKlSvDfKxGiJISj8erIpHIbGZ+D4D3ADgVgLIngEPWA/gjgHssy/rN1q1bu2V20ugkk8lof3//ycx8GoDTAZyA4r84uIWZ77Us655CoXBXW1vbo0VeX4iSJQ2skKhfXr+aBl+FUYKBC9ub269Rtb4qDcvrr2ZgqeEyehyKHOQ1lfe5/9GqX15/KcH8zCiHItUqPibx5XEX4NUIyU4PKwhmty7t7C7Weu4Kd7If5L/IhM+hqK8g0nPZ5uxEZkKFytCr4ysAjPtGyBHcF4vF3ptOp8vuZiodXNedjsF5WKFoMMdiMSdMH8tkMhnt6+t7G4BjiegdAA4HMBPAwUP/3dPNiX0YPKa5DsAGZv6bZVlPEdGfo9Ho45V2fEgIk1KplPXggw8e6jjOEQAOZ+YjAAz/mAFgMgZ3bO27h2V6ALwEYBMGP6+fJqKnfd//OzM/1tbWVnI72MIqHo9PjUajb2PmtwZBcDQRHY3B3fz7YPBx1u5eANsB4HkAG4jo30EQ/NWyrL8EQfCn2bNn/7PcBuULUSzSwAqJ+PL6NIBiHU95ncDi0zsWd6xVtb4qddfUvdey6B7TdTBhUXtTe9p0HWEQXxb/Goi/ZbqOKdNqnPQiNU8e4yvqPgemH6hYexyU7ABMXDvnwAE/cjGBzgP4wGKsOaW3ZnL6ktJ+optKpazu7u4LAXwHxT0ikA+C4PjW1tZQzTAqNa7rfhtAGGau5T3Pi5ouYqxc150cBEFVNBq1BgYGgsmTJwdyW6AQpau2tjZWXV09afhz2rbtghz/C5+5c+dWE1GV4zg8efLkfDqd3m66JiFKlTSwQiK+ou46MJ2nan0GTmtvbg/BUPSxi6+ofwyM4wyXsSrb3H6G4RpCIb4s/u0QDO0uZJvblQ7Xb1he/3MGzleZMUp5m53DW5a0vKBi8VkrZkVm8IzTLUYdE+YAOBrjmY9I+L9sU3tJ39q5YMGCI33f/zmAWgXLf8fzvK8pWLeiDO2MexrmH7+s9zzvYMM1CCGEEEJUFBniHhaMbSqXJyIVg5v1COgqEK80XEX8tBWn7bO2aa28Uk0chuM7/aoDNtCmJQfwjCOhppkxFhEffhOAy1Qs3t3UnQfQNvQDyVuT0R0v7ziamQ8jBNMDounEvD8AEMgKAJvAg/NvGFvYog0WWfe1LW4L5YDj0aitrXVqamq+6Pv+16FmkO4zsVjM+K7FcrB69epnXdftBjDbcCmbDecLIYQQQlQcaWCFh9IGFgIconR9hRzLubnA+e+heEOUxyPmwFmAwVugKhxNCcGlU8obWN1N3fm6n9d9yCpY96sZej4GxOclb01+U9WRyZ2lF6UHAPxp6EfZG5qrdDuA96nKIKLvywyholoF8w2slwznCyGEEEJUnFAMKRYAM72idH3iY1Sur5LX5PWC6FrTdYDxEdMlhAGDVd+MMxpamgEdn+rYwgG7GLw23qQ3bN+yvcFwDWVn4cKFBwC4HwqbVwDWb9u27XqF61ccIrrPdA0ANpouQAghhBCi0kgDKyQssNJXcwko2QYWADhwvo/BG1WMIWDOnKvm7G+yhjAgcAhumuNNupLal7Y/BYsWAsjpyhwR8aeM5peZxYsXRwqFwq0AjlQc9ZOuri6z/3bKTFVV1SMwvA2UmZ8xmS+EEEIIUYmkgRUWBNVPyE+ZtWKW0qHXKnlN3ksA/9hwGZFoJPohwzWEwWGmCwDoRZ1p2cXZ3wJ0DgBzVxozGhqubjjIWH6ZWbdu3dcBvF9xTM627eWKMyrO0K15TxsuQxpYQgghhBCaSQMrNGzV8zSmTvenn6w4Q6k8+T8CsMVoEcyLjOYbtuD6BfsCtK/pOsD0pO7IbHP2NiZ8VnfuThy2OWkwv2wsWLDgSABfUJ3DzJ2rV69Wejy8gj1nMpyITDfQhBBCCCEqjjSwwqKgfAcWLMsq6d1DgzcA0ncNl1GbuHbOgYZrMGYgP3CY6RoAABbuNRHb3tT+UxBdYSJ7EH/UXHb58H3/u1Bz2+BrENEq1RmVikjvLswR/N1wvhBCCCFExZEGVkgUphbU32jEfFYpHyMEgI208ScA/mywBLsQOB82mG8UMx9mugYAmx04nabCs4uzXybgl4biT5577dzDDWWXhQULFhwG4AwNUfmBgYGMhpyKFATBCwbjt3qe96zBfCGEEEKIiiQNrJDo/HjnDgA7lIYQZhzAB+h44qZMd1N3ngnNMDnAl+lMY9nmHWa6AAK+4zV5vQYL4A206TyAV5tIt327oo+xTlQQBJ8GYGuI+kNHR4fZI89ljIi2Gsx+HIaHyAshhBBCVCJpYIUIAf9WnxJ8GQxSn6NOe1P7vSA2di09A++OXxs/xFS+UWy8gdV54vqTrzRcA7qbuvNTpk09EwQDO2x4gf7M8pBMJm1mPktT3MOacioSMxu72TEIgsdMZQshhBBCVDJpYIUIA/9Sn0L/VbeyrkF9jloD+cIXAWw0FG9xoTKHaTMMHiEkPI4BSqZSKXM3Ae4kvSg9MGW/miQBrZqjT5TbCMenr6/vvQB0/d09oimnIlmWNWAw/n6D2UIIIYQQFUsaWKHCWm5Vspi+piNHpbv++67NxMH5MHSMg4gr8hghgd9kKHq9g4KbvSi7zVD+iNKL0gM8QB8C0KYx1grsYJ7GvHKibfeaZVmP6sqqREEQ9JvKtm37HlPZQgghhBCVTBpYIcIgXdeCnzJvRd0HNGUp07aks4WAZWbS6cT6ZfWHmck26jADmTkEtNBrWqvr82NMshdl+6dMq1nIwBpdmURI6MoqJ0T0Xk1RuWg0+pSmrIpERNWGop9Zs2aNhuP+QgghhBBiV9LAChECabuWO2D6QfLWpI5BxkpV99Z8HsBfDEQTUWUNc4//Ij4DoH115xLx+dml2VAf2UkvSg9sok1JAtJaAhkfLPUbRXVLJpNTABynI4uIXkqn076OrAo21VBul6FcIYQQQoiKJw2sMCGtQ3+P79nS06QxT4n0Jek+sqyPATBwnIQr6ja4IBe8VXcmAb9qa+q4RXfueHQ3deerp9V8lIA7NMRNmYEZJ2nIKRu5XG4WAEdHFjO/oiOnwhlpYDGzzuPCQgghhBBiJ9LACpHs4uzTAF7SlUfAFQ0rG96iK0+VtsVtjwK02ED08fEV8SMN5Bph2dbbNEe+VODgM5ozJyS9KO1X99acDQ1Dnq0Ap6nOKCdEdLTGOGlgKcbM+xmI7bcsq8NArhBCCCGEgDSwwoXAYH5IY2I1B8GvEtclajRmKpFtzt4E0HLtwYyF2jMNIbDWHVhEfHHnkk5TN02OW/qSdF9AfAYUz7RjwhyV65ebIAh0Nptf1phVkSzLOkp3JhF1ZTKZHt25QgghhBBikDSwwqdLc97x+fxAZ8OKhpI/jjRl2pSLmfEHvan8Ib155nCgsYHFnC2Vo4Mj6WjqWAfGWQAChTEnuSvcyQrXLytEdLiuLGY2cjtqJWHmt+vODILgdt2ZQgghhBDiP6SBFTaWdTsA3U9+TmYO7q9fXp+de+1cbU/yii29KD3AFn8YjBc1xp4UvzZ+iMY8Y4hIVwMrCAhf0ZSlTHZJ9vcAfq4wIjLgD8xSuH5Z0XnkjIhKfldrmJ1xxhkHA9hfc2zOcRw9lzQIIYQQQogRSQMrZLJN2X8CuNtENgH1tm89Gl8eL9nb9TqaOtYRWR8FoOsGMOKAz9CUZYy7wp3MwJt0ZDFwW0dzx2M6slSzAvvLAG1QtT7ZdLKqtcsNEVVrzDJ1Q15FyOfz79CdSUQtq1evltlmQgghhBAGSQMrhAj8A4PxUwH+v/jy+LLa62tjBusYt7bmtnsA+h9decTlf4zQJ/8t0PP1wrd9O6UhR4vWpa0vg/EzVesT4xRVa5chbQ0sZt5HV1YlIiLtFxgw8426M4UQQgghxGtJAyuE2po72mFoF9Z/cPOk/qr76q6ue7PZOsZnyrQp3wbjt3rS6N2Ja+ccqCfLjCAItNxAyIRbWi9sfVJHli4U0HUA8oqWlx1Yo1fQmPWmZDIZ1ZhXUZi5QXPks7FYLKs5UwghhBBC7EIaWCFlw28G0Gu2Cvovy6YH6pfV15qtY+zSi9K+HwTnQM/foV3wnbK+jVDXDYR2EFyhI0entgvb1hOwWtHyB5d787SItmnMiuRyOe235FWC+fPnHwrgGJ2ZzPyzdDqt61i6EEIIIYTYDWlghVRL851/Z8JS03UAmEaEjobldeeaLmSsOi/s/DeIf6wljKmsjxEydAxw53tal3Q+oT5Hv4CgbPhzwbePU7V2OWFmnQ0sMPOxOvMqRRAEul8s2MHM12vOFEIIIYQQI5AGVoi1N7XfCKbLTdcBIMqgXzQsr2s2XciY9VtXgLFJdQwTaudcNUf3rVjaEKD8CCGDlqvOMIXB9ypbm0gaWKNARFs1552gM6+CLNact7y1tfVlzZlCCCGEEGIE0sAKuWxz9hsAbjZdBwAw6Kf119QfbbqOschelN0G0tIEdKJ2dL6GHO2StyZtAKqPQ22smVZzu+IMYzqaOtYB+KeSxRnSwBqdHs15uuc0lT3Xdd8PvccHe4no+xrzhBBCCCHEHkgDK+wIPGVazXkE3GG6FAARIj7ddBFj5U/2fwENT16J+AzVGSb0bXnlCABKb6Rk4Lr0ovSAygzjGIp2YdHb1axbdv6tOe9tCxYsOFJzZrlbojnvmkwms0FzphBCCCGE2A1pYJWA9KL0QO/63JlM+F/TtTDR06ZrGKvOj3fuYMavVecwMCdxXaJGdY5uPjnKdzxYlnWD6gzTiPCUoqWlSTIKRPQn3Zm+77u6M8uV67pvBaBz1uArhUKh7C6VEEIIIYQoZdLAKhFdqa7CyetO/iSYl5mrgl+pmVaz1lz++Nl2oGMIb2ygMFCvIUevQO2RHQIea1vc9jeVGaFA/C9FK+9X9/O6aYrWLhuFQsHEBQFLU6mUfJ8tAmb+HgBHVx4RfSubzSqfnyiEEEIIIUZPHliXkFQqFWSbOy5k4FtGCiBrZake82pd3PkHqJpBtBMKaIHqDN2IWGkDi5mU3dAXJgHoOWWL5/FmZWuXiba2tucAvKI59qiHHnqo5I5dh00ikXgfESU0Rj6dz+ev0pgnhBBCCCFGQRpYpYbA7c3tXwfT+QDyGpN3+IH/Q415xUf8W/UZQUPy1mRUeY5GTIp3YNkV0sAqBKp2YMEi63BVa5cRBvBn3aGWZV2sO7Oc1NbWOsz8Y52ZRHRRNpvt15kphBBCCCH2ThpYJSq7JPsLEDUC2KYjj4Gfdi7p3KgjS5nA+r36ENp3+8vba9Xn6FGbqnXAUHbzZMUcHwQwsGlgHQabKEVH4DeoWLfcMLOGrwGvE08kErILa5xqamq+DuB4XXlEdHMmk2nVlSeEEEIIIUZPGlglLNuU7eQA7wXwvOKo53N+7juKM5QjmxTdAreLICibY4TRg6NvBlClav0AuE3V2mHTleoqAOhTtPxBitYtK0R0l4lcZv5xbW2ttvlN5SKRSMwG8BWNkS/Ztn2JxjwhhBBCCDEG0sAqce1L2x8v5P2TCHhQXQp9vuvCru3q1tej7YK2vwPoUR5ElACDlOdoYLH1dpXr20GQVbl++JCqf38HK1q3rPT09NwDHV8DXu+YmpqaxQZyS1Y8Hp/KzLcAiOjKZOYlq1atKu2dxkIIIYQQZUwaWGXgzk/f+WJvVe79BPyy2GsTcEe2OfvrYq9rBIEBrNOQ9Ia65XUnaMhRTvEA980nbDz1jwrXDyFW0ghmaWCNSldXV46IMobif5hIJI4zlF1SFi9eHHEcJw3gKI2xK1taWipmR6gQQgghRCmSBlaZ6Dq3K9fW3H4OgT8DwC/SshsLHCwp0lohwet1pBCVx22EzHSssrWBu1KpVKBq/TAiQNVOxv0UrVt2giC4xVB0jJlvdl13sqH8kvHiiy8uBzBXY+STAD6rMU8IIYQQQoyDNLDKTFtzx08C4vkAtk5wKZ8QnF3yg9t3wSBNDSwuiwYWgZQdITQ1j8gkVnV8jTBVybplaPbs2e1EZOrigGOJaCVQHkeMVUgkEikiOk9jZA+ApOd5vRozhRBCCCHEOEgDqwx1NHW0kmWdCPCj412DCZe2NXfeWcy6woCAV7QEMb2tfln9YVqyFJm1YlYE4LeoWt/yrbWq1g4rBvJqFqYaJeuWoVQqFTDzT0zlM/PHXNe9ylR+mCUSiRQzf0NjJDPzeZ7n/VljphBCCCGEGCdpYJWptsVtf+ur6j8FzMvG+r4E/Kp9cfv3VNRlHsc05bxSs3/Ni3qy1DiADzgKQFTR8k+3Lm19WtHaoWVx0Y737oJlB9bY3ABgi8H8pa7rftNgfqikUinLdd2rNTevwMyXydwrIYQQQojSIQ2sMtZ1blcuu6RjKRMWAdg2ynfrrJ5W88mhgedlh0FaGlhM5KUXpQd0ZKnCSge402/VrR1eTKoaWJhULjdf6jB0XGy54TIuc133J8lk0jZch1HJZHJKd3f3LQCWao7+eUtLy7c1ZwohhBBCiAmQBlYFaG9qT/t28F/E2OORLWKs9ScHZ5R642VPiKClgWUx364jRynG0cqWZn5A1dohp6qBhWQ6KV/Px6BQKHwPem4l3ZOL+vv7W+PxeEXuoEskEkfncrn7AJypOdrr6elZApTnCzVCCCGEEOVKnvBUiM4LOp9pa26fy4xzMdLRGaZbqvevmdf58c4d+qvTiLUMu95e3Tu1U0OOUgRWdoW9ZVvSwCqyp19+Wr6ej0E2m90G4Eum62DmOsdxfjdv3jxlN36GUWNj48eY+WEAuv/cv+np6VnU1dVV0JwrhBBCCCEmSI6cVKC5y+Ye4MD6GhM+QcA6EF/e1tQxoavlmZm6urqGj8I4mzZtokmTJlEQBK8ejwmCwJ40adKrT7J7e3ud6upqAEAulyPLspzhX/N934pEItZO69u+77/mCfrOv39n+XzesSzrdf+2gyCwrtvw8zsDCmaM9885GpNp0l0fnrroshHyi/aEKQiCguM4r9s9wMx+EASveXs+nwcRBcz8uuZJEAQcjUZ9AOjv7wcARKNR37bt4Fc9t9zhwz++WDXvZEff+ty+XanKewIZX163CiA1N1QOUCx7UbZfydrli1zXvRtArelCAPQD+MasWbO+n0qlAtPFqJJIJGYy808BfMhA/D2xWGxeOp3ebiBbCCGEEEJMkDSwysBw82jTpk3WIYccYkejUcrlcnZfX5/l+77tOA75vm9Ho1ErCAKCjXEAABTlSURBVAK7UChYjuNYfdxnOwXHchzH8n3fsm3b6u/vt6PRKAA4+Xwetm1bzGwDABE5wGAjaPhttm3bQRCM+t9RoVD8nsVo19w8sHny7S/ftgaK/92/KXLY5e+f/P6izXjy/eJv2hnN39mtfb++nYn3KXZ2lKKPu3biEiIKfN8PAMD3/YJt2xwEAQ832izLKgRBwLZtv+5tzOz7vs+WZRV83+cgCPxIJMKO4xQKhQJHIpECAPT29haqq6t569atBQB417velf/tb3+LVCplpHnWsLz+dgbOULK4NLDGZf78+e8IgqAbQMR0LQBARL9j5s94nveI6VqKKZlM2rlc7tMALgcwxUAJd8ZisfnpdLrPQLYQQgghhCgCaWBpdOutt9rHHHOMvXXrVjsIAoeZnUKhYEejUYuZnXw+bw3tWHKGdiDZzGzbtm0Nv22oceQMN5Fs27aJiIDiN4dMNU5UrfnwjoePfmR799VFL2AnRNQ/f+qCD03F1Fyx1jTxcdgSbJly50Dn6qIHA9iH9v31afZp146lnrEazXpEFAw10QpEFARB4FuW9erPmdknomDnt9m2XbAsKwiCwPd938/n8/7UqVP9rVu3Fqqrqwvr1q3z97R7Jr4ifhuYVew88bPN7SPuSBR757ruZwD82HQdOwmI6Jf5fP5r2Wz2edPFTEQqlbK6u7s/AuDrAN5qqIzbe3p6zu7q6ira12UhhBBCCKGfPOEZhVQqZSWTSef555+P7L///o7v+w4zO8NNKAw2lGzHceyBgQEHgGPbtp3P5x3btu1CoeAAcBzHwebNmwG89gn28NEtABjqRcFxHDAPngTbuYEx/Ou2rf7iKtu2lTRPTNlc2Pwm1RmTadJDxWxemfJC8MIbVK29L6b+VdXaY8HMFjNbwzsLLcsafjuI6NXPNWZ+zefizp8TkUgEfX19iEajyOfzmD59On72s58xERWIqMDMvmVZhaGjnf5avnPKAJTckdCrYtFK4XnelY2NjScR0UdM1zLEYuaPO46TTCQSNwK4MpPJPGW6qLFIJpN2f39/sru7++sA3m6qDma+avbs2ReX87FMIYQQQohKUVENrIcffjiCwWMir/7I5XKRqqoqp7+/PwLAiUQiTj6fj2Cw4eQUCoWIZVnW5s2bMWnSJPT27v554tCsIQBAEASvNpkcp6L+mkNrS37LcaozZjgH/k51hg49vFVZA+sga+Y/VK0dBkM7IiPMHAEGvxYMvR022zEV+16JqPdHP/rRpEMOOWRg0aJF5dN11mhgYOBTVVVVx0L/UPE9mcTMzQAWu66bJaKrtm3btjbMA8jj8fghkUjkU/39/ecz8yEGS/GZ+SstLS3fb2lpMViGEEIIIYQolpLtrDAz/eMf/4hu3ry5ynGcKIYaUgMDA1EiihDRq02q4Z8PDAy87qmjZVnI5/Ov7r7wff/VnwdB8OrPRenrDXbMUrk+gfpnVc+6D2XwOv927lXyxJNAuTfab1w/3NQRxWHDLkSj0VM3btyIq6++OgCQZ+b88H9t2x7Y+W1VVVUD/f39A5s2bRpIpVJKtoSVms7Ozh0NDQ0fsm37DwD2N13PLiwA85h5Xk1NzSbXddNE9Ovjjz/+3jDsLFq4cOH+vu/HmflMAPHhGYkGbQmC4KzW1tYOw3UIIYQQQogiCl0Di5ntxx9/PLZt27ZoVVVVlWVZUSKK+r5fRUTR4R8PPfRQFBhsQO38ZLhUdjs5jqNkHpQY2Z92/OlNPvtKbx+stqvv3cfap7dQvMsGjRngfiU7sCIUeXbXWxJVCOvnl6o/OLH1yqsZzBaAqqEfICLs2jDM5QZPuQ4febQsa8D3/YFoNNrv+/4AEfVHIpGBQqEwkMvlBpi5f9u2bf1haJao1NbW9reGhobTbNtei/A1sYbNALCUmZd2d3dvcl23i4h+w8y/8TxPy/HcxYsXR1544YXjLMs6DUBjoVA4BYDpphUAgIge9X3/Q62trU+brkUIIYQQQhSX9m4PMztPPfXUpP7+/kn9/f1Vtm1XMfMkZp401JiqchwHVVVVAPCaJ147z6IRYiz+1f+s0t1XAHCI84a1qjN0yWNgpop1o6h6VsW6pYJIzf48G9bL431fIiJmrrIsq6pQKNQAg19rh2fzRSKDl/NNnz4d11xzTaFQKPRFo9H+fD7fT0R9tm33DTe5LrnkkhzU9em0aGtrezSRSJzOzGsBTDNdz17MAJBk5iQAuK77EoDHATzBzE8AeALAc9u3b98wnmOHqVTKeuSRRw4CcHgQBEcS0SwAJ6xbt+5dlmXFivjnKAYG8LNt27Z9SYa1CyGEEEKUp6I3sJiZuru7JwGYPPyDmSc5jjM5CIKqP/7xj68e4xveLTU8NwqAHNkTSmzxXz5J5foWrC0nVJ/UrTJDpwL7SnZgTabYsyrWLRU2LCXH9RxExt3AGosgCBzLsmoKhULN8Ndt3/dfbXJdffXVATPnHMfpBdDLzL19fX1927Zt602lUiXTVMhkMn+cN2/eXMuy7gSwn+l6xmA6gA8C+ODO31dramoC13U3AFjHzFssy+ph5gKAbQCGZ6ZNxuCuvX0BRAG8obu7+41DP3/N9+kQ2sjM57a0tLSZLkQIIYQQQqgz7gYWM1NXV1d1dXX1lCAIaizLqnYcZ9IjjzwyybKs1z3SHb7ZSwjdNg5srOkPcu9UmbGPve9dEYqo2V2j+TbIXuqNBghqVKw9BVOfVbFuyQgwAAU9egeOlgbW3gwdX5xcKBQmD78tGo1i+vTpWLZsme/7fh8z99q2vaNQKPTU1NT0nHvuuaFsbLW2tnY3NDSc/P/bu7vYqq7sDuD/tfc+H77YvoDxBwQ1DEMTommnaROlaZJKSStF4gFDNCIPo75U0dQjdUQlVKlq+1BLbdW3tkqUVGUe+qHOC1Ybgl27aqeNSRUiJhARmEmjkI+Jho8w4Ivta997vvZeffA1YgYCGN9zz732+kkWYPmus66Pj8Ve2mttrfVRAI8Unc8qKQBbAWwlorW2k3ksy7Lfn5qaulp0IkIIIYQQIl/3VMBiZjp58mRPGIY9WZb1OOd6Tp8+3V0ul29ZikmRSrSbM4vvPcngXNtlvxp+dc20D17lq5uBPM7KA7bS1h/nEbdTEOWzA8t33k/ziNtM1loNoJuIupcPyFhcXMRrr72WEdF8kiQLxpiqMWZ+ZGTky497baHJycmP9uzZ86Qx5p8B7Cs6H/EzLjHzdyYmJl4vOhEhhBBCCNEaX7qon5ycDAYGBjYD2PLuu+9u9n3fLC86pM1PdJJr2czTecb3yPv06+HXP8nzGq00l1ZyGV6tSFWHaOhaHrE7hSaVy26jDdx9JY+4reCcMwA2a603MzPSNMXLL7+cENFslmXXSqXStZGRkbSo/KampuYPHDjwjSiK/gLAHyGn4q64ZxGAvw7D8K/GxsYWik5GCCGEEEK0zs8UsE6cONHl+/42pdQAluZhAJC5VKJ5Wn06XDWpBotu8fE8r9Hn9f1XnvFbrebquQyuNuytmSLf/dJs5vIof5RV+Qpa12WaO6WUD2DA87wB5xy/+uqrVd/3L1+8ePGL0dHRlh8vOTY2ZgH88d69e98mor9j5u2tzkEAAP4NwB+Oj49/VnQiQgghhBCi9QywtNtqy5Ytu7TWgyQ9gGINOR2ffpzBeZ6Wlf5K+OiaKmDVVbwlj2JICV0fNT9qZym5rkszurkxGcyDGGz7FsL7Za0lAL1xHPcODg7ueuWVVz6fmZn5fHR0NJeZc3cyPj4+sWfPnreMMX8O4DtAHhPNxG28DeBPx8fHjxediBBCCCGEKI45cuSI39/f/7jWut2OxBZi1b6ILz+VZ/xe3fs/D3gPzOZ5jVZLOMllB1Y3ej7MI24nKWPTxZ/gQlNjaugZY03LdyUVwVqriWhnf39/GcCZInKYmpqaB/AHw8PD/wrgu8z8UBF5rBPHAfyZFK6EEEIIIQQAqAcffLBHildrgzG5zinvSItu8dfyjL8r+MWjecYvgkVWbnZMBVrYrXa/2+y4nWbQDV4mUFMHlBvoL5oZrxMopTaPjo4W+gvv2LFjbw0NDf0SEY0AuFhkLmuMAzChlHp6fHz8WSleCSGEEEKIZeqJJ56oOOfWbPuJWL8+qn00ZNn25xU/pPD9R7sePZ9X/KIwc1PbohjMQ2rba2VVrjczbicKKcxK6HqrmTE1t/8JhM1mrf2kiFlYP+/w4cPpsWPHDler1V0ADgFYd/eiiSoA/lZr/dD4+PjeN95440TRCQkhhBBCiPZiiIgBnHv//fcH0jT9ilKqu+ikhGiGK/bKL+QZ/yvezn/JM35RDJl58OrjaNJXSyi986Da8R8P08Prfv7Vskf4a//0Hr336w52UzPi+eR37AmEK6G1ZudcJQzDT1566aVq0fncbHp6OgLwN88///zhMAy/zczfBrCr6Lw6xNsA/r5arY41vo9CCCGEEELc1i0D20+dOlXWWg845/qIaEMRSS1r9ml1q43Xbvm0Iqa1zZ/m3arv4/fn//O3Pq1/9idNvVhDSMHZb27+nUMryWc1WnkfrvG18o/SHz0TufoDGWUbGS4AACZ4zrkQADSpGkCxgoo060WlVKxYz4cczmxQG65t5a0/6dN9KyoydMLz1SwX9cVtH9KH34pQfxKAt9LXE2gRjIyIagNu8B8fc4/9dw5pFk5rzcw8R0Qz9Xr9yqFDhzplFx/t27fvt51zvwdgP+7jHq9x/0dER5xz35uYmFhzu1iFEEIIIUQ+7nji4Pnz54O5ubnNzNynlNpERH6rEgPab0Hbbvm0ImYnF7B+WDu740T1ne/iLj/nK8bIfqPnqZFHgkc+X0k+q9HJ96FVr887Xh4iFfmXcfmBmq5tAoDYxSXjVKaNlxinYm1V6umwrqHTDdmGxRKVkgBBXHTeOasppSpZllUqlcr1dmgVXI3h4eFtzPy7AL4B4FeLzqcgTETvAZjIsuzo5ORkIQP4hRBCCCFEZ1vRwp6ZzZkzZ7rTNO0B0Ku17rHWbshreHi7LWjbLZ9WxOz0wsnk7OTeS8nFbzl2pWZdr09v+d6+jfv+4X7yuV+dfh9a8fq844nmauyuqllrF7XWi1rreQBzIyMjadG55WX//v07nHP7mHk/gN8EoIvOKUdXAUwT0fedc/8+MTEhg+6FEEIIIcSqrHpnCjObc+fO9TjnSsxcYuYSgBIzdxHRquK324K23fJpRcxOKJzcLeZMMlM6VT/1zEx67bHIRV/LOBu63+ts0N3/O9w7/JddquuOb2I93of18HyJldNaWwC1LMvqzFwLgqAWx/FipVJZGB0ddUXnV5QXXnihL8uy55n5KaXUM8z8y+jsgtaPAZwkoncAvHns2LFzQDOm6QkhhBBCCLGkua1VN2FmunDhQnjp0qUSEZWIqOScC7XWoVIqwD3MBGm3BW275dOKmJ1QOFlpzFk7W/qs/sn2GXt9W+SivthGfQmSTczsZ7DdxD/3XBAlAfzLA97gqWe6nznZ7HzuRSfch/XwfInbI6IYQOyci5RSdaVUnZlrWZbVDh48uNZbHptieHi4B8CTAJ5m5scB7AawA+1X1EoBnAfwQ2Y+R0RnjDE/eP311+UERiGEEEIIkavcClh3w8z67NmzYRRFobU29Dwv0FqHzrnQORcSkc/MTf2P+3pYYK/HwslqY7ZbPrfTCfdhPTxf65FSKgMQM3NkjImSJImzLIuCIIiiKIrm5+fj9byTKk979uwJPM97mJl3A9hNRA8x83YA/QAGAfTlcNkIwE8BXALwBYDPlj+UUp/6vv/x2NhYksN1hRBCCCGEuKPCClj3gpnVxx9/7Flr/YWFhSBJksDzvMA5Z6y1QRAEvrU2YObwXtoV18MCuxPmL7Xb+263fG5HCljFx1tLiMgBSIkoI6LYWpss76JSSsVRFCV9fX1pGIbRiy++2PwfPtEUBw4c8Ov1ej8RDSqlNjvnNjQOWwkAlJxziojKN70kIaJFAGDmOoAqM1eZeVZrPaeUunb06NHZIt6LEEIIIYQQd9PWBayVYGY1NTXl7dy5019YWAhqtZoXhqGJ49jzfd9YawOllI+l1kVDRL61dkXvvxMW2FLAau1rWxVTCljFx2tnjYJUTESxUirLlt58qpTKGp+La7Va1tfXl87OzmYHDx5MIPOJhBBCCCGEEB0kn+MDC7C8gGt8VO/29cxMH3zwgXfhwgVPKWV6e3sNMxsAHjMv/92kaep5nnfj82bpyEWz0uLX7Rhj1tUiW6xt7fbz3G753AkROSLKnHMZM6dKqWy5ELX8b611BiD1PC+r1WrZ0NBQev369Wwtn9onhBBCCCGEEMvWTAFrpYiIASSNjxV78803DQCTJIkul8vaOWeY2VhrNTMb55zG0vfXeJ6nnXOamXWWZZ7WWhtjdJqmBu03oFcIcY8aO5wyZrbMbG8qOlmlVOacs8vFJ+ectdbaLMtsuVxOsyyzcRzbSqWSygwpIYQQQgghhLizNdNC2MmOHDmid+7cqZIkMXEc63q9rpRSJggC5fu+iqLIU0rRclHMGKOWC2Jaa4WlHWGKmTURETNr55xiZq2UUs45tZr8pIWw+Jid0EK42pjNzqdRVOLGziZuDCMHgDRNUxBR5nmeTdPUNQpRzjlntdbZ0mOzVHBSSrkgCLJKpeK2bNlid+zYkR0/ftxJ0UkIIYQQQgghWkcKWOsEM6vp6WlVr9f1xo0bVRzH2vM8mp2dNcYYKpVKul6vExGZOI5Ja01BEGgAqNfr2hijAICIDAAsF8wa4TURkVKKGrvKoLVWWmuVpikaf97YaWaM0c1owbxZOxVO8orZzoVEa61rtPECWNqZ5JxbnrFknXOstWZrbQYstcxlWeZu/lprLfu+b4Gl4tNyvDRNs8bXucaOJqe1dtVq1fX29tpKpeK01m779u22v7/fPfvss7axw1IIIYQQQgghxBohBSxRKGam6enpG8Wter2uFxYWbuwYC4LgRpur53m0sLBwS9trV1eX8n3/ll1mc3NzCrdp0ezq6kKSJPfUPquUMmma5vacxHF8p2s7APdUtcq+pBqVJEkWBMEtxRxmtmma3vJ5IroxTymKIu7v77/5+ra/v/9Gkeq5557rjAFTQgghhBBCCCE63v8DLI/h7Hhu5cEAAAAASUVORK5CYII=;" parent="1" vertex="1">
          <mxGeometry x="335" y="240" width="180" height="39.3" as="geometry" />
        </mxCell>
        <mxCell id="kMh38vBJg7g_2Ti8jL4W-20" value="Clients" style="text;html=1;align=center;verticalAlign=middle;resizable=0;points=[];autosize=1;strokeColor=none;fillColor=none;" parent="1" vertex="1">
          <mxGeometry x="57.14" y="370" width="60" height="30" as="geometry" />
        </mxCell>
        <mxCell id="kMh38vBJg7g_2Ti8jL4W-21" value="Gunicorn&lt;br&gt;For WSGI" style="text;html=1;align=center;verticalAlign=middle;resizable=0;points=[];autosize=1;strokeColor=none;fillColor=none;" parent="1" vertex="1">
          <mxGeometry x="385" y="299.74" width="80" height="40" as="geometry" />
        </mxCell>
        <mxCell id="kMh38vBJg7g_2Ti8jL4W-25" value="" style="rounded=0;whiteSpace=wrap;html=1;gradientColor=none;fillColor=none;strokeWidth=3;" parent="1" vertex="1">
          <mxGeometry x="145" y="130" width="670" height="270" as="geometry" />
        </mxCell>
        <mxCell id="kMh38vBJg7g_2Ti8jL4W-28" value="Development Machine" style="text;html=1;align=center;verticalAlign=middle;resizable=0;points=[];autosize=1;strokeColor=none;fillColor=none;" parent="1" vertex="1">
          <mxGeometry x="675" y="100" width="140" height="30" as="geometry" />
        </mxCell>
        <mxCell id="kMh38vBJg7g_2Ti8jL4W-29" value="" style="rounded=0;whiteSpace=wrap;html=1;fillColor=none;" parent="1" vertex="1">
          <mxGeometry x="180" y="200.53" width="120" height="148.94" as="geometry" />
        </mxCell>
        <mxCell id="kMh38vBJg7g_2Ti8jL4W-30" value="" style="rounded=0;whiteSpace=wrap;html=1;fillColor=none;" parent="1" vertex="1">
          <mxGeometry x="310" y="206.06" width="340" height="140" as="geometry" />
        </mxCell>
        <mxCell id="kMh38vBJg7g_2Ti8jL4W-32" value="" style="shape=image;verticalLabelPosition=bottom;labelBackgroundColor=default;verticalAlign=top;aspect=fixed;imageAspect=0;image=data:image/png,iVBORw0KGgoAAAANSUhEUgAAASwAAAEsCAMAAABOo35HAAACo1BMVEVHcEwAMRgILh4ILR8ILSAILh8ILR8ILSAJLiAHLCIJLiEHLh8ILh8JMCEJMSIJMCIJLyEHLiAGLR8ILiAILiAJLiEILiAIKx8AOgAHMCEILiEGLx8ILyAKMiIHLh8IMCEHLR8HKx8KMCEHKx4IMCAHLh8FLx0ILyAILR8ILR8ILiAILR8IMCYILSAKMSMILR8ILh8KLyECKRoAHg8AHxAGKx0GLR4AJRYFKhwEKBksSz5rgnhofnVpgHYdPjEILR8RNCYxUEQyUEUbPTAGLB0AHQ1nfnT///9AXVEAIhMAJRcvT0P8/Pv///51ioFheW88Wk4AIxT9/fz///37+/p0iYB5jYUUNylPaV9SbGFRa2BVbmQoSDsGLB4AIRIAIBECKBoEKRsBKBkAJBUAJhcSNSgXOSweQTQeQDMAJxg4VktddWuUpJ2uurXEzcjR2NTc4d7k6Obt8O7v8e/p7Ond49/T2taMnpZtg3pGYlcjRDgADQCksavP1tPz9PKRopqhr6gAIRMHLR9uhHuyvbjl6echQjaksqyms61LZlt8kIfI0MwyUUUBJxkOMiS7xcDa4N0aPC6GmJHq7evn6+icq6QAIxX+/v4QMiOqt7EgQDPK0s4tTEANLyHL09CsuLKWpp9CXlP6+/rr7uv5+vji5+RYcWcqSj07WEyfradyh37+/v2+x8NkeHDFzsonRjrf5OFJZFmjsaqota9geG4AHA1NaF21wLqJm5MzU0fBy8YILh/N1dB4jISZqaLX3dkMMSMzUkb3+PZbc2nAycWFl4+Elo709vM9W09je3Hv8u+4w75mfnQAGwzx8/HY3tu3wrzV29iPoJhed22AkooaOi1TbGL29/Xg5eI3VUk+XFCzvrlvhHweQTNFX1Xx9PMGLB/D4bjMAAAA4XRSTlMACTBai7PZ9f8cYq/n/////+VCo+9LwC8BefUfvP9X+GNX/z/4eCn3tkbFpxnz/+uJ/////////////////////////////////////////////////////////////////////////////////////////////////////////////////////////////////////////////////////////////////////////////////////////////////////////////////////////////////////////2FKUBkXAAAMJklEQVR4AezQ1WHsQBAEwBbPwc7OMTOanX90D82WtP5WVwiFMlGcpFleSKMUeZYmcYQfabU7XafqTRrGvKrrddothOoPhqomjWWqw0EfIUZjpyYNZ+rGI9SZZF7lN1KfTVBlOpu/VpHOZ1OUWixXJvTKVssFSvR7K6EPVr0+vrXeeKFP/GaNb2ydCX1hbosvdvtvr8j2O3xyOJZckR0P+KDV9VKCfK8FvJmOVUqRjqd4c1pJBVqd8Op8MalAdjnjxVWlEukV/93wqpa/wT+3zKqlt/jr4KUW+QP+uFtJLVrdAcD9g0ktsod7ANtHoQCPWwCZCgXQDIieTCiAPUWYOKEgboJEhYJogmdmBdJnXL1QEH9FbkJBLEchFKiAUDBmMYtZzGIWs4hZzGIWs5jFLGIWs5jFLGYxi5jFLGYxi1nMImb9Yu+uFtvGtgaOf3ezL/0M3xuoW6pVikqaFTlROy6GJFmRA25wkqKncRhnnJSZmZmZmZn7KiexhpPJ3snp+NjR+t8Vk/xsi5eUXljCKCoykgTy90b7Wcm+EYg1Zuy48YM2YUKGTP6WMnHS5EmDNnnK1BGIpX4PrDI18rcCWdmgDxpME0cgFp3O+rHhh2B/rBnAaKRizRy0gbFmsf7VbMRCLMRCLMRCLMRCLMRCLMRCLMRCLMRCLMRCLMRCLMRCLMRCLMRCLMRCLMRCLMQa6ViIhViIxX99FmJNAlZzKGK5SXNzcvMGLb9ARiw3wTAZWSEBsZIeYrFDLMRCLMRCLMRCLMRCLMRCLEWRZLswUciWFAWxBlQyCh1LtYJhUlRcUtpbyZS5QlgTqRYxEOvPUHaQmkbJvLI55RWVVdU/1vRVO3/BwsqKRYuXRI2f8oeFpbBKPyzDT4PFmbOX1tXCwMXq6huGgeUzGk1GIV9aYTX5qZ3V3NIKifQBIfqaOXSsUFtD+9JB6+h00gjLFv1ZXT/P4tAYBpbzC7DqommDFafdZT2z+KE8fHYnTjO6lnFIIZZPVpevWAmgMxkQSxHJtFU8byrEEiJWZx0fFWKJc1dzfQARyyepSxZwva0QSwiv6VrLRYVYgrZuPXBZIZbP2rCRb2mFWD5x7AKYyRNi+cRNP/JZIZbPGstphVhCMIPzM4hYvsjmLZxWiCWt2cprhVhqF+iIxZVgZc6AmVwh1piJy3itEItu47RCLMHaDojFmSwPdatBh9/SvYZFJ4DODwWJdsRW/rgztostNsKw7Im7YQhS2VUdc/b8sDeaUVwa3bsvf9r+ql4yz2CpB0DnpTp4qHmTYlLLCUdCdigSdixqGXsPH9E9gmUX7QZOqlj5ZD/1S+SvSeGf9oBHsOg40PmsGo6qTpOn5w0lqQq41n/HOkXH68OZ5nHQeax6lqsK8TqWeAJ4rNrHOD7idazQlBoOLDjpjws4Iy2eAp1tVSlFBBwoV8wKYFutbAsKBLFGFa9kYulQdtpHCGKZZzh27M5qBiEEsdRzwLTadV4jhCBWU/gCG+ukeBGx+DYcADJNgli9aZnAxLpkG4jVF10MOgvrskoQqy/xCrCsss87iOUu33uYWFeJhFh9SdeWMbFOiASx+oq31TKxmiliJXKus07a67BEQ6xE2hLWyhBuFIQRK5F1k4nVOldGrETiOOYiq45IiJWIXmZi3QoZiJVIvc3EOrtG4cVCrK0WQSzEQqz/LVZL40VeLMQ6FB6NWC7WHSbWRkNCrER0GhPr2EQZsRKJzKuN4G5bnBcL9w31e0HCDI86uMF9EbESOeeZQyiwjRI3PFL6gIm1RTYQqy+5u5qJtWtsALH6MuK3WFg6LFYRK5G4n32pw5GwgVjMrVI3ODhPQ6y+tOOgc1xFg1ju6jAGTKxZ1zXE6s3gGZ6Dh3jlXyJazsbS4dFjHyGIZe3hubI7liUKBLEKS5/wzAw8ndIoIJYSfAYz2UHVctH3jbHWzFubVljuyO9MjuD52NNN3xYreA/SDcvdeGAHNTdF59ti/ZB2WMTayjvH2lGgOorHsTpB59SKvRirifEmr3wMGZOsTK4bFWUlYSquidiSkUgeFXY0cVgz0o1nQE+/GenxoM/k5oLaW4te7ovOVexR9ijZ6F5+9Pzx719d0IeBlZOGWHb3MRjqvUJiu69urKys3Hi1elUs8TszPYJFVPYNQ/qD/SldH9btVaxT6Ygl8y+1+OPAmp6OWD53hZhsLHEx88Obio9GbrLaIflYdDYTa0IKYpHw61ZIOpb6iol1iqYglo/mASQd6xwTa3oqYhGFLgI9yVjWtvR7Z7nJ8WeQXCxFW8ochXljpiSWECiqguRiOS1MrNzUxCKCtmEBJBOrKV7JxDqupSYWEcRNrZBELMlYCMxR9mDq3uL86DJIHpZcdAyY58KdlMRytTJ+Bj1ZWPGSGhbWrKxAymIRIbi5HSBJWIFN2Syst9FI6mIRIR6cvQOSgxXcDiys2imjUhTLTTq9rw4gGVhWGfOgw+65dspiuZlkxS6Afx9LZc86Xu2WUxxLsNXJZ5PwrDCOvZ2NkpHKWG5BJ+cIAPyrWMqaZ0ysnjVK6mMRw7LzDwHAv4glX7vKxOowL6Y4lttUMbJ96ZNv5KUDQKZG/lIk+paJVW+ly3OkDc2KHqicBQD6f+WUqGbL2HC/4Q4m1hyaFlhuERrKunwoBoOBMZTgbfWz+vv3MqSp5K/RAywrHaaL6YPlPp08HN1z5VICjIsMfq/2+bP6xUsKuv1UDPa/34HZwcIC6NTSB8utKWKJUjTn1fq6mn7nC3Ud+qXffbexpXxa/rwS4ohUC8sKGSDp/58ysQ5mBdILy82ImFQzMt7nH3ix/lbVsZq7Ow7CH2XPehtbVV1VefbEi8v3c95H58pBSzWdQkkh/5jzSzYTa+eUUPphuSlTCx2LWmZAmDulLev99swzuXl5uZ0fMjOvZ0UziouEQs20KDWdiG0ohBVtBvbVhoqU+lgMNMkOxQNOMNhomqbVuCYY9AciIVuWXCK+FO0sG+ujpiQBK/WLlzxhYy2iBLF6o98zrXR3hhaxRgc4bryrJw4qI1bw/Qw21vxiG7F6o6s5JoZuhZsIQaxwNMaBdY4SQhBLrWdb6ZBnEoJYfq431oOMQoJYF2kDz2xVj6MgliBuP6hzYE2jBLFspQo4rHZsCiDWxdOLuGb2KuOG57F8ah5wYX2ixOtYgrW3hsvqyee417GEYPFVvunGBpF4HEsIFm3kstJn7tM8jiU0zv2Zw8o9F93kcSxxwxY+Kx2WmMTTWMbpfbyjetDjjPYylhC37t/gtdI/mMTLWOK6K8A9XbzVUryLJcTVL8/5rd7udYhnsQxaVO9ScQV3ThOvYimN/psLhmL1fLPtVSxH3PfMpeILDmZagjexAnRvw8GhWOmwQiXEi1gBerT+rkvFG9waI3sR62K8oD7mUnEHu6c4ggexlDEHwKXiD2LzRB/xIBaZWjqhbmhcMCNH9RFPYhGZGnuOAAC/VZlKiAex3CTRPnOIlwuyb55WPIrlZliBLy06Dxd8PeNaeRTL5TK1fR07WFw6HHuvEuJlLDdFsyavfjsoF8ChDIsgVoJrDS2orwH4Z6tztiMg1m/56YYVrQADU+3OobZrhVhuEXX5nGMAen+rpcupQghi/aVCtWjx1b9xATx9Y4UFglj9stXN97cAwB9UN1ZMpE2EINZAyXTqngvgcukAFZvUkI8g1j8l0TGdDwFAB7hwXFtDCEGsQTIsf2aFDlvyC60mglisRjdq218SahCCWFzbqZZECGLxh1iIhVhexPqOYJx993//aQ+uDiMHgiCA1nItTE9rmZk5/2gukzOzJY2/1e+VlSaIlrH3NEH8HndhECN3FIQmiBTQczRBXA+5m9IE0FsOKAlNACkBmF9pAlznAM4XZSqjlzMAnCZMZSYnPFl5pjJ+hWdHYQojR7w4eKYw/oBXe6FJJHu82e6UJoHutni3mdAkmGzwod8VxjLS7eOTauQZw/ioii9Wa+WvjK5X+GaxVP7CuOUCP8yd8gfj3D/8Yjrz/Mb42RS/akYTfmEmURMxRuOJ8p3RyXiEWP3BUPjKyHDQR5JeyQsfGfGlHtJ0uk6UGafiuh2EaLbaIsrMUpF2q4lQ1Vq94US8MmPUi7ioXqviT3L5QrFUrjBTKuVSsZDPIcYD9LyHyUlMO9kAAAAASUVORK5CYII=;" parent="1" vertex="1">
          <mxGeometry x="560" y="224.64" width="70" height="70" as="geometry" />
        </mxCell>
        <mxCell id="kMh38vBJg7g_2Ti8jL4W-33" value="" style="endArrow=classic;startArrow=classic;html=1;rounded=0;entryX=0;entryY=0.5;entryDx=0;entryDy=0;exitX=1;exitY=0.5;exitDx=0;exitDy=0;" parent="1" source="kMh38vBJg7g_2Ti8jL4W-32" target="kMh38vBJg7g_2Ti8jL4W-16" edge="1">
          <mxGeometry width="50" height="50" relative="1" as="geometry">
            <mxPoint x="500" y="410" as="sourcePoint" />
            <mxPoint x="550" y="360" as="targetPoint" />
          </mxGeometry>
        </mxCell>
        <mxCell id="kMh38vBJg7g_2Ti8jL4W-35" value="" style="endArrow=classic;startArrow=classic;html=1;rounded=0;entryX=0;entryY=0.5;entryDx=0;entryDy=0;exitX=1;exitY=0.5;exitDx=0;exitDy=0;" parent="1" source="kMh38vBJg7g_2Ti8jL4W-19" target="kMh38vBJg7g_2Ti8jL4W-32" edge="1">
          <mxGeometry width="50" height="50" relative="1" as="geometry">
            <mxPoint x="420" y="200" as="sourcePoint" />
            <mxPoint x="470" y="150" as="targetPoint" />
          </mxGeometry>
        </mxCell>
        <mxCell id="kMh38vBJg7g_2Ti8jL4W-36" value="" style="endArrow=classic;startArrow=classic;html=1;rounded=0;exitX=1;exitY=0.5;exitDx=0;exitDy=0;entryX=0;entryY=0.5;entryDx=0;entryDy=0;" parent="1" source="kMh38vBJg7g_2Ti8jL4W-46" target="kMh38vBJg7g_2Ti8jL4W-19" edge="1">
          <mxGeometry width="50" height="50" relative="1" as="geometry">
            <mxPoint x="290.2719999999997" y="258.84763999999996" as="sourcePoint" />
            <mxPoint x="360" y="230" as="targetPoint" />
          </mxGeometry>
        </mxCell>
        <mxCell id="kMh38vBJg7g_2Ti8jL4W-37" value="pognd-nginx-1" style="text;html=1;align=center;verticalAlign=middle;resizable=0;points=[];autosize=1;strokeColor=none;fillColor=none;" parent="1" vertex="1">
          <mxGeometry x="210" y="176.06" width="100" height="30" as="geometry" />
        </mxCell>
        <mxCell id="kMh38vBJg7g_2Ti8jL4W-38" value="pognd-app-1" style="text;html=1;align=center;verticalAlign=middle;resizable=0;points=[];autosize=1;strokeColor=none;fillColor=none;" parent="1" vertex="1">
          <mxGeometry x="570" y="180.26" width="90" height="30" as="geometry" />
        </mxCell>
        <mxCell id="kMh38vBJg7g_2Ti8jL4W-39" value="pognd-db-1" style="text;html=1;align=center;verticalAlign=middle;resizable=0;points=[];autosize=1;strokeColor=none;fillColor=none;" parent="1" vertex="1">
          <mxGeometry x="730" y="175" width="80" height="30" as="geometry" />
        </mxCell>
        <mxCell id="kMh38vBJg7g_2Ti8jL4W-40" value="" style="rounded=0;whiteSpace=wrap;html=1;fillColor=none;" parent="1" vertex="1">
          <mxGeometry x="680" y="200" width="120" height="150" as="geometry" />
        </mxCell>
        <mxCell id="kMh38vBJg7g_2Ti8jL4W-43" value="" style="shape=image;html=1;verticalAlign=top;verticalLabelPosition=bottom;labelBackgroundColor=#ffffff;imageAspect=0;aspect=fixed;image=https://cdn1.iconfinder.com/data/icons/unicons-line-vol-3/24/docker-128.png" parent="1" vertex="1">
          <mxGeometry x="200" y="180" width="20" height="20" as="geometry" />
        </mxCell>
        <mxCell id="kMh38vBJg7g_2Ti8jL4W-44" value="" style="shape=image;html=1;verticalAlign=top;verticalLabelPosition=bottom;labelBackgroundColor=#ffffff;imageAspect=0;aspect=fixed;image=https://cdn1.iconfinder.com/data/icons/unicons-line-vol-3/24/docker-128.png" parent="1" vertex="1">
          <mxGeometry x="560" y="186.06" width="20" height="20" as="geometry" />
        </mxCell>
        <mxCell id="kMh38vBJg7g_2Ti8jL4W-45" value="" style="shape=image;html=1;verticalAlign=top;verticalLabelPosition=bottom;labelBackgroundColor=#ffffff;imageAspect=0;aspect=fixed;image=https://cdn1.iconfinder.com/data/icons/unicons-line-vol-3/24/docker-128.png" parent="1" vertex="1">
          <mxGeometry x="720" y="181.06" width="20" height="20" as="geometry" />
        </mxCell>
        <mxCell id="kMh38vBJg7g_2Ti8jL4W-46" value="" style="shape=image;verticalLabelPosition=bottom;labelBackgroundColor=default;verticalAlign=top;aspect=fixed;imageAspect=0;image=data:image/webp,UklGRtAnAABXRUJQVlA4WAoAAAAQAAAAuwEA/wEAQUxQSIwWAAAB8Idt/yKn/f89ZmY9bkTRoA1UKA0WGrRYBS3uUEqKW3G3FuiLUNxqFHcIWigugTZ4DEiQhCjZ2G7W5vHWNuzMPOf5/C8iJgDUrP7d+NPdAoHJCjXHJSNaf2rlyWACBx+2IyKK6Us+0DAWIXZHloj/tyVxrC9TCVz0yob/tOhSS2YiRMSlivhvy3Y282Ai/t2PWrAyM+ZGaZiHttWG11jJtj9GhjOOyEVJTqx0MXfvZyaGoR1yp0zEt2l/vSWIUXDezS6K+PZzp4dpGYSxxeoCdEvbpUHhHGuoNf+uE921YHdHHVPwHHDOiu6cvOoddiA03pMnontb7sd5sQF9nXXlIrq/+LCTD0f9NLXiUlCi1h9jPekeFzTgcAlK1pW86H2e5sXueuFCKZffmuBD7arMe+pAqb850kZL47jwEWkiyqBY/EtjE3UL6HzWhnL5bE49garpWq7NQRm1nx4WSs+4avPv2VBWxdz9XTS0rF9SKcquM2t9VQrGecWet6Msiy8nVNNQLn3TH16jbNv/7B9EtWrNuIOyXrK1k5Fa+Q1OKEeZd6WuqMdTKb7x7/kulP/yB2O09MlQZ2WxiMroutnZl6dKQs2x91yonObtrb0oksfAo2ZU1uQljahRzNYsVFzLpVHBVChsUaodFVgsON5OR3v4oEFpLlRosXRnbQPVCeh4ABU9c3J9HbXRx/z4SlQ2tPwxOpjShCy8Z0flzzvYgcboP08sRSJ0ZcZXpSycV+xJKxKj68XkqgJF0X8Qn49keaVnEC0R6oy/gcRZtKG9JxXxGnLyjUgeaE9e3YCjHw325jqRTMvThhvphr7mMrOI5FrxZ1cfnlpwteLuOZFs87e19qAUHr2PlyP5Js+NohGaphteIBGXXxgVSB0CFqXYkJBdBcdjeZrA+/d56USCFm3b6xhoAeffcX8FEraYNqWOhgrwreIzkcCtZ0b7UYCqs+86kMwLd7XTqTxT9z9LkNidT1dXVXOesYdLRSR557OJIYJKMzRcUYjkf757MK/C+BoTbzhQDeZv+sSoujRDTxShSrQ/XlFPZTXaledC9Vj+9zBv9aSttTjHherScuETb5VUfdTfqEKLN0ebVJBv9/0VqE4fzo4SVI4mesMLEdVq+YWvvFWNz+wnVlSxrvxzH6gWwe/LVAeqXNG8qb5Blfh/eqgc1XDa1Hqc6tBGr3mFKtl+ul+Qyqgx46Yd1fPrX9rrVYSp73mziGranrmqulrwiDpRIaLaduSP9teoAEOjZXmoym0newfzhMdFTrplR7X+ektHA9Hpu58zo4p3JC+LJLj3fn6JKr/s2nBvMtNELsl1ouoXbZfaepMXHz4gDSmhZXNjE2H59thpQWroejCjgUBQXPNNGS6kiWUXv/YgJr85TyqQNuYfa0VEfFD/WxVIIV15a6P0xOPX8WAZ0sq0KTUFotE0Wf0SaebRQVUIJmLadTtSTTFnezsDofC9LplFpJ0VGatDCIQzNjloFZGGOlLHhAiEoXt/QTZS04pT3YKIImzSTQfS1JytsVpiMPU5WI609d7CBmTAR23JdiF1FctuDTYqn7bKonwHUlnRer2JB6doQtUhfyPFLV3T1EPBfLvtLUaq63w4sz6nVB9ufuJE2lt6YYiXIoVNu2dDGpyzv7lGcfy737aJSIddhetr6xTFp/lRK9Lk1G9qaBRD/9GyF0iZrUf6h3DKEDIt0YrU2fXytzacEnS98gaptP3pklCZ44yN9xWLSKvtySODeBnTNFqSg1TbduFzH9mKGH0Vqbd5ZSu9LHn13GdGCu64N782Lz8Nf3nlQDpecms0Jy/a8OmvHUjNReuJliZONoSqQ245kK4XxH9klAl9j/2FSN+T5kbKwocrM5DK2xOGBkouaFqSFSm9K3dXC42UOM/edypEpPfO3B9r6CTjE7MDqX/quBoaSWg/XP5MpH9YemyAvwT85t6wIRvM+rm1u+k6nClBZuhMWVbdnQzv7XzjQpZoezQkgHMTXf0lOcgez7YLcAe++vAryCTzfmxlfGumXvtzRTaBjvsLar6lBttfOpBdliT1NFSeptqMFw5km8WnYkxc5YQPSHQg+yxc/5G+Erw77ilFNnpvXF3hXwhN1qQjMy1OGBbwj7yn3bUiQ3W+3hP9/3CebR9bRWSrTvOyMC0A5/PxbisyWFfy2BpC1RXPkNFaEgb2ciC7zR2KLFehRFtZUf6jsyf3LfjPoZMnz6UWmsutTuJylL3Junby8IIFC/advPTqTaldHYmv7yYs61NfD/807IMRs3ZeSy9ykZMj6/a2QXX18P9rIz9bd+N5heopu71jUD0NVGpg7IRNJzJcZPRwfZ9wHv617+erLleomrIj46I94C0aqneZc7aMfO4vjjVB5RoaTbtpVy/nv6img7dtiOyyKlMkmpIt0SaofP37qwvViSNtQhAP7sgbI+ZkVYik4nz0uQcHb5MzfnzdoUKKdjYE9+Wqz71SQialR+vB26/6e5HqyJrqD+5dY3YKibz5sRq4Y+CiPJWRMlgL7q7tuKuMOMyrw8A9Axfmq4rUnlpwfy5izCPCsK4JBncNWFysHsTH3TQgSW2DEzaSEPd6gPsaNzhUQ/oXIFnjhkKCSAoCdzZdVwvlY3TSAe/pT4ghox3vVtAiXSVs14KUPQYnE4J1sTe4t2FKuSp4HAXSNvXNIIPzDTk34+omqIHS/hqJgfbzbBIoHMuDu/MDX5OfuL8aSL/rG+VznQsH9w/e6yS+/OGCDOhm5yhe2QSQ4rA84rtQB+TQd0mp0j2vLYkaSaRXOl8jCxD2s03hdgmSEOKdhJcRC/LI1T7jVLYhIM12NsK76SMTAI2SFM0SIhFTIdk540E+P3mhZHc8JAJnyM4+UkY0X+cq2G6DVNaSna2VjIDPPLNyzdBKZRTZWX3lBEK3VShWnEYqvcjOAvIacdChVF/yUmlIE+CdO0rVHKRakypA51csRzMyj+GA78IyhgOB8eUMB2oedjAcaJLEcqB9FsvRDjQzHDCONzMcCF5bxnCg9gEHw4GGd1kO16KQ4YDQLY/hgPfMQoYDYevKGA5EHncyHC4iWWQ3AO8+YTmawS8YDnhPzWU4ELzRwnC4Kied7AYg4irLgTZpLEczKJPhgPecYoYDfj+UMxyo8puD4UCdP1kOtEhhOUK/fIYDxklmhgO+y0sZDlT9zc5woO5llgPNslmO0Cuf4YAxLpfhgN8iM8OBsN/sDAcib7IceP8JyxG+eM5wwDQmm+GA/3clDAci9jkYDlS9znLgg1SWI3zxlOGAx9hshgP+y4sZDlTZ5aB1Gi9OehBwkdaFjKgrA/DOQ0pXde+GYBnQ9HxK6Y4VTTdIDzzG5VA6NH/JSQ98vy+ldJjXlpce+PzkoHTivWhBehB8ntKh/Wh9GYCmDygdlq4PkQFN91RKh+XzTdID47gCSoeWoVrpgXaumdJhYRdBeuC/wU7pxMQYGYDIU5QObceiZAAa/03p0LY5RAaE7lmUDnGVv/RAGJQjUjrrJI30wGtOEaXDlz1kAMK32Cmd+HdbGYDqpykdOo/XlQGol0HpEA/W5qTHtUwVKZ1tra/0wDD0BaXDshkyAL6zCykd5vaUAQjabKd04v12nPQgIJHSISa24KUHEXddlM6xP5KTntAxmdKhY72/9MA08jmlw7LpMgA+84soHeYN5qQHPnuclA6ff66RHpgOuSgdXm8qSA+ibtA655G6nPSE9vcoHVp+9ZIeGEZkUTqsWCED4LGohNKhZZheemBYZaV0mNlNLz0IOUrrXDdieOlB1FVKh7YzdWVA6JxO6dCx00t6oB+VS+kQV5qkB7oJ+bTOGmeSHnittFE6MaOfID3wP0DpUExqL0gPGt6kdOg8VVsG+HaplA7xaIT0QNMrQ6R0GO8pPTBOLqB15klG6YH3Khulw+eDtNKD0GO0zpUUKwNQL4nSId6K5qTHNb8vUjo8Ei49EHo8FSkdrvGXHpgm5NO60m910oOAlTZKJ74YIgPgd4jSIT7tqZEeVLsuUjq81IKXHtf0novS4ala0gNdn6e0zvGzQXrgPbWA0mHZYhkA79V2Sof54/TSA4/DLkqHyb0N0oPwa05Kh3dieOnxrRJpnfNSiPRA/2UapUPXHpP0wDilkNJhxXIv6QH3vYXSYeF0L+mBYZeT0uHTPjrpQZ1ztA6TYnjpCa1v0zrXlTDpga5fJqVD8Zi/9IAbn0fp0L7BX3qgX2KhdJg/2Ut6ELCD1mHGIIP0IPIErRPvNeWkx7d6SOlQfFpXesB1TXHROcSTYdID7cgsWmeLryI98Jlno3RYOMNLeuC/jdaJL/oI0oNaNygd4qtugvTggztOSod/fSADwqePRUqHJ2tJDzzG5NI623p/6YH3HBulQ/NCD+mB925ahwXjjNKDwAQHpcOMnhrpcR9ec1E6fBAtPdB++pjW4R/B0gPDyFq0zv5LFemBh4bWYen3vtKTMP3BgimeDAef99IwHHzQmOXg5aosx3kkhOGgZV0gw8HcKV4MBzOHaBkOPn2f5WB6dY7hOE/UYjhY8p8QhoP5M30YDhb0FBgOFn3MMxy89x7LcRx5h+GgZVMow8HimZ4MB0vi9AwHszqxHLwXzXKcJ+ozHLRuC2M4aFnuz3CweLyW4WD+ZywH77ZkOc4/ohgO2n6rynDQviqQ4WDRTB3DwZz+LAfTmrIc8WZ9jt2g81Akx26wbF0VhoPmhXqGg0Wfsxx8HSMwHPGv5jy7Qfux+gwHrZuDGQ6WzNQxHLQN1jAczO7KMxwxKUZgN2g/1oDhoGVTMMNB+/ceDActI3UMB3O7a2SmhoWmuW7Hykz4E5qG9pMN5SX0AdFZfaVS+7pSofPXqrIS9pjoKlpIpdEzxUJc4y8n9axEZ+8rlY/KFKxislZGOiHROZdKhO+DSv68r4x8S3biRYno4hXNdbeDfFwgO3zSRBqeSYqGrrPv8jJRrZzwzJOl0QiV/nBdTh4mOQjPtcdXErMVz7bRSxb8LouEh8ntpeCdqHhYPkcvB31zkPRs33lLYHCx8mHBTL30gvc6iQ/TYzi38zknEgBmj9ZJTRhjRvLDDd7upv0qB4kwc7hRWvxH11ENlHzqbu9cQEJ8NtokKZ/tqArwdrB7+SwqJQXMnhMkpXHFKsG51uBO/Gd5SI5Fm8Ol0ycbVQIWTNS7D1fvGZKk/URjnTQ07VNRNWDWN55u0+A2Emb6+KpS8Oj5AFUEPo8zuofw/kE7aWDFrtYebucz9gmqCnwZp3cHvunpCiRP56MFkbx7VVmTgyoDc5b4vD2+7U07Emnxzak+7hRz0oKqAy2HGuvfDu81vsSFhCpak6fWNHBuoa+1+IULVQhi1oy6QuXxAZ2O2pFoM5a2ra57a6bImU9RURUFK84Or6urJJ9uG14g8RYfm9KhmuYtcP7t5/7hQvWCWHRuUQf9v9NEDv05E4nYlnp85YBGpsrxbDp7T6odlVZpEMueXlr2WYTwD/zei9uZlONCYrZlPzizOa5bA69/FNAkbsvF5DJUYOVBRFtpYf65hP2r5m9KSLhfUGRxImGLDktpUcH90wkJvy1ddyLhUmaB2eJAZVYkitzLwXByq67IYDWWhIGcz8d7rCzGlTK2hgDAebZ9bBUZi9O8PEwL/7f39LtWluLM3h0N/1RosiadnRQnDPKFf+ndcU8pI7k3rq4A/z58YKKDgeTEf6SHStVUm/HSwThKTscYOaj0BttfOhhGSVIvA7xVU6/9b1iFLWlhLXjbfPXR19hEfnwLI7ihrv6SHAZxrl0AuKnh/d/NIlOwPRoSyIH76j4/V8IOnCmLQ8HN/ebetDGC7F/agPtrP1yeITKA0mMD/UGSPjF76F/KqBoakCjn/eWdCpHiOfPWVdeClIOmJVlpnSt7dwsNSL3Jykw6Zz/RPxBkUN9z/xsKd3dubZBHoerQRCdlK4iPNoFsasOnv3bQM9Ga0NLEgaw2+uWVk5KVJH7Ngex69dxnpmGOe/Nr8yDHEaOv0q/ila30INOaRktz6Zb9zy98QL45Y+N9xSK1sqeMqsKDzHe9+oZO2Z8uCQUFDJmWaKVPrlc723KgiProZS9ok/XogBAOlNKn+bEKqpT2TQ0NKKl/99s2kRK53myorQOlDZt2z0aFcvc314ASN9ny1El9Si8M9QKF9u22t5juOB/OrM+BYgtVhyTRnLI1TT1A0bVVFuc76Ixovd7EgwOl5xtuzXZRmLJbg41AhKY+B8upy/1FDYAYwybfclCV3K2ttUCQuvcXZtOTilPdgoAsOWOTg1aRijhSx4QIQJ58r0tmkXpUZPwQAoQaMf26nW6IOTvaG4BYNU1Wv6QaRwcHA9H6dTxUTi3Sp9QUgHD5oP6JFTTClbc2Sg8k7Df3SQV1KDjWCkiZa74pw0UVyi6O8QCC9u3xu4UeuB7MaCAAUfPhA9JpgWVNYxMQtyZySa5T/Ym2S209gczf++Wl2iu/NtwbiF3f45xZzTmSF0YCyXORkxPtqu311k48EL6h0fI8dWY71TuYB/L3iEqoEFWX4/noAA2oQ1Pf82ZRVdkzV1cHFVljxi2Hinr9S3s9qEpt0/9kqCX7mX5BoDr9uhwuV0XpU+txoEIF/y/THGpHNG+ubwC16jPniVXNiPnnGoOa1URveCGqlvILX/mAyvXtsd+mUh7NjhJA/Vb/6m81Urw52gSqWFtrSY5LZVj+/MQb1HOjXXkuFVH+93BvUNWaYQlFasH++Lt6oLb5mhNvOFRB/uZPjKDCDY2+e6MCLnQP5kGde8YeKROJzpkxMUQA9W7q/mcpuTmfra4KKr/qnLtOQivc1V4Hqp9vtTaTxCrOjvYDGsj5d9pvIy0xfUpdDVBC3r/PSydJibbtdQxAEwMXpdhIyVVwvDUPlFHTdONLMiq/MCoQKKRH7+PlBJQyLwroJFcr7r6TcPK3tfEAaqmvucwsEkzFxa6+PFDNBvvynIRiSRthBOrpPeTkG5FA7MmrG3BAQYU6E26QR9HG9p5ASfUfxOcTxpVeQUBPOa/YU1ZycL2YXE0Auqr/PLGUDFyZ8VWBwoYsumcngLxDHYDO6mPWZYkKZzn/dTBQ24COB5Utc3J9HVBcPmhwmkupxNLf6xiA9oYtSrMrkVh4op0OaHDMtizlsV4eFQyU2GPQ0WJlcT5c0gjosVBz7H2Xgpi3xnoBVTbUXVUiKoTrVmc/Hmgz33hXvksByh/GaYFK+w0+WS53rrQV9Xig1bVm/CVvpVs7GYFi65v+kCNfjosDgoBuc16xJ2zyJL6cUE0DFLx/Uqn8OLM2VAU6zlWbf88mL2LugS4aoOa6mFU5cmI/MzwUqLpP53M22Xg2p54AlJ0LH5EmyoFY8uuHJqDxVeanOyT35mhbLdD66F0vXZIqvzXBB+g9FzTgcIl0XCmL3+eB6mtqxSVJxbqutRdQf33keosoAfFRJx8OWKDw4d580c2sD+K8gBl6DjhX6lbJq94Bplhr1j2n2xTs6agDxmhssbrAPeyXBoVzwBw572aXRDfI+zZMC2xS0/uvMvGt2F9vCQKGGbn4rrPyxNx9n5mAaWpbbXhdWbbzo8KBefp3P2qplMy5URpgoELEN2nivyr7vZkHsNLAxa9s/6jocgywVKH1jmzx/7EkjvMFxho4+LD9f4npSz/QAHMVao5LRrT+1MoTmKz+3bVnugWCmgVWUDggHhEAAFBvAJ0BKrwBAAI+MRiLRCIhoRIpFFwgAwSyt3C2fwz/FfwA/QD1PijbW+E/0A/neKAaQ1pP8R/AD9APEg/AD9AP4B5pP4AfIB/AP4j+AH6AbX/z/+n/mgP1X+AfgB+gH//v/Swvqv9w/bH9//Qkol0T+6/rp/WP2v+duvPyr7wflP0QGE/7PzgPBPxr/gf2//JftV9Lv6r/APyA+Rn26e4B/A/4H/kf7Z/W/1w7gH8A9AH89/sX7R/+j4kvQB6AH9m/0H///7PuX/8f/8f/j4FPQA/dD1VP8z+zv/b+Qz9q//j/vv93/////9gv8y/u//39gD/seoB+//sAfv/7w/AD8AP0a/P53/H9D+2zAJJkWLUrCzMogHQKSTJBUWy/3IR5XLTwVKR/5xP902zAJJkgqLZJy0Q8fRUb6cE5S6NnKzf3IGsSTJBUWy9DLP5Kh4KilUWyMFj8fM+7Pgm1FKotkdR5w1FKotmA26KxqdaVPYIh728pMkFRbMAkk0mgZDf2hqN7fHnLXH+f15xxHxcAHQKSTJBUUsLGdx/Y81qcqUIn4uADoFJJkgqLZf7tC8EBnFlggpTqFIKi1UkDaBCkFRbMAfuZYfipHoD0FKoo3ZmGqdlBKotmASJtAqmGlraEKcKi2SFe6IduuOtKop6vk8rIldVhd8fz6CnywvbQKzAJJkgF6k6yXmywJyAOqOcoBJMkE8G6M5RBMgz1q5LO3hyAOqOcoBJMkE8G6VY5yU7dCgO27W2YK8AOgUkk6NtpU4ahpXtf2bWh4I+esWClUWy/7VBKakeqXfKC8upwF+oBFCvADoFJJOjbaVyB3dtIqWjA8Rthe2gVmASTJAL1HBH6doSyi0V5sruHFQQDoFJE2d1Rmkke8jX3LZvbxDt1x1pVFPV7dreNzdI+oNkvcVBAOgUkTZ3VGaTIuLFmBk4si9KFeAHQKSSZjUvN/8ZqM0mRojVsiQsWClUWy/4rj6BaDoFITDCCkc6KcXoE2VlWRUWzAJJkgqLaCaAciqvj6SAFwAdApJMkFRavw+TAYVibNfKADoFJJkgnnddLHl42h8Abjb13AB0CkiV0KB77ZgEh1wXAjWuRca9eNtRSnaxpiVwbjrSqKe/wpUt+PBuuOnzsB73QJIRLZ7MAkmSCeG+4CDMnTKQrEZIKi2YBJMkFP4SsfavU9Dy0HQKSTIsAAP4IJHiVrjRjdLBkgIUcutGw3/18w8KdLX4jlCFt4CCJEazLPo34goH31ZDgqS7j1i9RmMDDoSrBxJE6/87Pnrj3pUxfSs61HTAsMbQ2Rfr7HfkT4lhIQhyC3VB23c2Ls5QQyiu83iv2FCFwSmX9u/Cao4ig0JxO7Uz52spHpy+9MoASz0DLUuPT80KCT5TZNM60HLvunOtHG2LTw555o8MArJ0o8uERnmzoUpKvWbOy/zfDT3W+h4RNuW6G5/meMPDFiMSgsMtQApqcAFNgOk3c63Aw1jQN221B+IjC+SS1cqZowUuaWESZFGPbjx4RPwEIopaCPpWSsmjvQ+h8E/0LJ59jMAj0yD6UWIw7+13ZyAfCVYkuQt5EPQTZbuhOVE1YmTQ82WgPCLxwI1Ohq2Bbag3NIADml4TcolDSMF0oQMOy9MPtlerEeHPDxkwFsdOTq7Jrnmdl+wbCueHF32b0YRZFEuzf6nR8fUThUjusceJm9L0implqy+FD0Oi5wptVS0vXXPLLmq/OgJQLLMaDoCH1ctQWi8ouQs7NGVJsMmbD2IreoOd+WljF1DpAALXBJ7RxF0greEQpu38uwYAibS7vhKC99v/l6gjHbBRYy1k4QoELjggUaeCm/PCb/uRfyia2/hfacsIItI553GWxPhEg1JvcF1bkMJkUUhhkJ+MOWwL8mzV+SY7j6IB1HhOT7QHhi7e81vBepKtppjU2JiZGPqwmUmm2YAAEw9NlWViMo9yhhJQHiqLAq2ZDhMBlLNrzd1Ki2iXX0cBwzAWx05LjsXpOSzk3udsQ9s8p6dUDxWiWegPS9IpmwKtzDYb4Q1Y4JhbNONaH1RJcU5eaGU1s4b3es9nQSfKbJaEckMVdki3DDl8z85j4ZiBZJZciNzqz0UAAC1wSezbSG5rzIVp/yEos25rMHAKMdsFFimWhG8iLFtYcmqDuC7DVZLPkuTOP6EKQM1+miF3SgnrN35sfC64i5ePyBWLL1z2eUcPqwBQUDN1qq1sa5z5cwcw6hVNpCkuGlYr4qf7sup/W0GPKc3b/RaTfziOSV7wAAAPybGB9uuSyy0RSKJPXlhSnfhVjjZrNvX2JUnJVzKlbjd++iCNOOOupxCAtHFh14C6gYowigFyyGZ8hhiYt+oPLLmq/RbtdeZJPmz4NtaghOtIwGt0i30oO66HT4kgJfOi70+P7sSUA6MocbLtaxLwAAAsiK+pcKmme41jzlDdzZAQG0S97BVMg1QqGv24ZoaPZIgCggjDSlaxlrFB1/Ac5rH5jT2T+96fbyL47w12AEWkOZnp64JrsN6UiELRbJ/cBihMcUN3hirk3Qki12KsGD3BjCBKREqGfPhUFotZ0Qc412HLclXgD1rIaSdGhWG5dv9QGHW0Q9xf2T+xsyg8HDLWcXvCzCBCy+ufJSWDF3xcZT0apkcPYpQyH1UBF8fq6+wPdO3dPDhDy4avPyvztHnuukmbWqxTz2MHnslvDDzmwo5WOuv1OX27+1hHOG6J1MUkvZoL8daBIjo9JHn7T1x+UPnfcM2fq1RhyoQENSkY5APf/T9ErWSAZVBNqbwe/4uaxSly8sV1V/jCFN3GrcTGmgw88YAP5YEQaZ7d9Y8B5PL2gInuub1nX/ibX+X1pijmQUqbnf7+qyo5XkrOmnL5xtPtJ1x/4LiYgakjDWoX6kbdowAwDv///l2rWPqrtCQ0ObgtPRL2gCl7ZxrgyDF3wALU2MASdPDfukUBgtv/+1yo1n/fRYfSLQTBlhgfgy3DhmM3WN7x+vd3ZPUiG05UGqMWC4gjvQa5XcWtKnVXMmtmxmEA+6CsBuS+H3SR573qaSs867zOc/JemGpyaz5XIGUvUwSEcPUd1w9mDBrKSLjAso/KDWAAoPjLDLXjFGU6QBMCgtOlUMM1II06Cal7/FWnZh8NkAWJJvGSAVYBQ/U0PspI/nQgogtIObOQsgVt389AaPQSWwvbnRa5Pnbf+TOhAncQW9kWgL7/PyJbPVVIjywRlthlbTtSivEUUH79DxHbtGBvndnJf8t1vz1I6PDU2DWo0nRwEY3H+iNDHPkbql76EWYXpU0nJQanJs72oWPbAk4B9AEPxuKqmCzjD48adUG8LXF2uh/BFI1f6l7btofvNoIWiTlt3kkVZF1EwvkktWsD7JqjTe5r36MnPG36QrD+RcwwfTLEuxLmeMgpjM536XkGkE1XHCzO64avIetpAC0PDwcNZjwBEDvxtOubzq4Spq6xTSq5NRKgeHiiPMxWCsIORLA33N82zPIi55KB4AgXKdIAmp2/nW1PhYu+tOHSOA9x1llw32NZ+ifpOvFLWSQAxuF5OPGclAuk9O8VrnIWFEpJuRva1hNzMX80WXiI9NHTk080UE9lXiq3QYusALpeEfXSQZb7WZ9widzllVtBZ9WZwpYviGGrkCejz9YOKgu6wXSVg2bnXeEE/+mmUlYGSAVYAmNsNfXvSMe/JwJeTpG0BIFoDU29A5FEu3kJhNmwbhsbtCa+wheJBdh5yGWvjmNkCADs8ataCVfUJLY5ay7CkUquVCneCtziAoWZSELuQjGKMhnPB1PGIARvjvwHDEmKCPhrWi9GH92ssPSqux6OLUI53PSE7B9wV9OTgm/0i6RlhlrxijKdIAmBQWFvvcqeb0tRDuATC99H+KtOuVBae9zeUgvWzPic5kBz4sjdVoEiCTS9Aln5xE0L66b5ehxptooRW86oNM1i3NlpYDRHon6gEX3wYCmJlKirRSBMfqjY7W8Z/G7Tn87hC/kqKCXxqtxGcyWTpZb6ZU0gAxAJsUkxjwqCuLd0++yh7O0bfdjrnf2WU59awjt7arMM6pB9SB+AcF95IOVF/FxikXWdLb/iR9BB0SmADveY4ibAuer+bUpVu35Kcelk2OsJpgF7TJI5397pPTvFa51WXhHkRg4MxfzRutTsdV1VyDuptDjRzv4jVlRzzyl2RfRlGNZl2oECCOSH0m3vY7y1rpSWqyZWQKlfdKGdZEsBok0UZnmJMg9wZwE/l73G/BG7SdHgTwecgKNRslkxM/FDfW40sH55pgLMCjULpIo4KqKkPt+1EmPqyx8xaEbo0MDz88hzusouyYWP/KrzZYbxzgfL90ycdV/na+IGiEMtjFBnMKBJSxrcDDL11r4Q/liBS44EuXjVCskgVJ+JQXQnrozsJUleAZ5/7VY7bDTmcSLxPc0F4+Zuw8yu25bITev11IKo8dE+nLBxlWPzAaCv3HcNJShAqBJcmAr1argcD0J0sXbP2ROYVRxZo53dJQ9xrHPSmPfUjC4exe6NuqKcEPvEPXhnt/DoQTWOJBtXe40u6eK0IgGAAAAARQ02i1Htyz7oXXwBQA0EPz0Oaz7SfpV7ihTjmsgKov5dyz9qOkO/t9Vh0a/Jejavm2WTjQq2yHLxJxfjeMYL1GGf9AaaRjIgFdKuOegoutWTD35SiKYr8F//91CF1f18zgzqIUiDwQlD12iwcVBd1guYHGlgqWi4cqMAksT7EfoyVsbrhAtepgWtLO1NRXRMe94P+PDKzLMfSLyLc8dc+T018PlEysnxoaqajivZEeWfzi/iY7XbZcXzC/2aaLEnkQJZuXglpgeJ+cYCgm4+AJkkOBQfOpsHME6BGRboq2YdnbsLjsAvMesaKQPsmjEG+sj4HaQJEOD2rka1CroHsAX3BzFG3RNMb+jbjAP7r7fIMxQ7ltkhLYMVBcjd1qFwDukfLdziPeL2+x8O6x6n+UuaxqS4Bch0a9zIUXZY17U9H45pTnkVAEJN7Rb7mNW4s9cQABYP91JjMuI4bMNZTq7sEYR0msqVP96t7mWyBgJ4agUS+aTovJER1AmtjdSpHm9VQx2CJzKjwFNYo2SZZzyCVxhZF83KG0WYCqJ+agUaHTWrkmL98nGW2rjADNHxpy56H5CIElg0Kd1K0dLwj760MLu1J1MkDpmd8j7FwAAE1nI57rirzW4F6Nc+iHZf3zFmzd0KETZp/QPYD9TChNiXr5j/+Yv4PubJ/ZDQbexjrf9Pu3LNUD9DnpWaymT2sHj4MTpCWk6qcFFrbNzxY6xhOTfoCW5ikjrT3I0pMN57cavDgYdBc3F1z44Lu4V8DAnF0deAD43C16tEVMYAAA7fI3jdvl/bSZqwPxglUgDSHW8HBeTv4Xtd8sYBKedMPFr36Amz39eRfpM6GVZznE+XlVdQ+TDqAbwmK+RgxFCCoOkaHkVkxcWt+YYrDNcK33LIPXcOJvvv5ea9CYSlTw5CF8bl8sf+C4mIGpG5O4m8z2MHU6S3bOkY+NSI0t0AAAAD/cMejSWkGSE6qeZvHkqmHd62IeSmucIHrBK4DlvWAh+ySNlvWpCOShNb/XWYzFmQ+z6THPkboI0btmenrgvVeE0XJcqfdjabVFsn9wGKhrRy/xQD40h6KRj41JYuovMonGt66pb0JltKKxt5pZC8CjQ2NSwAAACbGAWPv53VHkAbckmtheAGcGgvZFv5JorCB8+1mKbgxKuAIBFLJcEYvDMrZTZo5cs8qM/ObimCW2GTWzoXg2ATIhyyTI43j4D4Fo5LZ7zeIvYXYcYDaA25A88bvu2NuWBrzMYKWfBhwLmTmykGqvPVjnG8Lt94AAAAA;" parent="1" vertex="1">
          <mxGeometry x="220" y="229.65" width="52.03" height="60" as="geometry" />
        </mxCell>
        <mxCell id="b5ByFZvN16ckr34jluaT-1" value="5432:5432" style="text;html=1;align=center;verticalAlign=middle;resizable=0;points=[];autosize=1;strokeColor=none;fillColor=none;" vertex="1" parent="1">
          <mxGeometry x="700" y="350" width="80" height="30" as="geometry" />
        </mxCell>
        <mxCell id="b5ByFZvN16ckr34jluaT-2" value="80:80" style="text;html=1;align=center;verticalAlign=middle;resizable=0;points=[];autosize=1;strokeColor=none;fillColor=none;" vertex="1" parent="1">
          <mxGeometry x="215" y="349.47" width="50" height="30" as="geometry" />
        </mxCell>
        <mxCell id="b5ByFZvN16ckr34jluaT-3" value="443:443" style="text;html=1;align=center;verticalAlign=middle;resizable=0;points=[];autosize=1;strokeColor=none;fillColor=none;" vertex="1" parent="1">
          <mxGeometry x="205" y="370" width="70" height="30" as="geometry" />
        </mxCell>
        <mxCell id="b5ByFZvN16ckr34jluaT-4" value="8000:8000" style="text;html=1;align=center;verticalAlign=middle;resizable=0;points=[];autosize=1;strokeColor=none;fillColor=none;" vertex="1" parent="1">
          <mxGeometry x="435" y="350" width="80" height="30" as="geometry" />
        </mxCell>
        <mxCell id="b5ByFZvN16ckr34jluaT-5" value="" style="shape=image;html=1;verticalAlign=top;verticalLabelPosition=bottom;labelBackgroundColor=#ffffff;imageAspect=0;aspect=fixed;image=https://cdn1.iconfinder.com/data/icons/operating-system-flat-1/30/ubuntu-128.png" vertex="1" parent="1">
          <mxGeometry x="680" y="200.53" width="20" height="20" as="geometry" />
        </mxCell>
        <mxCell id="b5ByFZvN16ckr34jluaT-12" value="" style="shape=image;html=1;verticalAlign=top;verticalLabelPosition=bottom;labelBackgroundColor=#ffffff;imageAspect=0;aspect=fixed;image=https://cdn1.iconfinder.com/data/icons/operating-system-flat-1/30/ubuntu-128.png" vertex="1" parent="1">
          <mxGeometry x="310" y="206.05999999999997" width="20" height="20" as="geometry" />
        </mxCell>
        <mxCell id="b5ByFZvN16ckr34jluaT-13" value="" style="shape=image;html=1;verticalAlign=top;verticalLabelPosition=bottom;labelBackgroundColor=#ffffff;imageAspect=0;aspect=fixed;image=https://cdn1.iconfinder.com/data/icons/operating-system-flat-1/30/ubuntu-128.png" vertex="1" parent="1">
          <mxGeometry x="180" y="201.05999999999997" width="20" height="20" as="geometry" />
        </mxCell>
      </root>
    </mxGraphModel>
  </diagram>
</mxfile>
